<?xml version="1.0" standalone="no"?>
<!DOCTYPE svg PUBLIC "-//W3C//DTD SVG 1.1//EN" "http://www.w3.org/Graphics/SVG/1.1/DTD/svg11.dtd" >
<svg xmlns="http://www.w3.org/2000/svg" xmlns:xlink="http://www.w3.org/1999/xlink" version="1.1">
<metadata>
Created by FontForge 20161116 at Mon Apr  3 11:37:05 2017
 By Jimmy Wärting
Splatoon2 is a trademark of Nintendo.
</metadata>
<defs>
<font id="Splatoon2" horiz-adv-x="296" >
  <font-face 
    font-family="Splatoon2"
    font-weight="400"
    font-stretch="normal"
    units-per-em="1000"
    panose-1="0 0 0 0 0 0 0 0 0 0"
    ascent="880"
    descent="-120"
    x-height="559"
    cap-height="776"
    bbox="2 -311 1367.5 1101"
    underline-thickness="50"
    underline-position="-99"
    stemh="50"
    stemv="50"
    unicode-range="U+0001-FFE8"
  />
<missing-glyph 
 />
    <glyph glyph-name=".notdef" 
 />
    <glyph glyph-name="space" unicode=" " 
 />
    <glyph glyph-name="quoteright" unicode="&#x2019;" horiz-adv-x="277" 
d="M34 828c0 0 103 -2 204 -2c0 0 -4 -106 -7 -186c0 0 -40 -80 -68 -147c0 0 -37 8 -79 21c0 0 16 55 27 113c0 0 -3 -2 -68 10c0 0 -6 106 -9 191z" />
    <glyph glyph-name="quoteleft" unicode="&#x2018;" horiz-adv-x="291" 
d="M248 506c0 0 -103 2 -204 2c0 0 4 106 7 186c0 0 40 80 68 147c0 0 37 -8 79 -21c0 0 -16 -55 -27 -113c0 0 2 3 68 -10c0 0 5 -106 9 -191z" />
    <glyph glyph-name="endash" unicode="&#x2013;" horiz-adv-x="543" 
d="M26 355c0 0 250 -6 479 -9c0 0 -4 -95 -7 -182c0 0 -269 -4 -465 -8c0 0 -3 108 -7 199z" />
    <glyph glyph-name="emdash" unicode="&#x2014;" horiz-adv-x="754" 
d="M69 337c0 0 400 -6 629 -9c0 0 -4 -95 -7 -182c0 0 -419 -4 -616 -8c0 0 -2 108 -6 199z" />
    <glyph glyph-name="Lslash" unicode="&#x141;" horiz-adv-x="459" 
d="M91 242c-41 45 -87 100 -87 100l120 86c-4 198 -8 348 -8 348c88 4 172 5 172 5c-3 -88 -7 -169 -9 -242l31 22c43 -62 91 -123 91 -123c-32 -19 -80 -48 -128 -78c-4 -160 -5 -252 -5 -252c80 6 163 14 163 14l6 -157h-302c-2 97 -5 202 -7 301c-23 -14 -37 -24 -37 -24
z" />
    <glyph glyph-name="OE" unicode="&#x152;" horiz-adv-x="841" 
d="M758 385c3 -74 5 -147 5 -147c-115 -7 -204 -12 -204 -12s2 -77 5 -118c0 0 110 4 243 14c0 0 -2 -81 -3 -158c-184 -4 -357 -1 -357 -1s-1 42 -5 115c-21 -24 -62 -72 -106 -125c0 0 -37 1 -153 5c0 0 -68 62 -136 147c0 0 -3 229 -13 508c0 0 55 87 132 169
c0 0 70 -3 193 0c0 0 18 -23 44 -58l-4 49c188 4 414 7 414 7s-4 -87 -9 -172c0 0 -145 7 -257 14c3 -141 8 -266 8 -266s85 11 203 29zM181 605c0 0 5 -288 7 -500c0 0 36 -1 138 -3c0 0 12 269 10 499c0 0 -68 6 -155 4z" />
    <glyph glyph-name="dotlessi" unicode="&#x131;" horiz-adv-x="236" 
d="M176 -34h-125c0 281 -3 593 -3 593c63 -2 146 -2 146 -2c-11 -289 -18 -591 -18 -591z" />
    <glyph glyph-name="lslash" unicode="&#x142;" horiz-adv-x="420" 
d="M264 -39c-68 -1 -121 -1 -121 -1s0 125 -2 306c-23 -15 -37 -24 -37 -24c-40 45 -86 100 -86 100l121 87c-2 111 -4 232 -6 351h152l-6 -251l44 32c44 -62 92 -123 92 -123c-35 -20 -88 -53 -141 -86c-3 -119 -6 -253 -10 -391z" />
    <glyph glyph-name="oe" unicode="&#x153;" horiz-adv-x="795" 
d="M480 322l150 15c5 47 7 94 7 94c-107 -2 -158 -4 -158 -4c-1 -53 1 -105 1 -105zM740 65c-45 -58 -102 -106 -102 -106c-99 -8 -155 -11 -155 -11l-99 86c-18 -18 -49 -47 -87 -78h-116c0 0 -65 44 -129 104c0 0 -11 175 -18 383c0 0 59 64 116 117c0 0 70 5 163 11
c0 0 35 -35 78 -82c38 44 67 75 67 75c113 -4 192 -8 192 -8c59 -54 126 -120 126 -120c-17 -86 -34 -195 -34 -195c-155 -8 -258 -14 -258 -14s2 -78 2 -153c82 0 128 7 128 7l-6 84c68 7 140 8 140 8c-5 -73 -8 -108 -8 -108zM174 436c0 0 4 -181 9 -370c0 0 59 -5 115 -6
c0 0 5 173 11 377c0 0 -81 1 -135 -1z" />
    <glyph glyph-name="scaron" unicode="&#x161;" horiz-adv-x="491" 
d="M47 781c37 36 76 74 76 74l116 -151c48 55 127 150 127 150c35 -35 78 -73 78 -73c-88 -89 -169 -167 -169 -167h-82c-60 74 -146 167 -146 167zM455 440c0 0 2 -35 3 -87c0 0 -87 1 -152 5c0 0 0 33 1 72c0 0 -49 -1 -119 -6c0 0 0 -71 2 -117c0 0 55 -5 116 1
c0 0 66 -51 137 -103c0 0 -4 -61 -12 -136c0 0 -68 -64 -121 -108c0 0 -62 -1 -139 -2c0 0 -71 64 -118 109c0 0 -4 36 -6 66l141 2s1 -30 1 -59c0 0 53 1 114 2l2 104c-65 3 -114 2 -114 2c-74 53 -145 94 -145 94s-3 84 -4 147c0 0 76 83 141 138c0 0 67 2 135 5
c0 0 81 -82 137 -129z" />
    <glyph glyph-name="cid1" 
 />
    <glyph glyph-name="cid1" 
 />
    <glyph glyph-name="uni0001" 
 />
    <glyph glyph-name="uni0002" 
 />
    <glyph glyph-name="uni0003" 
 />
    <glyph glyph-name="uni0004" 
 />
    <glyph glyph-name="uni0005" 
 />
    <glyph glyph-name="uni0006" 
 />
    <glyph glyph-name="uni0007" 
 />
    <glyph glyph-name="uni0008" 
 />
    <glyph glyph-name="uni0009" unicode="&#x9;" 
 />
    <glyph glyph-name="uni000A" unicode="&#xa;" 
 />
    <glyph glyph-name="uni000B" 
 />
    <glyph glyph-name="uni000C" 
 />
    <glyph glyph-name="CR" unicode="&#xd;" 
 />
    <glyph glyph-name="uni000E" 
 />
    <glyph glyph-name="uni000F" 
 />
    <glyph glyph-name="uni0010" 
 />
    <glyph glyph-name="cid2" unicode="!" horiz-adv-x="388" 
d="M264 -37h-141s-3 63 -7 118c0 0 72 2 151 0c0 0 -1 -57 -3 -118zM269 152h-153c-14 276 -24 627 -24 627c110 0 219 -3 219 -3c-23 -323 -42 -624 -42 -624z" />
    <glyph glyph-name="cid3" unicode="&#x22;" horiz-adv-x="535" 
d="M300 636c0 0 -3 126 -13 275c0 0 99 1 200 1c0 0 -17 -159 -32 -282c0 0 -83 3 -155 6zM66 636c0 0 -10 135 -15 275c0 0 100 1 201 1c0 0 -15 -141 -31 -278c0 0 -76 -1 -155 2z" />
    <glyph glyph-name="cid4" unicode="#" horiz-adv-x="735" 
d="M407 431c-25 1 -49 1 -71 1c-12 -38 -26 -81 -40 -123h70c13 38 28 82 41 122zM627 609c28 0 54 1 54 1c-2 -58 -4 -182 -4 -182h-129c-13 -34 -30 -83 -44 -119c36 0 64 1 64 1c2 -54 0 -179 0 -179c-73 -2 -133 -2 -133 -2c-23 -64 -45 -129 -67 -193h-135
s28 75 70 198c-34 -1 -66 -1 -66 -1c-20 -65 -41 -131 -62 -197h-135s23 75 58 199h-43c-2 92 -4 172 -4 172c34 1 67 1 100 2c12 40 23 81 35 125h-70c-3 85 -1 176 -1 176c44 0 90 -1 121 -1c36 110 64 206 64 206s81 0 165 -2c0 0 -26 -75 -68 -204c0 0 35 0 72 1
c21 66 43 140 62 205c0 0 77 0 158 -2c0 0 -34 -101 -62 -204z" />
    <glyph glyph-name="cid5" unicode="$" horiz-adv-x="597" 
d="M362 -45l-1 -91c-69 -1 -121 -1 -121 -1v93h-44c0 0 -77 54 -141 110c0 52 -4 112 -4 112s67 3 145 2c0 0 0 -70 2 -109c0 0 22 0 41 1c0 49 -1 106 -1 169c-12 0 -34 0 -45 -1c0 0 -75 58 -153 116c0 0 2 162 -7 299c0 0 64 63 131 129c0 0 22 1 57 2c-1 19 9 78 9 96
h152l-1 -92c13 0 35 1 48 1c0 0 57 -68 135 -143c0 0 -4 -79 -15 -174c0 0 -62 2 -121 2c0 0 -1 75 1 171l-51 -2c-2 -78 -4 -175 -6 -280h58c0 0 56 -58 120 -114c0 0 -7 -98 -8 -177c0 0 -58 -62 -122 -119h-58zM237 366c-1 87 -2 180 -4 271l-48 -2s-2 -134 3 -269h49z
M420 241h-51c-1 -54 -2 -109 -4 -164c16 1 41 2 55 3c0 0 2 71 0 161z" />
    <glyph glyph-name="cid6" unicode="%" horiz-adv-x="797" 
d="M637 217c-52 -1 -69 0 -69 0c-3 -63 -2 -86 -2 -86c49 0 65 1 65 1c4 55 6 85 6 85zM755 223c-5 -69 -10 -92 -10 -92c-39 -51 -102 -94 -102 -94c-55 0 -79 2 -79 2c-52 41 -100 91 -100 91c-1 68 -4 95 -4 95c46 43 98 101 98 101c57 1 85 3 85 3
c43 -45 112 -106 112 -106zM226 595c-52 -1 -69 0 -69 0c-3 -63 -2 -86 -2 -86c49 0 65 1 65 1c4 55 6 85 6 85zM334 601c-5 -69 -10 -92 -10 -92c-39 -51 -92 -94 -92 -94c-55 0 -79 2 -79 2c-52 41 -110 91 -110 91c-1 68 -4 95 -4 95c46 43 108 101 108 101
c57 1 85 3 85 3c43 -45 102 -106 102 -106zM498 857c71 -23 171 -63 171 -63c-201 -442 -381 -872 -381 -872c-60 17 -148 55 -148 55c186 448 358 880 358 880z" />
    <glyph glyph-name="cid7" unicode="&#x26;" horiz-adv-x="780" 
d="M258 72c46 20 115 53 115 53s-55 80 -118 164c-28 -34 -83 -100 -83 -100c35 -61 86 -117 86 -117zM239 517c12 -13 34 -36 34 -36c37 43 75 78 110 122c-66 45 -102 70 -102 70c-25 -91 -42 -156 -42 -156zM744 191c-32 -108 -71 -211 -71 -211c-107 34 -203 71 -203 71
c-50 -51 -139 -121 -139 -121c-91 12 -186 27 -186 27c-52 56 -108 117 -108 117c21 93 42 192 42 192c50 53 118 128 118 128s-41 73 -61 108c6 113 10 229 10 229c85 47 188 110 188 110c67 -46 137 -96 137 -96c17 -82 36 -190 36 -190c-68 -71 -152 -154 -152 -154
c61 -74 133 -151 133 -151c21 87 51 188 51 188c75 -21 152 -37 152 -37c-39 -80 -90 -188 -90 -188c60 -13 143 -22 143 -22z" />
    <glyph glyph-name="cid8" unicode="'" horiz-adv-x="277" 
d="M34 828c0 0 103 -2 204 -2c0 0 -4 -106 -7 -186c0 0 -40 -80 -68 -147c0 0 -37 8 -79 21c0 0 16 55 27 113c0 0 -3 -2 -68 10c0 0 -6 106 -9 191z" />
    <glyph glyph-name="cid9" unicode="(" horiz-adv-x="460" 
d="M240 901c90 -56 176 -117 176 -117c-89 -99 -186 -206 -186 -206c-11 -192 -4 -413 -4 -413c66 -68 177 -165 177 -165c-62 -45 -126 -91 -126 -91c-106 119 -203 210 -203 210c-10 258 -22 511 -22 511c94 131 188 271 188 271z" />
    <glyph glyph-name="cid10" unicode=")" horiz-adv-x="463" 
d="M201 892c0 0 94 -129 207 -262c0 0 -9 -262 -22 -511c0 0 -97 -98 -203 -210c0 0 -64 48 -120 91c0 0 111 97 178 165c0 0 1 241 -2 421c0 0 -95 102 -185 194c0 0 80 63 147 112z" />
    <glyph glyph-name="cid11" unicode="*" horiz-adv-x="425" 
d="M363 728c-26 -13 -42 -26 -67 -39c0 0 36 -25 67 -40c0 0 -25 -34 -46 -67c-36 20 -66 40 -66 40v-83c0 0 -33 1 -76 2c1 45 0 80 0 81c0 0 -28 -19 -70 -42c0 0 -18 37 -40 69c0 0 30 20 66 40c0 0 -33 23 -70 40c0 0 28 36 45 71c26 -14 42 -28 68 -42c0 0 -1 49 -2 81
c0 0 35 -3 80 1c0 -28 0 -56 -1 -83c0 0 28 18 68 42c0 0 21 -36 44 -71z" />
    <glyph glyph-name="cid12" unicode="+" horiz-adv-x="662" 
d="M406 426c0 0 86 -2 181 -2c0 0 0 -73 -3 -141c0 0 -99 4 -180 6c0 0 -1 -102 -1 -188c0 0 -69 3 -151 5v181c0 0 -74 -3 -175 -5c0 0 -2 73 -6 150c78 -2 178 -4 178 -4s1 86 -4 185c0 0 82 2 167 5c-3 -104 -6 -192 -6 -192z" />
    <glyph glyph-name="cid13" unicode="," horiz-adv-x="279" 
d="M34 129c0 0 103 -2 204 -2c0 0 -4 -106 -7 -185c0 0 -40 -80 -68 -147c0 0 -37 8 -79 21c0 0 16 55 27 113c0 0 -3 -2 -68 10c0 0 -6 105 -9 190z" />
    <glyph glyph-name="cid14" unicode="-" horiz-adv-x="503" 
d="M52 350c0 0 196 -8 404 -10c0 0 -2 -98 -7 -182c0 0 -214 -5 -391 -7c0 0 -5 98 -6 199z" />
    <glyph glyph-name="cid15" unicode="." horiz-adv-x="303" 
d="M254 129c-4 -89 -8 -186 -8 -186c-87 0 -192 2 -192 2c-1 90 -4 188 -4 188c99 -1 204 -4 204 -4z" />
    <glyph glyph-name="cid16" unicode="/" horiz-adv-x="721" 
d="M458 857c71 -23 149 -50 149 -50c-201 -442 -381 -872 -381 -872c-60 17 -127 42 -127 42c187 448 359 880 359 880z" />
    <glyph glyph-name="cid17" unicode="0" horiz-adv-x="599" 
d="M204 605c0 0 5 -288 7 -500c0 0 66 -1 168 -3c0 0 11 269 10 499c0 0 -98 6 -185 4zM520 96c0 0 -67 -66 -132 -143c0 0 -66 1 -182 5c0 0 -78 62 -146 147c0 0 -3 229 -13 508c0 0 64 87 141 169c0 0 101 -3 224 0c0 0 77 -85 142 -181c0 0 -23 -268 -34 -505z" />
    <glyph glyph-name="cid18" unicode="1" horiz-adv-x="348" 
d="M303 772c0 0 -23 -387 -30 -818c0 0 -78 2 -159 2c0 0 20 372 38 652c0 0 -46 4 -103 -2c0 0 -8 82 -9 166c0 0 143 4 263 0z" />
    <glyph glyph-name="cid19" unicode="2" horiz-adv-x="603" 
d="M537 639c0 0 -15 -148 -36 -317c0 0 -66 -64 -144 -133c0 0 -70 4 -146 8c0 0 3 -92 6 -105c0 0 147 5 311 15c0 0 -3 -78 -10 -155c0 0 -209 2 -439 4c0 0 -6 123 -18 247c0 0 69 61 139 133c0 0 67 3 149 0c0 0 12 111 19 288c0 0 -26 0 -159 3c0 0 10 -69 19 -203
c0 0 -85 -5 -171 -5c0 0 0 68 -4 215c0 0 73 89 125 150c0 0 91 3 214 8c0 0 77 -80 145 -153z" />
    <glyph glyph-name="cid20" unicode="3" horiz-adv-x="569" 
d="M26 75c3 89 4 150 4 150c76 -2 160 -6 160 -6c-1 -75 -5 -132 -5 -132c102 0 192 2 192 2c-3 110 -13 224 -13 224c-85 7 -160 12 -160 12c4 75 5 142 5 142c73 4 150 9 150 9c5 88 3 156 3 156c-109 -6 -237 -10 -237 -10c-12 78 -19 158 -19 158c124 2 258 2 258 2
c82 -76 135 -124 135 -124c1 -80 5 -183 5 -183c-52 -38 -94 -66 -94 -66c36 -37 87 -76 87 -76c19 -132 36 -249 36 -249c-63 -49 -133 -128 -133 -128c-122 4 -228 -2 -228 -2c-74 37 -146 121 -146 121z" />
    <glyph glyph-name="cid21" unicode="4" horiz-adv-x="566" 
d="M456 361c9 0 70 8 77 9c0 0 2 -68 0 -141c0 0 -65 -8 -80 -9c-4 -208 -2 -261 -2 -261c-86 -4 -164 0 -164 0c10 112 15 254 15 254c-85 -12 -117 -22 -117 -22c-84 64 -145 129 -145 129c15 184 35 392 35 392c82 -11 159 -21 159 -21c-24 -166 -41 -359 -41 -359
c91 13 113 18 113 18c10 276 17 437 17 437c102 -3 146 -2 146 -2c-6 -175 -10 -314 -13 -424z" />
    <glyph glyph-name="cid22" unicode="5" horiz-adv-x="551" 
d="M393 -44c-115 5 -219 -2 -219 -2c-55 59 -118 132 -118 132c3 41 4 120 4 120c80 -1 160 -5 160 -5c-11 -59 -17 -108 -17 -108c124 2 157 2 157 2c-6 119 -18 240 -18 240c-80 1 -148 0 -148 0c-71 51 -131 103 -131 103c6 228 17 354 17 354c322 -6 418 -6 418 -6
c-3 -78 -1 -155 -1 -155c-159 6 -287 15 -287 15c-3 -70 -6 -163 -6 -163c71 5 146 9 146 9c73 -78 145 -142 145 -142c-3 -111 12 -269 12 -269c-42 -56 -114 -125 -114 -125z" />
    <glyph glyph-name="cid23" unicode="6" horiz-adv-x="571" 
d="M367 327c-77 3 -164 -1 -164 -1s-2 -112 -4 -238c102 -1 181 0 181 0c-3 120 -13 239 -13 239zM529 551c-86 -2 -140 -1 -140 -1c-3 43 -4 86 -4 86h-179c-3 -93 -1 -187 -1 -187c85 7 172 16 172 16c67 -51 131 -123 131 -123c10 -132 14 -267 14 -267
c-72 -61 -132 -119 -132 -119c-103 -2 -193 0 -193 0c-87 60 -151 120 -151 120c6 410 3 593 3 593c81 67 148 117 148 117c101 0 198 1 198 1c63 -74 127 -127 127 -127c6 -46 7 -109 7 -109z" />
    <glyph glyph-name="cid24" unicode="7" horiz-adv-x="512" 
d="M474 778c0 0 -69 -458 -116 -827c-78 1 -148 5 -148 5s50 352 83 650c0 0 -104 -3 -264 -8c0 0 -3 84 -3 180c0 0 151 -1 448 0z" />
    <glyph glyph-name="cid25" unicode="8" horiz-adv-x="573" 
d="M352 270c0 0 -56 3 -141 4c0 0 -4 -84 -2 -182c0 0 52 -1 144 2c0 0 2 95 -1 176zM204 648c0 0 1 -111 8 -225c0 0 59 0 144 -1c0 0 9 118 14 220c0 0 -56 5 -166 6zM422 352c40 -39 93 -77 93 -77l-18 -197s-57 -59 -125 -121c0 0 -95 -1 -184 -2c0 0 -73 68 -121 132
c0 0 -10 91 -15 193c0 0 48 31 84 68c-35 44 -72 80 -72 80l-19 224s77 67 138 137c0 0 98 3 212 -3c0 0 73 -70 130 -141c0 0 -9 -119 -24 -217c0 0 -47 -36 -79 -76z" />
    <glyph glyph-name="cid26" unicode="9" horiz-adv-x="575" 
d="M207 336c70 -2 147 1 147 1s9 138 13 301c-85 1 -164 0 -164 0c2 -207 4 -302 4 -302zM471 -39c-132 0 -233 -1 -233 -1c2 69 2 140 2 140c84 -3 108 -7 108 -7c2 45 4 122 4 122c-82 -5 -156 -15 -156 -15c-70 64 -123 129 -123 129c-11 150 -23 319 -23 319
c80 69 143 143 143 143c86 2 177 0 177 0l151 -141c-27 -345 -50 -689 -50 -689z" />
    <glyph glyph-name="cid27" unicode=":" horiz-adv-x="396" 
d="M92 158c0 0 107 -3 212 -2c0 0 -4 -113 -7 -197c0 0 -104 -1 -195 -4c0 0 -6 112 -10 203zM85 566c0 0 110 -3 219 -2c0 0 -4 -117 -7 -205c0 0 -108 -2 -203 -4c0 0 -6 117 -9 211z" />
    <glyph glyph-name="cid28" unicode=";" horiz-adv-x="376" 
d="M94 129c0 0 103 -2 204 -2c0 0 -4 -106 -7 -185c0 0 -40 -80 -68 -147c0 0 -37 8 -79 21c0 0 16 55 27 113c0 0 -3 -2 -68 10c0 0 -6 105 -9 190zM82 562c0 0 110 -2 219 -2c0 0 -4 -116 -7 -205c0 0 -108 -1 -203 -4c0 0 -5 117 -9 211z" />
    <glyph glyph-name="cid29" unicode="&#x3c;" horiz-adv-x="458" 
d="M294 568c61 -64 118 -126 118 -126l-265 -185c106 -82 262 -189 262 -189c-49 -57 -106 -118 -106 -118c-141 119 -278 242 -278 242c-4 72 -5 144 -5 144c133 112 274 232 274 232z" />
    <glyph glyph-name="cid30" unicode="=" horiz-adv-x="688" 
d="M101 573c0 0 264 -2 488 -2c0 0 2 -81 -4 -166c0 0 -239 -6 -481 -7c0 0 -1 93 -3 175zM101 311c0 0 229 -4 488 -2c0 0 -3 -79 -4 -165c0 0 -246 -4 -481 -7c0 0 -1 93 -3 174z" />
    <glyph glyph-name="cid31" unicode="&#x3e;" horiz-adv-x="505" 
d="M168 570c0 0 169 -141 288 -233c0 0 -8 -74 -13 -137c0 0 -118 -104 -263 -239c0 0 -62 63 -118 118c0 0 154 106 255 177l-264 189s56 55 115 125z" />
    <glyph glyph-name="cid32" unicode="?" horiz-adv-x="704" 
d="M489 806c88 -77 176 -173 176 -173c-30 -150 -55 -265 -55 -265c-63 -53 -131 -96 -131 -96c-42 8 -76 -6 -76 -6c-2 -70 -7 -112 -7 -112c-75 1 -132 0 -132 0c-4 77 -8 138 -8 138c52 43 91 100 91 100c40 -1 116 9 116 9c5 103 11 234 11 234c-146 4 -258 1 -258 1
c4 -90 7 -154 7 -154c-89 -7 -174 -17 -174 -17c-9 81 -20 161 -20 161c92 104 161 183 161 183c170 -2 299 -3 299 -3zM254 84c0 0 73 1 152 -1c0 0 -1 -57 -3 -118h-142s-3 63 -7 119z" />
    <glyph glyph-name="cid33" unicode="@" horiz-adv-x="858" 
d="M474 95c2 85 5 194 5 194c-57 0 -113 -1 -113 -1c6 -92 14 -194 14 -194c48 1 94 1 94 1zM569 753c122 -114 246 -246 246 -246c-23 -197 -46 -387 -46 -387c-95 -42 -177 -96 -177 -96s-17 18 -30 32c-47 -29 -84 -64 -84 -64c-54 2 -106 3 -106 3
c-49 45 -106 93 -106 93c-13 107 -19 208 -19 208c46 42 107 101 107 101c87 3 129 3 129 3s2 29 -2 56c0 0 -24 -1 -180 -10c0 0 -10 69 -12 131l194 -10c75 -65 160 -131 160 -131s-30 -71 -57 -148c0 0 -7 -97 -9 -168l91 66c13 124 18 293 18 293
c-82 80 -149 132 -149 132c-120 -3 -259 -12 -259 -12c-65 -86 -123 -165 -123 -165c32 -190 64 -371 64 -371c68 -51 135 -100 135 -100c101 9 192 18 192 18c4 -44 9 -83 9 -83c-99 -17 -225 -36 -225 -36c-118 82 -217 156 -217 156c-45 217 -85 431 -85 431
c78 119 172 269 172 269c174 17 369 35 369 35z" />
    <glyph glyph-name="cid34" unicode="A" horiz-adv-x="515" 
d="M333 281c0 0 2 177 -3 336c-71 5 -151 10 -151 10s7 -187 20 -348c73 0 134 2 134 2zM453 -35c0 0 -57 1 -124 0c0 0 2 107 5 206c0 0 -73 -3 -121 -6c0 0 2 -104 7 -196c0 0 -71 -4 -139 -4c0 0 -22 307 -52 677c0 0 65 78 136 143c0 0 81 -1 166 2c0 0 72 -73 156 -158
c0 0 -20 -354 -34 -664z" />
    <glyph glyph-name="cid35" unicode="B" horiz-adv-x="509" 
d="M320 212c-60 4 -122 4 -122 4s1 -88 5 -137c0 0 53 0 115 3c0 0 1 62 2 130zM310 342c0 0 8 150 16 296c0 0 -77 1 -144 0c4 -152 15 -298 15 -298s64 0 113 2zM457 60c0 0 -62 -45 -126 -99c0 0 -113 2 -251 3c0 0 -30 428 -47 801c0 0 146 13 305 19
c0 0 67 -67 144 -138c0 0 -23 -162 -40 -300c-43 -33 -87 -56 -87 -56s42 -20 110 -46c0 0 -7 -105 -8 -184z" />
    <glyph glyph-name="cid36" unicode="C" horiz-adv-x="510" 
d="M446 67c-69 -61 -134 -113 -134 -113h-134c-64 66 -119 128 -119 128c-18 245 -30 527 -30 527c64 94 121 168 121 168c83 5 181 11 181 11c74 -81 150 -160 150 -160c-14 -141 -27 -249 -27 -249c-75 -4 -140 -6 -140 -6c8 118 15 249 15 249c-79 -4 -149 -9 -149 -9
c-1 -255 5 -525 5 -525c55 -2 120 0 120 0c5 48 7 116 7 116c70 -3 148 -4 148 -4c-5 -70 -14 -133 -14 -133z" />
    <glyph glyph-name="cid37" unicode="D" horiz-adv-x="517" 
d="M169 614c7 -272 10 -506 10 -506c68 -2 137 -1 137 -1c17 252 29 510 29 510c-87 2 -176 -3 -176 -3zM441 93c0 0 -58 -63 -117 -125c0 0 -137 -5 -264 -1c0 0 -13 372 -34 792c0 0 157 19 324 34c0 0 76 -78 146 -166c0 0 -30 -299 -55 -534z" />
    <glyph glyph-name="cid38" unicode="E" horiz-adv-x="468" 
d="M386 385c3 -74 6 -147 6 -147c-115 -7 -204 -12 -204 -12s2 -77 5 -118c0 0 110 4 243 14c0 0 -2 -81 -4 -158c-184 -4 -356 -1 -356 -1s-16 372 -48 810c187 4 414 7 414 7s-4 -87 -9 -172c0 0 -145 7 -257 14c2 -141 7 -266 7 -266s86 11 203 29z" />
    <glyph glyph-name="cid39" unicode="F" horiz-adv-x="457" 
d="M413 583l-209 21s-7 -155 -7 -279c0 0 87 8 188 20c1 -80 4 -141 4 -141s-104 -2 -193 -5c0 0 1 -135 1 -235c0 0 -66 -2 -129 -1c0 0 -20 413 -36 806c152 8 403 12 403 12s-8 -93 -22 -198z" />
    <glyph glyph-name="cid40" unicode="G" horiz-adv-x="548" 
d="M351 620c0 0 -79 1 -149 -4c0 0 6 -262 8 -522c0 0 96 -2 141 -3c0 0 1 48 2 83c0 0 -69 -3 -91 -5c-1 51 2 123 2 123c87 -4 236 -13 236 -13s-8 -120 -14 -192c0 0 -56 -58 -128 -123c0 0 -91 -1 -147 -4c0 0 -69 50 -130 118c0 0 -22 252 -45 539c0 0 81 84 157 161
c0 0 92 2 205 3c0 0 51 -74 115 -147c0 0 -2 -68 -7 -133c0 0 -79 1 -164 0c0 0 4 57 9 119z" />
    <glyph glyph-name="cid41" unicode="H" horiz-adv-x="518" 
d="M459 -41c-78 2 -130 3 -130 3c0 111 -1 235 -1 235s-73 1 -136 1c0 0 2 -110 0 -232c-68 -2 -129 -2 -129 -2c-14 338 -29 808 -29 808c92 3 170 4 170 4c-9 -228 -11 -454 -11 -454s56 3 137 7c0 0 -4 201 -4 449c90 0 171 -3 171 -3c-25 -485 -38 -816 -38 -816z" />
    <glyph glyph-name="cid42" unicode="I" horiz-adv-x="237" 
d="M191 -34c0 0 -71 1 -146 0c0 0 -4 412 -16 815c0 0 81 0 179 2c0 0 -17 -434 -17 -817z" />
    <glyph glyph-name="cid43" unicode="J" horiz-adv-x="524" 
d="M451 81c-52 -63 -115 -125 -115 -125c-58 -1 -152 8 -152 8c-70 77 -129 133 -129 133c-4 72 -7 138 -7 138c79 5 158 -2 158 -2c-3 -62 -7 -128 -7 -128c66 -6 119 -6 119 -6c5 307 9 686 9 686c72 -2 164 -7 164 -7c-18 -370 -40 -697 -40 -697z" />
    <glyph glyph-name="cid44" unicode="K" horiz-adv-x="498" 
d="M456 -41c-79 3 -164 7 -164 7c-48 78 -88 144 -88 144c0 -66 -2 -143 -2 -143c-73 -5 -136 -6 -136 -6c-9 317 -28 820 -28 820c86 -1 165 3 165 3c-6 -143 2 -217 2 -217s63 88 125 200c0 0 57 -27 127 -66c-127 -192 -240 -371 -240 -371s75 -128 144 -225
c52 5 101 12 101 12c0 -82 -6 -158 -6 -158z" />
    <glyph glyph-name="cid45" unicode="L" horiz-adv-x="383" 
d="M186 108c81 6 164 14 164 14l6 -157h-302c-9 365 -19 811 -19 811c88 4 172 5 172 5c-18 -410 -21 -673 -21 -673z" />
    <glyph glyph-name="cid46" unicode="M" horiz-adv-x="662" 
d="M203 784c61 -304 125 -541 125 -541c62 269 133 542 133 542c102 -6 151 -12 151 -12c-7 -462 -1 -811 -1 -811c-90 0 -135 2 -135 2c1 202 -4 403 -4 403c-36 -136 -78 -287 -78 -287c-53 -1 -135 3 -135 3c-40 154 -77 282 -77 282c3 -183 -1 -401 -1 -401
c-100 -4 -141 -3 -141 -3c8 426 7 812 7 812c86 9 156 11 156 11z" />
    <glyph glyph-name="cid47" unicode="N" horiz-adv-x="563" 
d="M374 238c0 0 2 254 8 548c0 0 71 -1 152 -4c0 0 -19 -395 -37 -819c0 0 -58 -2 -132 -4c0 0 -102 247 -176 439c0 0 12 -206 19 -437c0 0 -75 2 -160 3c0 0 -6 364 -9 819c0 0 53 0 139 3c0 0 102 -305 196 -548z" />
    <glyph glyph-name="cid48" unicode="O" horiz-adv-x="532" 
d="M184 605c0 0 5 -288 7 -500c0 0 36 -1 138 -3c0 0 11 269 10 499c0 0 -68 6 -155 4zM460 96c0 0 -57 -66 -122 -143c0 0 -36 1 -152 5c0 0 -68 62 -136 147c0 0 -3 229 -13 508c0 0 54 87 131 169c0 0 71 -3 194 0c0 0 67 -85 132 -181c0 0 -23 -268 -34 -505z" />
    <glyph glyph-name="cid49" unicode="P" horiz-adv-x="534" 
d="M193 633c0 0 -2 -178 -1 -366c58 -2 142 3 142 3c10 176 17 364 17 364c-90 0 -158 -1 -158 -1zM462 248c-63 -55 -130 -104 -130 -104c-74 2 -140 7 -140 7s-2 -97 -2 -189c0 0 -57 1 -130 1c0 0 -14 423 -24 815c157 5 326 10 326 10c74 -74 144 -150 144 -150
c-23 -223 -44 -390 -44 -390z" />
    <glyph glyph-name="cid50" unicode="Q" horiz-adv-x="559" 
d="M359 -36c4 -20 11 -45 19 -77c0 0 44 0 96 3c0 0 5 -69 0 -126c0 0 -95 3 -178 7c0 0 -17 59 -46 195c-19 1 -40 1 -62 2c0 0 -71 69 -136 137c0 0 -3 229 -13 508c0 0 62 83 131 169c0 0 101 -3 224 0c0 0 67 -85 132 -181c0 0 -19 -266 -24 -505c0 0 -59 -65 -122 -133
c0 0 -7 0 -21 1zM186 605c0 0 5 -288 7 -500c0 0 66 -1 168 -3c0 0 11 269 10 499c0 0 -98 6 -185 4z" />
    <glyph glyph-name="cid51" unicode="R" horiz-adv-x="508" 
d="M185 638c0 -181 -1 -356 -1 -356s63 -4 123 -8c10 179 26 369 26 369c-87 -2 -148 -5 -148 -5zM474 98c-4 -59 -9 -137 -9 -137c-74 3 -153 6 -153 6c-58 100 -102 194 -102 194c-13 1 -25 1 -25 1s4 -82 10 -198c0 0 -87 -2 -139 0c0 0 -7 388 -26 812
c0 0 168 10 313 15c82 -86 141 -145 141 -145c-21 -199 -40 -379 -40 -379c-58 -48 -113 -98 -113 -98l51 -68c51 3 92 -3 92 -3z" />
    <glyph glyph-name="cid52" unicode="S" horiz-adv-x="544" 
d="M514 648c0 0 -4 -79 -15 -174c0 0 -72 2 -131 2c0 0 -1 75 1 171c0 0 -101 -8 -174 -12c0 0 -2 -134 3 -269c0 0 84 -1 172 -1c0 0 66 -58 130 -114c0 0 -7 -98 -8 -177c0 0 -68 -62 -132 -119c0 0 -82 0 -154 1c0 0 -87 54 -151 110c0 52 -4 112 -4 112s77 3 155 2
c0 0 0 -70 2 -109c0 0 68 3 152 9c0 0 2 71 0 161c0 0 -69 1 -157 -1c0 0 -85 58 -163 116c0 0 2 162 -7 299c0 0 74 63 141 129c0 0 89 4 195 7c0 0 67 -68 145 -143z" />
    <glyph glyph-name="cid53" unicode="T" horiz-adv-x="524" 
d="M187 -38c0 0 -3 216 -8 633c0 0 -52 -2 -137 -5c0 0 -6 97 -10 187c233 3 459 6 459 6c-4 -95 -9 -186 -9 -186c-67 1 -145 1 -145 1s-8 -322 -16 -633c0 0 -67 -1 -134 -3z" />
    <glyph glyph-name="cid54" unicode="U" horiz-adv-x="530" 
d="M505 757c0 0 -14 -330 -24 -633c0 0 -64 -77 -131 -171c0 0 -61 1 -141 1c0 0 -76 79 -151 152c-19 354 -29 672 -29 672s82 2 180 4c0 0 -6 -350 0 -658c0 0 70 1 140 5c0 0 3 292 9 629c0 0 72 0 147 -1z" />
    <glyph glyph-name="cid55" unicode="V" horiz-adv-x="546" 
d="M278 173c50 284 99 609 99 609c70 -8 145 -21 145 -21c-87 -421 -161 -797 -161 -797c-86 -1 -184 -4 -184 -4c-80 379 -151 796 -151 796c78 11 174 26 174 26c42 -322 78 -609 78 -609z" />
    <glyph glyph-name="cid56" unicode="W" horiz-adv-x="724" 
d="M454 -36c-62 302 -94 485 -94 485c-40 -260 -86 -485 -86 -485c-100 -1 -169 1 -169 1c-33 396 -71 810 -71 810c72 5 154 9 154 9c8 -261 21 -502 21 -502c45 295 78 494 78 494c70 1 124 2 124 2c43 -258 98 -499 98 -499c16 275 25 503 25 503c78 -2 155 -10 155 -10
c-42 -465 -75 -809 -75 -809c-75 0 -160 1 -160 1z" />
    <glyph glyph-name="cid57" unicode="X" horiz-adv-x="485" 
d="M445 -29c-68 -7 -141 -14 -141 -14c-27 91 -69 225 -69 225c-30 -112 -61 -229 -61 -229c-70 7 -143 15 -143 15c78 219 136 405 136 405s-67 210 -128 395c78 10 164 18 164 18c17 -100 45 -200 45 -200s37 109 57 197c73 -7 149 -17 149 -17
c-79 -203 -149 -393 -149 -393s63 -192 140 -402z" />
    <glyph glyph-name="cid58" unicode="Y" horiz-adv-x="482" 
d="M416 292l-107 -106s-10 -49 -3 -223c0 0 -65 -1 -138 1c0 0 -4 71 -4 226c-65 60 -110 113 -110 113c-13 183 -29 475 -29 475c80 2 154 2 154 2s-2 -334 1 -473c73 -3 117 -4 117 -4c2 162 6 477 6 477c76 0 157 -1 157 -1s-22 -297 -44 -487z" />
    <glyph glyph-name="cid59" unicode="Z" horiz-adv-x="502" 
d="M481 594c0 0 -177 -264 -322 -486c0 0 134 9 297 27c0 0 -10 -88 -13 -169c0 0 -171 -2 -360 -2c0 0 -33 78 -58 148c0 0 158 257 301 491c0 0 -140 -1 -276 -2c0 0 -2 77 -7 182c0 0 161 -5 344 -7c0 0 46 -83 94 -182z" />
    <glyph glyph-name="cid60" unicode="[" horiz-adv-x="487" 
d="M395 694c-84 4 -164 6 -164 6c-1 -253 9 -621 9 -621c39 1 80 4 147 14c9 -93 15 -184 15 -184c-272 -3 -307 -2 -307 -2c-16 490 -40 990 -40 990c183 -2 362 -3 362 -3c-10 -114 -22 -194 -22 -200z" />
    <glyph glyph-name="cid97" unicode="\" horiz-adv-x="634" 
d="M199 870c0 0 169 -408 381 -893c0 0 -73 -29 -142 -55c0 0 -199 466 -396 887c0 0 65 25 157 61z" />
    <glyph glyph-name="cid62" unicode="]" horiz-adv-x="485" 
d="M102 681c0 0 -11 112 -17 213c0 0 158 -2 350 -4c0 0 -32 -517 -38 -989c0 0 -169 2 -327 4c0 0 17 102 22 194c89 -17 127 -22 172 -30c0 0 9 378 8 631c0 0 -95 -9 -170 -19z" />
    <glyph glyph-name="cid63" unicode="^" horiz-adv-x="620" 
d="M587 479c-67 -51 -135 -119 -135 -119l-136 212c-70 -95 -161 -214 -161 -214c-63 68 -130 131 -130 131c121 118 237 244 237 244c62 -5 121 -12 121 -12c84 -108 204 -242 204 -242z" />
    <glyph glyph-name="cid64" unicode="_" horiz-adv-x="425" 
d="M36 133c0 0 189 -6 355 -10c0 0 -5 -64 -7 -151c0 0 -145 -3 -341 -7c0 0 -6 81 -7 168z" />
    <glyph glyph-name="cid65" unicode="`" horiz-adv-x="345" 
d="M35 841c0 0 80 40 159 82c0 0 60 -116 126 -250c0 0 -70 -35 -137 -68c0 0 -70 115 -148 236z" />
    <glyph glyph-name="cid66" unicode="a" horiz-adv-x="511" 
d="M172 275c0 0 3 -106 13 -214c0 0 78 10 115 15c0 0 3 90 6 197c0 0 -67 4 -134 2zM388 -18l-195 -44s-61 50 -136 95c0 0 -9 119 -23 273c0 0 54 41 129 92c68 -8 147 -18 148 -18c4 24 6 69 6 69l-216 -10s-6 52 -9 130h234s65 -53 119 -100c-24 -222 -34 -392 -34 -392
s20 -7 77 -15c-13 -62 -30 -119 -30 -119c-43 23 -70 39 -70 39z" />
    <glyph glyph-name="cid67" unicode="b" horiz-adv-x="491" 
d="M336 431c0 0 -89 -5 -155 -9c0 0 -1 -196 4 -353c0 0 71 -1 133 1c0 0 13 199 18 361zM62 -30c0 0 -19 399 -35 804c86 1 154 4 154 4c-4 -155 -2 -230 -2 -230s79 9 155 14c0 0 59 -53 130 -116c0 0 -18 -200 -40 -385c0 0 -40 -59 -96 -113c0 0 -127 10 -266 22z" />
    <glyph glyph-name="cid68" unicode="c" horiz-adv-x="478" 
d="M453 432c1 -43 2 -108 2 -108c-77 3 -134 7 -134 7c-1 44 -2 87 -2 87c-74 5 -142 7 -142 7c6 -168 8 -348 8 -348c66 -3 120 -5 120 -5c0 61 -1 91 -1 91c67 0 140 -2 140 -2c1 -49 0 -89 0 -89c-60 -68 -109 -118 -109 -118c-78 -5 -162 -8 -162 -8
c-80 72 -127 119 -127 119c-5 175 -14 367 -14 367c68 65 130 137 130 137c85 -3 161 -8 161 -8c63 -61 130 -129 130 -129z" />
    <glyph glyph-name="cid69" unicode="d" horiz-adv-x="480" 
d="M184 70c62 -2 132 -1 132 -1c5 157 4 353 4 353c-65 4 -154 9 -154 9c5 -162 18 -361 18 -361zM174 -52c-66 54 -106 113 -106 113c-22 185 -40 385 -40 385c81 63 140 116 140 116c76 -5 154 -14 154 -14s2 75 -2 240c0 0 69 -3 135 -4c-16 -415 -34 -814 -34 -814
c-120 -12 -247 -22 -247 -22z" />
    <glyph glyph-name="cid70" unicode="e" horiz-adv-x="482" 
d="M171 322l150 15c5 47 7 94 7 94c-107 -2 -158 -4 -158 -4c-1 -53 1 -105 1 -105zM431 65c-45 -58 -102 -106 -102 -106c-99 -8 -155 -11 -155 -11l-126 111l-19 363c58 77 120 142 120 142c113 -4 192 -8 192 -8c59 -54 126 -120 126 -120c-17 -86 -34 -195 -34 -195
c-155 -8 -258 -14 -258 -14s2 -78 2 -153c82 0 128 7 128 7l-6 84c68 7 140 8 140 8c-5 -73 -8 -108 -8 -108z" />
    <glyph glyph-name="cid71" unicode="f" horiz-adv-x="433" 
d="M244 472c52 5 155 12 155 12c-2 -73 -4 -144 -4 -144s-93 2 -151 3c0 0 1 -191 0 -384c-62 -3 -121 5 -122 5c0 0 -1 227 -5 378c0 0 -52 -2 -81 -3l-4 128c44 1 80 2 80 2s-2 86 -14 191c73 68 134 124 134 124h186s-8 -100 -19 -197c0 0 -79 15 -149 28
c-1 -1 -4 -68 -6 -143z" />
    <glyph glyph-name="cid72" unicode="g" horiz-adv-x="475" 
d="M308 423c0 0 -63 0 -138 -2c0 0 7 -172 9 -343c0 0 65 -1 119 1c0 0 8 238 10 344zM405 -153c0 0 -58 -57 -115 -105c0 0 -74 -1 -128 -1c0 0 -56 54 -109 112c0 0 4 37 5 84c0 0 70 -4 111 -7c0 0 -1 -43 -1 -75c0 0 56 -1 120 0c0 0 4 71 1 100c0 0 -53 1 -108 1
c0 0 -69 60 -125 115c0 0 -10 176 -25 354c0 0 64 72 133 135c0 0 67 4 148 4c0 0 71 -61 139 -135c-24 -297 -26 -248 -46 -582z" />
    <glyph glyph-name="cid73" unicode="h" horiz-adv-x="498" 
d="M311 -36c0 0 5 242 8 442c0 0 -65 -1 -133 -4c0 0 -3 -226 -4 -438c0 0 -66 -3 -125 -3c0 0 -9 457 -18 820c77 2 153 2 153 2c-5 -154 -7 -267 -7 -267s17 31 40 55c0 0 61 -2 127 -6c0 0 57 -81 113 -149c0 0 -7 -228 -9 -455c0 0 -73 1 -145 3z" />
    <glyph glyph-name="cid74" unicode="i" horiz-adv-x="236" 
d="M176 -34h-125c0 281 -3 593 -3 593c63 -2 146 -2 146 -2c-11 -289 -18 -591 -18 -591zM199 637c0 0 -75 1 -157 2c0 0 -3 83 -5 151c0 0 83 0 168 -2c0 0 -3 -66 -6 -151z" />
    <glyph glyph-name="cid75" unicode="j" horiz-adv-x="292" 
d="M80 790c0 0 92 0 178 -2c0 0 -3 -66 -7 -151c0 0 -84 1 -166 2c0 0 -3 83 -5 151zM85 555c0 0 92 -2 166 3c0 0 -8 -332 -12 -648c0 0 -70 -76 -125 -139c0 0 -63 -7 -111 -11l1 149l92 3s-4 332 -11 643z" />
    <glyph glyph-name="cid76" unicode="k" horiz-adv-x="482" 
d="M447 -39c-83 3 -160 4 -160 4c-57 125 -105 255 -105 255c-4 -146 -4 -256 -4 -256c-72 0 -124 -1 -124 -1s-2 363 -16 821c84 0 163 -1 163 -1c-9 -239 -14 -416 -14 -416s56 106 98 202c0 0 70 -22 138 -55c-69 -84 -170 -219 -170 -219s52 -111 103 -204
c49 1 100 3 100 3c-5 -73 -9 -133 -9 -133z" />
    <glyph glyph-name="cid77" unicode="l" horiz-adv-x="233" 
d="M176 -39c-69 -1 -121 -1 -121 -1s-2 418 -11 820h153s-11 -392 -21 -819z" />
    <glyph glyph-name="cid78" unicode="m" horiz-adv-x="687" 
d="M502 -36c0 0 7 214 9 443c0 0 -38 -3 -88 -7c0 0 -6 -169 -14 -391c0 0 -52 1 -133 0c0 0 0 172 -1 388c0 0 -42 2 -96 4c1 -214 2 -431 2 -439c0 0 -34 1 -126 0c0 0 -12 244 -19 448c0 0 57 77 131 154c0 0 54 -3 108 -5c25 -38 51 -82 51 -82s37 40 81 81
c0 0 49 1 108 3c0 0 56 -56 135 -142c-10 -215 -14 -457 -14 -457s-54 1 -134 2z" />
    <glyph glyph-name="cid79" unicode="n" horiz-adv-x="475" 
d="M317 -35c0 0 0 229 -2 443c0 0 -75 0 -133 -4c0 0 -1 -210 4 -439c0 0 -41 1 -132 0c0 0 -7 280 -17 445c0 0 67 72 148 150c0 0 102 -2 140 -2c0 0 61 -70 118 -146c-12 -241 -17 -448 -17 -448s-51 0 -109 1z" />
    <glyph glyph-name="cid80" unicode="o" horiz-adv-x="476" 
d="M171 436c0 0 4 -181 8 -370c0 0 60 -5 115 -6c0 0 5 173 11 377c0 0 -80 1 -134 -1zM419 53c0 0 -63 -48 -126 -97h-116c0 0 -64 44 -128 104c0 0 -11 175 -18 383c0 0 59 64 116 117c0 0 70 5 163 11c0 0 71 -61 131 -130c-18 -189 -17 -393 -22 -388z" />
    <glyph glyph-name="cid81" unicode="p" horiz-adv-x="464" 
d="M178 439c0 0 -2 -176 -4 -341h111c6 151 12 331 12 331c-61 7 -119 10 -119 10zM291 -25c-73 -4 -124 -5 -124 -5c1 -132 -1 -220 -1 -220h-119s-6 378 -17 818c157 2 290 4 290 4c59 -64 122 -132 122 -132c-12 -188 -27 -347 -27 -347c-53 -64 -124 -118 -124 -118z
" />
    <glyph glyph-name="cid82" unicode="q" horiz-adv-x="458" 
d="M167 435c0 0 -3 -172 2 -341h122c5 160 6 331 6 331s-60 6 -130 10zM40 89c0 0 -6 161 -18 347c0 0 64 68 123 132c0 0 123 -2 280 -4c-10 -421 -17 -818 -17 -818h-129s6 115 9 220c0 0 -42 1 -125 5c0 0 -60 54 -123 118z" />
    <glyph glyph-name="cid83" unicode="r" horiz-adv-x="395" 
d="M360 402c0 0 -43 4 -91 8c-48 -43 -79 -78 -79 -78s-6 -178 -7 -368c-77 1 -135 0 -135 0c-2 287 -8 591 -8 591h159c-1 -36 -2 -73 -2 -73s36 35 72 71c0 0 47 3 100 5c0 0 -3 -75 -9 -156z" />
    <glyph glyph-name="cid84" unicode="s" horiz-adv-x="491" 
d="M455 440c0 0 2 -35 3 -87c0 0 -87 1 -152 5c0 0 0 33 1 72c0 0 -49 -1 -119 -6c0 0 0 -71 2 -117c0 0 55 -5 116 1c0 0 66 -51 137 -103c0 0 -4 -61 -12 -136c0 0 -68 -64 -121 -108c0 0 -62 -1 -139 -2c0 0 -71 64 -118 109c0 0 -4 36 -6 66l141 2s1 -30 1 -59
c0 0 53 1 114 2l2 104c-65 3 -114 2 -114 2c-74 53 -145 94 -145 94s-3 84 -4 147c0 0 76 83 141 138c0 0 67 2 135 5c0 0 81 -82 137 -129z" />
    <glyph glyph-name="cid85" unicode="t" horiz-adv-x="428" 
d="M399 -42l-163 2s-63 58 -127 113c-4 168 -4 349 -4 349s-24 -1 -58 -1l-6 140c36 -3 64 -3 64 -3c0 41 1 85 -1 131c80 0 147 -5 147 -5c-3 -75 -5 -124 -5 -124h147s-2 -56 -6 -144c0 0 -89 3 -146 5c-1 -188 -4 -337 -4 -337c73 3 158 11 158 11c4 -69 4 -137 4 -137z
" />
    <glyph glyph-name="cid86" unicode="u" horiz-adv-x="520" 
d="M381 17c0 0 -32 -27 -66 -59c0 0 -60 2 -131 1c0 0 -56 51 -125 119c-12 209 -18 482 -18 482s73 1 158 -2c0 0 -7 -263 -8 -454c0 0 53 0 130 1c0 0 2 226 0 432c0 0 79 -1 158 -5c-11 -218 -32 -453 -32 -453c27 -10 66 -20 66 -20c-17 -57 -30 -103 -30 -103
c-36 8 -61 15 -61 15c-19 26 -41 46 -41 46z" />
    <glyph glyph-name="cid87" unicode="v" horiz-adv-x="512" 
d="M267 114c41 224 72 447 72 447c72 -6 144 -16 144 -16c-71 -323 -140 -584 -140 -584c-82 1 -156 -2 -156 -2c-77 316 -147 573 -147 573c66 14 155 29 155 29c30 -205 72 -447 72 -447z" />
    <glyph glyph-name="cid88" unicode="w" horiz-adv-x="602" 
d="M374 -36c-28 136 -77 307 -77 307c-32 -162 -68 -307 -68 -307c-74 0 -149 -3 -149 -3c-25 297 -58 591 -58 591c51 3 140 7 140 7l15 -370c50 206 77 340 77 340c56 -1 103 0 103 0c27 -159 67 -345 67 -345c10 186 23 371 23 371c47 -1 131 -9 131 -9
c-35 -286 -55 -585 -55 -585c-61 0 -149 3 -149 3z" />
    <glyph glyph-name="cid89" unicode="x" horiz-adv-x="462" 
d="M426 -16c-61 -16 -137 -29 -137 -29c-30 82 -69 166 -69 166c-31 -74 -67 -166 -67 -166c-63 9 -131 20 -131 20c77 146 137 269 137 269c-60 139 -133 293 -132 295c70 20 157 32 157 32c26 -100 50 -204 50 -204c28 105 58 204 58 204c63 -10 131 -28 131 -28
c-62 -160 -131 -295 -131 -295c54 -113 134 -264 134 -264z" />
    <glyph glyph-name="cid90" unicode="y" horiz-adv-x="481" 
d="M375 -259c0 0 -71 3 -123 5c0 0 11 104 19 225c0 0 -37 -3 -80 -11c-62 43 -132 105 -132 105c-14 235 -35 489 -35 489c74 6 164 8 164 8s-5 -239 3 -486c41 -3 86 -2 86 -2s12 213 22 493c0 0 84 -5 162 -9c0 0 -42 -370 -86 -817z" />
    <glyph glyph-name="cid91" unicode="z" horiz-adv-x="496" 
d="M466 412c0 0 -171 -173 -292 -317c0 0 108 1 272 5c0 0 -7 -84 -14 -141c0 0 -171 3 -356 0c0 0 -31 65 -53 132c0 0 142 159 286 324c0 0 -127 -5 -257 -4c0 0 -5 88 -4 149c0 0 160 -3 354 0c0 0 39 -75 64 -148z" />
    <glyph glyph-name="cid92" unicode="{" horiz-adv-x="517" 
d="M298 892c54 -52 113 -109 113 -109c-75 -55 -143 -105 -143 -105c21 -108 50 -220 50 -220c-30 -32 -63 -73 -63 -73c31 -30 63 -60 63 -60c-26 -120 -45 -222 -45 -222c63 -39 126 -81 126 -81c-47 -58 -83 -111 -83 -111c-101 71 -203 147 -203 147l64 245
s-40 41 -88 82c0 0 49 45 80 78c-32 111 -78 240 -78 240c95 84 207 189 207 189z" />
    <glyph glyph-name="cid99" unicode="|" horiz-adv-x="279" 
d="M221 -54c0 0 -91 1 -166 0c0 0 5 484 -6 897c0 0 81 0 179 2c0 0 -9 -432 -7 -899z" />
    <glyph glyph-name="cid94" unicode="}" horiz-adv-x="524" 
d="M256 892c0 0 112 -105 206 -189c0 0 -45 -129 -78 -240c32 -33 81 -78 81 -78c-48 -41 -88 -82 -88 -82l63 -245s-101 -76 -202 -147c0 0 -36 53 -83 111c0 0 63 42 126 81c0 0 -19 102 -45 222c0 0 32 30 63 60c0 0 -33 41 -63 73c0 0 28 112 49 220
c0 0 -67 50 -142 105c0 0 59 57 113 109z" />
    <glyph glyph-name="cid100" unicode="~" horiz-adv-x="586" 
d="M54 713c0 0 90 58 169 113c0 0 67 -66 124 -113c0 0 60 36 124 83c0 0 34 -58 63 -102c0 0 -92 -48 -187 -101c0 0 -65 56 -119 105c0 0 -46 -37 -98 -84c0 0 -40 54 -76 99z" />
    <glyph glyph-name="_127" 
 />
    <glyph glyph-name="cid8721" unicode="&#x20ac;" horiz-adv-x="583" 
d="M32 496c0 0 24 -1 63 -1c-4 69 -6 114 -6 114c65 94 121 168 121 168c83 5 181 11 181 11c74 -81 150 -160 150 -160c-14 -141 -27 -249 -27 -249c-75 -4 -139 -6 -139 -6c7 118 14 249 14 249c-79 -4 -148 -9 -148 -9v-118c25 -1 50 -1 75 -1c0 0 1 -53 -2 -103
c0 0 -28 -1 -73 -2c1 -23 1 -45 1 -66c24 0 49 1 74 1c0 0 -1 -53 -2 -104c0 0 -28 0 -71 -1c2 -79 3 -131 3 -131c55 -2 119 0 119 0c6 48 8 116 8 116c69 -3 147 -4 147 -4c-5 -70 -14 -133 -14 -133c-68 -61 -134 -113 -134 -113h-134c-64 66 -119 128 -119 128l-9 135
c-25 0 -50 -1 -76 -1c0 0 -1 61 -2 109c0 0 27 -1 72 -1c-2 22 -3 43 -4 63h-66c0 0 -1 60 -2 109z" />
    <glyph glyph-name="_129" 
 />
    <glyph glyph-name="cid120" unicode="&#x201a;" horiz-adv-x="285" 
d="M34 129c0 0 103 -2 204 -2c0 0 -4 -106 -7 -185c0 0 -40 -80 -68 -147c0 0 -37 8 -79 21c0 0 16 55 27 113c0 0 -3 -2 -68 10c0 0 -6 105 -9 190z" />
    <glyph glyph-name="cid105" unicode="&#x201b;" horiz-adv-x="276" 
d="M242 828c-4 -85 -9 -191 -9 -191c-66 -12 -68 -10 -68 -10c10 -58 27 -113 27 -113c-43 -13 -79 -21 -79 -21c-29 67 -69 147 -69 147c-2 80 -7 186 -7 186c102 0 205 2 205 2z" />
    <glyph glyph-name="cid121" unicode="&#x201e;" horiz-adv-x="541" 
d="M50 129c0 0 103 -2 204 -2c0 0 -4 -106 -7 -185c0 0 -40 -80 -69 -147c0 0 -36 8 -78 21c0 0 16 55 27 113c0 0 -3 -2 -68 10c0 0 -6 105 -9 190zM289 129c0 0 103 -2 204 -2c0 0 -4 -106 -7 -185c0 0 -40 -80 -69 -147c0 0 -36 8 -79 21c0 0 17 55 28 113
c0 0 -3 -2 -68 10c0 0 -6 105 -9 190z" />
    <glyph glyph-name="cid668" unicode="&#x2026;" horiz-adv-x="823" 
d="M254 129c-7 -93 -8 -186 -8 -186c-94 2 -192 2 -192 2c1 95 -4 188 -4 188c99 -4 204 -4 204 -4zM511 129c-6 -93 -8 -186 -8 -186c-94 2 -191 2 -191 2c0 95 -5 188 -5 188c99 -4 204 -4 204 -4zM767 129c-6 -93 -7 -186 -7 -186c-94 2 -192 2 -192 2
c0 95 -4 188 -4 188c99 -4 203 -4 203 -4z" />
    <glyph glyph-name="cid776" unicode="&#x2020;" horiz-adv-x="520" 
d="M337 -100c0 0 -71 1 -146 0c0 0 -2 246 -7 532c-37 -1 -75 -1 -113 -1c0 0 -1 93 -4 170c0 0 45 -2 114 -4c-2 73 -4 145 -6 214c0 0 81 0 179 2c0 0 -3 -88 -6 -219c36 -1 74 -1 112 -1c0 0 -2 -81 -4 -156c0 0 -45 -1 -112 -3c-4 -168 -7 -366 -7 -534z" />
    <glyph glyph-name="cid777" unicode="&#x2021;" horiz-adv-x="520" 
d="M67 265c0 0 48 -2 120 -4c-1 54 -2 111 -3 171c-37 -1 -75 -1 -113 -1c0 0 -1 93 -4 170c0 0 45 -2 114 -4c-2 73 -4 145 -6 214c0 0 81 0 179 2c0 0 -3 -88 -6 -219c36 -1 74 -1 112 -1c0 0 -2 -81 -4 -156c0 0 -45 -1 -112 -3c-1 -56 -3 -115 -4 -176
c39 -1 80 -1 120 -1c0 0 -2 -81 -4 -156c0 0 -47 -1 -118 -3c-1 -68 -1 -135 -1 -198c0 0 -71 1 -146 0c0 0 0 78 -2 196c-38 -1 -78 -1 -118 -1c0 0 -1 93 -4 170z" />
    <glyph glyph-name="cid128" unicode="&#x2c6;" horiz-adv-x="502" 
d="M477 739c-41 -37 -86 -85 -86 -85l-132 144c-66 -66 -149 -142 -149 -142c-42 44 -89 83 -89 83c102 98 175 170 175 170c56 0 114 -3 114 -3c78 -83 167 -167 167 -167z" />
    <glyph glyph-name="cid772" unicode="&#x2030;" horiz-adv-x="983" 
d="M557 247c-52 -1 -69 0 -69 0c-3 -63 -2 -116 -2 -116c49 0 65 1 65 1c4 55 6 115 6 115zM563 349l92 -96c-5 -69 -10 -122 -10 -122c-39 -51 -82 -94 -82 -94c-55 0 -79 2 -79 2c-52 41 -90 91 -90 91c-1 68 -4 125 -4 125c46 43 88 91 88 91c57 1 85 3 85 3zM846 247
c-52 -1 -69 0 -69 0c-3 -63 -2 -116 -2 -116c49 0 65 1 65 1c4 55 6 115 6 115zM852 349l92 -96c-5 -69 -10 -122 -10 -122c-39 -51 -82 -94 -82 -94c-55 0 -79 2 -79 2c-52 41 -90 91 -90 91c-1 68 -4 125 -4 125c46 43 88 91 88 91c57 1 85 3 85 3zM206 625
c-52 -1 -69 0 -69 0c-3 -63 -2 -116 -2 -116c49 0 65 1 65 1c4 55 6 115 6 115zM212 727l92 -96c-5 -69 -10 -122 -10 -122c-39 -51 -82 -94 -82 -94c-55 0 -79 2 -79 2c-52 41 -90 91 -90 91c-1 68 -4 125 -4 125c46 43 88 91 88 91c57 1 85 3 85 3zM458 857
c71 -23 149 -50 149 -50c-201 -442 -381 -872 -381 -872c-60 17 -126 42 -126 42c186 448 358 880 358 880z" />
    <glyph glyph-name="cid223" unicode="&#xff64;" horiz-adv-x="335" 
d="M144 186l161 -162c-53 -48 -107 -98 -107 -97c-80 78 -161 160 -161 160c51 47 107 99 107 99z" />
    <glyph glyph-name="cid110" unicode="&#x2039;" horiz-adv-x="410" 
d="M253 520c50 -48 103 -107 103 -107c-99 -78 -196 -154 -196 -154c77 -72 193 -163 193 -163c-44 -48 -89 -97 -89 -97c-122 121 -225 216 -225 216c-2 50 -2 107 -2 107c104 88 216 198 216 198z" />
    <glyph glyph-name="cid143" 
 />
    <glyph glyph-name="_141" 
 />
    <glyph glyph-name="_142" 
 />
    <glyph glyph-name="_143" 
 />
    <glyph glyph-name="_144" 
 />
    <glyph glyph-name="cid98" unicode="&#x2bb;" horiz-adv-x="291" 
d="M248 506c0 0 -103 2 -204 2c0 0 4 106 7 186c0 0 40 80 68 147c0 0 37 -8 79 -21c0 0 -16 -55 -27 -113c0 0 2 3 68 -10c0 0 5 -106 9 -191z" />
    <glyph glyph-name="cid96" unicode="&#x2bc;" horiz-adv-x="277" 
d="M34 828c0 0 103 -2 204 -2c0 0 -4 -106 -7 -186c0 0 -40 -80 -68 -147c0 0 -37 8 -79 21c0 0 16 55 27 113c0 0 -3 -2 -68 10c0 0 -6 106 -9 191z" />
    <glyph glyph-name="cid108" unicode="&#x201c;" horiz-adv-x="541" 
d="M487 506c0 0 -103 2 -204 2c0 0 4 106 6 186c0 0 40 80 69 147c0 0 36 -8 79 -21c0 0 -17 -55 -27 -113c0 0 2 3 68 -10c0 0 5 -106 9 -191zM248 506c0 0 -103 2 -204 2c0 0 4 106 6 186c0 0 40 80 69 147c0 0 36 -8 79 -21c0 0 -17 -55 -27 -113c0 0 2 3 68 -10
c0 0 5 -106 9 -191z" />
    <glyph glyph-name="cid122" unicode="&#x201d;" horiz-adv-x="527" 
d="M34 828c0 0 103 -2 204 -2c0 0 -4 -106 -7 -186c0 0 -40 -80 -68 -147c0 0 -37 8 -79 21c0 0 16 55 27 113c0 0 -3 -2 -68 10c0 0 -6 106 -9 191zM271 828c0 0 103 -2 204 -2c0 0 -4 -106 -7 -186c0 0 -40 -80 -69 -147c0 0 -36 8 -79 21c0 0 17 55 28 113
c0 0 -3 -2 -68 10c0 0 -6 106 -9 191z" />
    <glyph glyph-name="cid119" unicode="&#x2022;" horiz-adv-x="517" 
d="M358 450c-7 -93 -8 -187 -8 -187c-94 2 -192 2 -192 2c1 95 -4 188 -4 188c99 -3 204 -3 204 -3z" />
    <glyph glyph-name="cid114" unicode="&#x2012;" horiz-adv-x="517" 
d="M62 465c0 0 202 -6 404 -10c0 0 0 -92 -7 -182c0 0 -199 -5 -391 -7c0 0 -2 108 -6 199z" />
    <glyph glyph-name="cid138" unicode="&#x336;" horiz-adv-x="755" 
d="M62 465c0 0 309 -6 631 -10c0 0 -2 -92 -7 -182c0 0 -321 -8 -618 -7c0 0 -2 108 -6 199z" />
    <glyph glyph-name="cid95" 
 />
    <glyph glyph-name="cid228" unicode="&#x2122;" horiz-adv-x="741" 
d="M203 413c-32 1 -67 0 -67 0s-3 147 -8 284h-83l-4 89s123 -1 260 1c0 0 -1 -46 -1 -90h-93c-3 -124 -4 -284 -4 -284zM326 785c0 0 64 -2 117 0c0 0 48 -143 86 -256c0 0 24 124 53 255c0 0 71 -1 109 -1c0 0 -2 -184 -1 -368h-87c0 0 1 100 5 211c0 0 -28 -114 -54 -211
h-53c0 0 -38 112 -75 220c0 0 6 -120 8 -220c0 0 -54 -1 -98 -1c0 0 -7 175 -10 371z" />
    <glyph glyph-name="cid227" unicode="&#xff65;" horiz-adv-x="303" 
d="M253 389c-1 -90 -7 -187 -7 -187c-94 -1 -192 2 -192 2c-4 99 -4 188 -4 188c102 -1 203 -3 203 -3z" />
    <glyph glyph-name="cid111" unicode="&#x203a;" horiz-adv-x="410" 
d="M153 513c0 0 109 -100 211 -191c0 0 2 -65 2 -121c0 0 -109 -99 -227 -202c0 0 -45 53 -91 97c0 0 113 85 192 150c0 0 -105 90 -194 167c0 0 57 52 107 100z" />
    <glyph glyph-name="cid149" 
 />
    <glyph glyph-name="_157" 
 />
    <glyph glyph-name="_158" 
 />
    <glyph glyph-name="cid224" 
 />
    <glyph glyph-name="uni0011" 
 />
    <glyph glyph-name="cid101" unicode="&#xa1;" horiz-adv-x="411" 
d="M131 593h141s3 -64 7 -120c0 0 -72 -1 -151 1c0 0 1 57 3 119zM126 403h154c13 -276 23 -626 23 -626c-110 0 -219 3 -219 3c23 322 42 623 42 623z" />
    <glyph glyph-name="cid102" unicode="&#xa2;" horiz-adv-x="533" 
d="M326 -104c0 0 -29 1 -103 0c0 0 0 18 -1 51c-29 -1 -59 -1 -59 -1c-80 72 -117 119 -117 119c-5 175 -14 367 -14 367c68 65 120 137 120 137l57 -2c-1 24 -1 49 -2 74c0 0 38 0 136 2c0 0 -1 -30 -3 -81l43 -1c63 -61 120 -129 120 -129c1 -43 2 -108 2 -108
c-77 3 -124 7 -124 7c-1 44 -2 87 -2 87c-11 1 -32 1 -44 2c-3 -97 -6 -218 -8 -348h38c0 61 -1 91 -1 91c67 0 130 -2 130 -2c1 -49 0 -89 0 -89c-60 -68 -99 -118 -99 -118c-18 -1 -48 -2 -69 -3v-55zM220 75c-1 92 -4 213 -7 349c-22 1 -46 1 -46 1c6 -168 8 -348 8 -348
c11 -1 33 -1 45 -2z" />
    <glyph glyph-name="cid103" unicode="&#xa3;" horiz-adv-x="537" 
d="M244 443c39 2 84 2 84 2c-4 -67 -2 -128 -2 -128s-43 0 -82 -3c0 0 1 -85 1 -219c72 -2 156 -3 242 -4c0 0 -2 -66 -5 -129c0 0 -230 -6 -442 -5c0 0 -2 76 -5 141c0 0 33 -1 86 -1c-1 60 -2 140 -4 216c0 0 -52 -2 -81 -3l-4 128c44 1 80 2 80 2s-2 148 -14 253
c73 67 134 123 134 123h186s-8 -100 -19 -197c0 0 -79 15 -149 29c-1 -1 -4 -130 -6 -205z" />
    <glyph glyph-name="cid107" unicode="&#xa4;" horiz-adv-x="645" 
d="M503 0c0 0 -21 25 -69 79c-10 -8 -26 -13 -26 -13c-75 0 -171 2 -171 2l-25 12c-18 -21 -46 -52 -77 -80c0 0 -50 39 -95 82c0 0 26 22 82 71l-12 21c-2 94 -6 202 -6 202c4 4 8 18 12 22c-24 21 -54 49 -79 77c0 0 47 39 94 83c0 0 26 -31 72 -87c10 8 26 12 26 12
c79 1 179 4 179 4c6 -7 23 -13 29 -19c18 20 43 51 64 83c0 0 48 -41 92 -83c0 0 -23 -27 -70 -72c10 -8 16 -21 16 -21c-6 -96 -13 -200 -13 -200c-2 -2 -5 -15 -7 -17c22 -20 50 -47 74 -73c0 0 -43 -39 -90 -85zM400 365c-72 -1 -157 0 -157 0c-3 -86 -3 -190 -3 -190
c68 0 151 2 151 2c7 75 9 188 9 188z" />
    <glyph glyph-name="cid61" unicode="&#xa5;" horiz-adv-x="525" 
d="M472 772c-19 -76 -57 -342 -57 -342l-116 -123c33 1 67 2 100 4c-1 -53 -2 -117 -2 -117c-42 1 -94 2 -94 2c0 -17 1 -35 2 -54c32 1 63 2 94 3c-1 -53 -2 -117 -2 -117c-36 1 -86 2 -86 2c3 -25 4 -49 6 -71c-55 1 -140 1 -140 1c1 31 3 73 3 73h-67
c-1 51 -2 107 -2 107c30 -1 75 0 75 0c0 19 1 39 2 58c-27 1 -54 1 -75 0c-1 52 -2 107 -2 107c34 0 84 1 84 1v4s-53 70 -121 136c0 0 -11 235 -28 324c0 0 87 0 158 2c-2 -132 2 -327 2 -327s51 -2 97 -3c0 0 11 217 11 332c0 0 78 -2 158 -2z" />
    <glyph glyph-name="cid93" unicode="&#xa6;" horiz-adv-x="410" 
d="M106 766c0 0 89 -1 186 -2c0 0 -5 -181 -8 -315c0 0 -83 -5 -170 -4c0 0 -5 227 -8 321zM113 273c0 0 95 -1 179 -2c0 0 -5 -223 -7 -305c0 0 -79 -3 -163 -4c0 0 -5 220 -9 311z" />
    <glyph glyph-name="cid720" unicode="&#xa7;" horiz-adv-x="622" 
d="M582 567c-69 -1 -128 1 -128 1l4 92c-85 2 -158 -3 -158 -3c1 -65 6 -128 6 -128c82 0 144 -1 144 -1c66 -54 126 -115 126 -115c-4 -78 -7 -127 -7 -127c-55 -46 -123 -103 -123 -103l8 -149c-66 -50 -146 -111 -146 -111c-73 -2 -143 0 -143 0
c-69 54 -129 107 -129 107v93l139 -1c-1 -36 -4 -77 -4 -77c74 -2 144 2 144 2l-11 134s-60 -3 -140 -1c0 0 -60 57 -117 103c-4 72 -7 134 -7 134c68 47 126 105 126 105c-3 92 -7 147 -7 147c66 64 137 128 137 128c89 1 165 1 165 1c61 -56 125 -135 125 -135
c-1 -36 -4 -96 -4 -96zM444 296l-2 115s-146 1 -281 -1c2 -64 4 -113 4 -113c149 -3 279 -1 279 -1z" />
    <glyph glyph-name="cid647" unicode="&#xa8;" horiz-adv-x="482" 
d="M195 1014c-5 -66 -6 -134 -6 -134c-67 1 -137 1 -137 1c0 69 -3 135 -3 135c71 -2 146 -2 146 -2zM429 1014c-5 -66 -5 -134 -5 -134c-68 1 -138 1 -138 1c0 69 -3 135 -3 135c71 -2 146 -2 146 -2z" />
    <glyph glyph-name="cid152" unicode="&#xa9;" horiz-adv-x="791" 
d="M576 479c1 -36 1 -90 1 -90c-64 2 -111 5 -111 5c-1 37 -3 73 -3 73c-61 4 -118 6 -118 6c5 -141 7 -292 7 -292c55 -2 100 -4 100 -4c0 52 -1 76 -1 76c56 1 117 -1 117 -1c1 -41 0 -75 0 -75c-50 -56 -91 -99 -91 -99c-65 -4 -135 -7 -135 -7c-67 61 -107 101 -107 101
c-4 146 -11 307 -11 307c56 54 108 114 108 114c72 -3 135 -7 135 -7c53 -51 109 -107 109 -107zM527 775c122 -104 235 -215 235 -215c-17 -233 -30 -457 -30 -457c-87 -89 -179 -189 -176 -185c-141 -3 -284 1 -284 1c-97 84 -181 154 -181 154c-27 201 -57 415 -57 415
c66 107 130 231 130 231c175 27 363 56 363 56zM633 156c9 186 4 380 4 380c-67 64 -130 121 -130 121c-136 -14 -247 -32 -247 -32c-39 -70 -88 -136 -88 -136c7 -188 28 -379 28 -379c51 -50 111 -101 111 -101c128 -3 219 2 219 2s56 74 103 145z" />
    <glyph glyph-name="cid140" unicode="&#xaa;" horiz-adv-x="337" 
d="M128 930c0 0 2 -53 7 -108c0 0 40 5 58 8c0 0 1 45 3 99c0 0 -34 2 -68 1zM237 782l-98 -22s-31 25 -68 49c0 0 -5 59 -12 137c0 0 27 21 65 46c34 -4 74 -9 75 -9c2 13 3 35 3 35l-109 -5s-3 26 -5 65h118s33 -26 60 -50c-12 -112 -17 -197 -17 -197s10 -4 39 -8
c-7 -32 -15 -60 -15 -60c-22 11 -36 19 -36 19z" />
    <glyph glyph-name="cid109" unicode="&#xab;" horiz-adv-x="649" 
d="M518 520c50 -48 104 -107 104 -107s-105 -81 -197 -154c85 -79 193 -163 193 -163c-40 -46 -89 -97 -89 -97c-117 115 -225 216 -225 216c0 49 -1 107 -1 107c98 85 215 198 215 198zM253 520c50 -48 103 -107 103 -107s-112 -86 -196 -154c76 -73 193 -163 193 -163
c-44 -48 -89 -97 -89 -97c-118 111 -225 216 -225 216c-1 51 -2 107 -2 107c103 89 216 198 216 198z" />
    <glyph glyph-name="cid153" unicode="&#xac;" horiz-adv-x="586" 
d="M545 387c-1 -150 0 -291 0 -291c-93 0 -184 3 -184 3c5 63 9 124 9 124c-166 -1 -324 4 -324 4c-2 73 -4 152 -4 152c256 4 503 8 503 8z" />
    <glyph glyph-name="cid151" unicode="&#xad;" horiz-adv-x="517" 
d="M58 459c0 0 197 -4 405 -10c0 0 -1 -94 -6 -182c0 0 -198 -5 -391 -7c0 0 -3 108 -8 199z" />
    <glyph glyph-name="cid154" unicode="&#xae;" horiz-adv-x="791" 
d="M354 491c0 -114 -1 -224 -1 -224s57 -2 103 -5c8 113 21 232 21 232c-68 -1 -123 -3 -123 -3zM578 139c-3 -33 -7 -66 -7 -73c19 26 41 58 62 90c9 186 4 380 4 380c-67 64 -130 121 -130 121c-136 -14 -247 -32 -247 -32c-39 -70 -88 -136 -88 -136
c7 -188 28 -379 28 -379c51 -50 111 -101 111 -101c128 -3 219 2 219 2s17 22 40 54c-57 2 -118 4 -118 4c-44 63 -79 122 -79 122c-9 1 -19 1 -19 1s3 -52 8 -125c0 0 -67 -1 -107 0c0 0 -6 244 -20 511c0 0 137 6 249 9c64 -54 101 -91 101 -91
c-16 -125 -30 -238 -30 -238c-46 -30 -96 -68 -96 -68l40 -55c39 2 79 4 79 4zM527 775c122 -104 235 -215 235 -215c-17 -233 -30 -457 -30 -457c-87 -89 -179 -189 -176 -185c-141 -3 -284 1 -284 1c-97 84 -181 154 -181 154c-27 201 -57 415 -57 415
c66 107 130 231 130 231c175 27 363 56 363 56z" />
    <glyph glyph-name="cid129" unicode="&#xaf;" horiz-adv-x="438" 
d="M30 1024c0 0 190 -5 370 -6c0 0 -2 -66 -6 -129c0 0 -174 -7 -358 -12c0 0 -4 69 -6 147z" />
    <glyph glyph-name="cid707" unicode="&#xb0;" horiz-adv-x="311" 
d="M197 1001h-78c-2 -49 -2 -91 -2 -91c39 0 75 1 75 1c4 43 5 90 5 90zM283 1007c-4 -55 -8 -97 -8 -97c-31 -40 -73 -74 -73 -74c-43 0 -86 1 -86 1c-41 33 -79 72 -79 72c-1 54 -4 99 -4 99c37 34 78 72 78 72c45 1 91 2 91 2c34 -35 81 -75 81 -75z" />
    <glyph glyph-name="cid694" unicode="&#xb1;" horiz-adv-x="736" 
d="M452 405c0 0 106 -1 203 -1c0 0 -4 -41 -6 -115c-64 0 -114 0 -199 -1c0 0 -1 -52 -1 -138c0 0 -88 3 -171 5c1 56 0 57 0 131c0 0 -95 -2 -197 -4c0 0 -2 53 -6 130c78 -2 117 -5 201 -5c0 0 -2 49 -4 145c0 0 101 2 187 5c-4 -74 -6 -81 -7 -152zM62 106
c0 0 397 -11 609 -10c0 0 -4 -37 -7 -121c0 0 -399 -3 -596 -7c0 0 -2 49 -6 138z" />
    <glyph glyph-name="cid157" unicode="&#xb2;" horiz-adv-x="261" 
d="M229 1043c0 0 -6 -60 -14 -125c0 0 -25 -24 -55 -50c0 0 -34 1 -63 3c0 0 1 -35 3 -40c0 0 47 4 108 9c0 0 -1 -29 -4 -59c0 0 -39 0 -157 -2c0 0 -2 47 -7 94c0 0 26 23 53 51c0 0 33 1 64 0c0 0 5 46 7 113c0 0 -17 0 -67 1c0 0 3 -30 7 -81c0 0 -33 -2 -65 -2
c0 0 -1 30 -2 86c0 0 28 30 48 53c0 0 42 1 89 3c0 0 29 -27 55 -54z" />
    <glyph glyph-name="cid158" unicode="&#xb3;" horiz-adv-x="255" 
d="M25 827c1 35 2 58 2 58c29 0 62 -2 62 -2c-1 -29 -2 -51 -2 -51c39 0 74 1 74 1c-1 43 -5 87 -5 87c-33 2 -62 4 -62 4c2 29 2 55 2 55c28 2 58 4 58 4c2 34 1 60 1 60c-42 -2 -91 -4 -91 -4c-5 31 -8 61 -8 61c48 1 100 1 100 1c32 -29 52 -48 52 -48c1 -31 2 -71 2 -71
c-20 -14 -36 -25 -36 -25c14 -15 33 -30 33 -30c8 -51 14 -96 14 -96c-24 -19 -51 -50 -51 -50c-47 2 -88 3 -88 3c-29 14 -57 43 -57 43z" />
    <glyph glyph-name="cid645" unicode="&#xb4;" horiz-adv-x="321" 
d="M124 813c-46 39 -99 88 -99 88c85 79 164 157 164 157c51 -56 106 -111 106 -111c-85 -63 -171 -134 -171 -134z" />
    <glyph glyph-name="cid159" unicode="&#xb5;" horiz-adv-x="540" 
d="M193 -40l-5 -211c-69 -1 -131 -1 -131 -1s2 210 -5 476c-4 172 -11 336 -11 336s83 1 168 -2l-1 -21c-1 -67 -7 -275 -7 -433c0 0 53 0 130 1c0 0 2 226 0 432c0 0 79 -1 158 -5c-11 -218 -32 -453 -32 -453c27 -10 66 -20 66 -20c-17 -57 -30 -103 -30 -103
c-36 8 -61 15 -61 15c-19 26 -41 46 -41 46s-32 -27 -66 -59c0 0 -60 2 -131 1z" />
    <glyph glyph-name="cid778" unicode="&#xb6;" horiz-adv-x="542" 
d="M512 773c-5 -386 -5 -817 -5 -817c-54 1 -120 0 -120 0c-1 355 -15 716 -15 716h-64c-1 -374 1 -713 1 -713c-65 -2 -137 0 -137 0c6 208 10 395 10 395s-67 37 -138 84c0 0 -12 130 -15 251c0 0 69 40 138 82c176 2 345 2 345 2z" />
    <glyph glyph-name="cid117" unicode="&#xb7;" horiz-adv-x="487" 
d="M345 389c1 -94 -7 -187 -7 -187c-99 0 -192 2 -192 2c-4 91 -5 188 -5 188c100 -1 204 -3 204 -3z" />
    <glyph glyph-name="cid134" unicode="&#xb8;" horiz-adv-x="252" 
d="M58 -40h73c-16 -27 -29 -50 -29 -50h50s34 -25 65 -51c0 0 -3 -39 -7 -73c0 0 -66 -1 -131 -1c0 0 -2 26 -3 50c0 0 41 -1 67 -1c0 0 1 11 1 23c0 0 -24 2 -61 5c0 0 -26 17 -56 44c0 0 16 27 31 54z" />
    <glyph glyph-name="cid160" unicode="&#xb9;" horiz-adv-x="217" 
d="M151 1079c0 0 -8 -139 -11 -300c0 0 -29 1 -59 1c0 0 7 134 14 238c0 0 -17 2 -38 0c0 0 -3 30 -3 61c0 0 53 2 97 0z" />
    <glyph glyph-name="cid144" unicode="&#xba;" horiz-adv-x="278" 
d="M105 1009c0 0 2 -104 3 -180c0 0 24 0 61 -1c0 0 4 97 3 180c0 0 -35 2 -67 1zM219 826c0 0 -24 -24 -47 -52c0 0 -24 0 -66 2c0 0 -28 22 -52 53c0 0 -1 83 -5 183c0 0 23 31 51 61c0 0 36 -1 80 0c0 0 28 -31 52 -65c0 0 -9 -97 -13 -182z" />
    <glyph glyph-name="cid123" unicode="&#xbb;" horiz-adv-x="675" 
d="M414 513c0 0 117 -111 221 -201c0 0 -3 -57 -8 -111c0 0 -102 -88 -228 -202c0 0 -45 53 -90 97c0 0 117 88 192 150c-73 67 -184 167 -184 167s47 52 97 100zM142 513c0 0 119 -108 221 -201c0 0 -4 -57 -8 -111c0 0 -102 -88 -227 -202c0 0 -45 53 -91 97
c0 0 112 87 192 150c-73 67 -184 167 -184 167s47 52 97 100z" />
    <glyph glyph-name="cid161" unicode="&#xbc;" horiz-adv-x="677" 
d="M609 -46c-47 -2 -90 0 -90 0c5 61 8 134 8 134c-47 -6 -87 -12 -87 -12c-46 35 -80 71 -80 71c8 102 19 216 19 216c46 -6 88 -11 88 -11c-13 -92 -22 -198 -22 -198c50 7 85 10 85 10c5 152 9 240 9 240c56 -1 80 -1 80 -1c-12 -378 -10 -449 -10 -449zM202 814
c0 0 -13 -212 -17 -455c0 0 -44 1 -90 1c0 0 12 204 22 362c0 0 -26 2 -58 -1c0 0 -5 46 -5 93c0 0 80 2 148 0zM446 857c72 -23 111 -43 111 -43c-201 -442 -382 -872 -382 -872c-59 17 -87 35 -87 35c187 448 358 880 358 880z" />
    <glyph glyph-name="cid162" unicode="&#xbd;" horiz-adv-x="677" 
d="M636 316c0 0 -8 -85 -19 -175c0 0 -36 -35 -77 -72c0 0 -49 2 -90 5c0 0 2 -50 4 -57c0 0 67 6 152 14c0 0 -1 -41 -5 -83c0 0 -55 0 -222 -3c0 0 -3 66 -9 132c0 0 37 33 75 71c0 0 46 2 90 0c0 0 7 65 10 161c0 0 -24 0 -95 1c0 0 5 -43 9 -114c0 0 -45 -3 -91 -3
c0 0 0 42 -2 121c0 0 39 42 67 75c0 0 59 2 125 4c0 0 42 -37 78 -77zM202 814c0 0 -13 -212 -17 -455c0 0 -44 1 -90 1c0 0 12 204 22 362c0 0 -26 2 -58 -1c0 0 -5 46 -5 93c0 0 80 2 148 0zM446 857c72 -23 111 -43 111 -43c-201 -442 -382 -872 -382 -872
c-59 17 -87 35 -87 35c187 448 358 880 358 880z" />
    <glyph glyph-name="cid163" unicode="&#xbe;" horiz-adv-x="741" 
d="M33 428c2 49 2 82 2 82c42 -1 88 -3 88 -3c0 -41 -2 -73 -2 -73c56 0 105 1 105 1c-2 61 -7 124 -7 124c-46 4 -88 7 -88 7c2 41 3 77 3 77c40 3 82 5 82 5c3 49 2 86 2 86c-60 -3 -130 -6 -130 -6c-7 44 -11 87 -11 87c68 1 142 2 142 2c45 -42 74 -68 74 -68
c1 -45 3 -101 3 -101c-28 -21 -51 -36 -51 -36c19 -21 47 -42 47 -42c11 -73 20 -137 20 -137c-34 -27 -73 -71 -73 -71c-67 2 -126 4 -126 4c-40 20 -80 62 -80 62zM675 -46c-47 -2 -90 0 -90 0c5 61 8 134 8 134c-47 -6 -87 -12 -87 -12c-46 35 -80 71 -80 71
c8 102 19 216 19 216c46 -6 88 -11 88 -11c-13 -92 -22 -198 -22 -198c50 7 85 10 85 10c5 152 9 240 9 240c56 -1 80 -1 80 -1c-13 -378 -10 -449 -10 -449zM512 857c72 -23 111 -43 111 -43c-201 -442 -382 -872 -382 -872c-59 17 -87 35 -87 35c187 448 358 880 358 880z
" />
    <glyph glyph-name="cid126" unicode="&#xbf;" horiz-adv-x="724" 
d="M204 -247c-89 87 -166 174 -166 174c17 125 35 243 35 243c69 59 151 106 151 106c42 -8 76 -13 76 -13c2 76 7 141 7 141c75 -1 132 0 132 0c4 -76 8 -158 8 -158c-52 -43 -131 -109 -131 -109c-48 6 -86 11 -86 11c-12 -106 -11 -223 -11 -223c146 -4 268 -1 268 -1
c-3 88 -7 152 -7 152c89 7 174 17 174 17c6 -74 20 -159 20 -159c-84 -94 -161 -184 -161 -184c-149 1 -309 3 -309 3zM449 475c0 0 -73 -2 -152 0c0 0 1 57 3 119h142s3 -64 7 -119z" />
    <glyph glyph-name="cid164" unicode="&#xc0;" horiz-adv-x="515" 
d="M320 813c0 0 -84 56 -189 125c0 0 42 59 92 120c0 0 82 -70 175 -144c0 0 -49 -62 -78 -101zM333 281c0 0 2 177 -3 336c-71 5 -151 10 -151 10s7 -187 20 -348c73 0 134 2 134 2zM453 -35c0 0 -57 1 -124 0c0 0 2 107 5 206c0 0 -73 -3 -121 -6c0 0 2 -104 7 -196
c0 0 -71 -4 -139 -4c0 0 -22 307 -52 677c0 0 65 78 136 143c0 0 81 -1 166 2c0 0 72 -73 156 -158c0 0 -20 -354 -34 -664z" />
    <glyph glyph-name="cid165" unicode="&#xc1;" horiz-adv-x="515" 
d="M224 813c-46 39 -99 88 -99 88c85 79 164 157 164 157c51 -56 106 -111 106 -111c-85 -63 -171 -134 -171 -134zM333 281c0 0 2 177 -3 336c-71 5 -151 10 -151 10s7 -187 20 -348c73 0 134 2 134 2zM453 -35c0 0 -57 1 -124 0c0 0 2 107 5 206c0 0 -73 -3 -121 -6
c0 0 2 -104 7 -196c0 0 -71 -4 -139 -4c0 0 -22 307 -52 677c0 0 65 78 136 143c0 0 81 -1 166 2c0 0 72 -73 156 -158c0 0 -20 -354 -34 -664z" />
    <glyph glyph-name="cid166" unicode="&#xc2;" horiz-adv-x="515" 
d="M448 900c-34 -30 -75 -75 -75 -75l-116 152c-48 -55 -128 -150 -128 -150c-38 36 -77 73 -77 73c81 89 148 167 148 167c56 -2 113 0 113 0c72 -91 135 -167 135 -167zM333 281c0 0 2 177 -3 336c-71 5 -151 10 -151 10s7 -187 20 -348c73 0 134 2 134 2zM453 -35
c0 0 -57 1 -124 0c0 0 2 107 5 206c0 0 -73 -3 -121 -6c0 0 2 -104 7 -196c0 0 -71 -4 -139 -4c0 0 -22 307 -52 677c0 0 65 78 136 143c0 0 81 -1 166 2c0 0 72 -73 156 -158c0 0 -20 -354 -34 -664z" />
    <glyph glyph-name="cid167" unicode="&#xc3;" horiz-adv-x="515" 
d="M22 937c0 0 90 54 175 110c0 0 59 -62 110 -110c0 0 61 32 122 81c0 0 28 -50 60 -99c0 0 -97 -49 -182 -99c0 0 -61 50 -116 102c0 0 -42 -40 -95 -82c-1 1 -40 54 -74 97zM333 281c0 0 2 177 -3 336c-71 5 -151 10 -151 10s7 -187 20 -348c73 0 134 2 134 2zM453 -35
c0 0 -57 1 -124 0c0 0 2 107 5 206c0 0 -73 -3 -121 -6c0 0 2 -104 7 -196c0 0 -71 -4 -139 -4c0 0 -22 307 -52 677c0 0 65 78 136 143c0 0 81 -1 166 2c0 0 72 -73 156 -158c0 0 -20 -354 -34 -664z" />
    <glyph glyph-name="cid168" unicode="&#xc4;" horiz-adv-x="515" 
d="M215 990c0 -72 -5 -134 -5 -134c-60 2 -122 2 -122 2c-1 65 -3 135 -3 135c66 -4 130 -3 130 -3zM424 990c-2 -65 -5 -134 -5 -134c-60 2 -122 2 -122 2c-2 61 -3 135 -3 135c71 -4 130 -3 130 -3zM333 281c0 0 2 177 -3 336c-71 5 -151 10 -151 10s7 -187 20 -348
c73 0 134 2 134 2zM453 -35c0 0 -57 1 -124 0c0 0 2 107 5 206c0 0 -73 -3 -121 -6c0 0 2 -104 7 -196c0 0 -71 -4 -139 -4c0 0 -22 307 -52 677c0 0 65 78 136 143c0 0 81 -1 166 2c0 0 72 -73 156 -158c0 0 -20 -354 -34 -664z" />
    <glyph glyph-name="cid169" unicode="&#xc5;" horiz-adv-x="515" 
d="M297 1001h-78c-2 -49 -2 -91 -2 -91c39 0 75 1 75 1c4 43 5 90 5 90zM383 1007c-4 -55 -8 -97 -8 -97c-31 -40 -73 -74 -73 -74c-43 0 -86 1 -86 1c-41 33 -79 72 -79 72c-1 54 -4 99 -4 99c37 34 78 72 78 72c45 1 91 2 91 2c34 -35 81 -75 81 -75zM333 281
c0 0 2 177 -3 336c-71 5 -151 10 -151 10s7 -187 20 -348c73 0 134 2 134 2zM453 -35c0 0 -57 1 -124 0c0 0 2 107 5 206c0 0 -73 -3 -121 -6c0 0 2 -104 7 -196c0 0 -71 -4 -139 -4c0 0 -22 307 -52 677c0 0 65 78 136 143c0 0 81 -1 166 2c0 0 72 -73 156 -158
c0 0 -20 -354 -34 -664z" />
    <glyph glyph-name="cid139" unicode="&#xc6;" horiz-adv-x="737" 
d="M302 634c0 0 -77 -191 -129 -347c62 -6 133 -12 133 -12s2 179 -4 359zM700 612c0 0 -144 9 -253 13c-1 -143 0 -273 0 -273s112 9 233 16c2 -70 1 -137 1 -137h-232s3 -59 5 -120c0 0 116 10 248 20c0 0 6 -89 6 -165c0 0 -156 0 -398 -4c0 0 0 102 -3 202
c0 0 -62 0 -132 2c0 0 8 -107 16 -198c0 0 -44 -4 -143 -4c0 0 -7 148 -17 311l194 501s224 5 475 13c0 0 3 -88 0 -177z" />
    <glyph glyph-name="cid170" unicode="&#xc7;" horiz-adv-x="510" 
d="M178 -93c11 18 21 37 27 47h-27c-64 66 -119 128 -119 128c-18 245 -30 527 -30 527c64 94 121 168 121 168c83 5 181 11 181 11c74 -81 150 -160 150 -160c-14 -141 -27 -249 -27 -249c-75 -4 -140 -6 -140 -6c8 118 15 249 15 249c-79 -4 -149 -9 -149 -9
c-1 -255 5 -525 5 -525c55 -2 120 0 120 0c5 48 7 116 7 116c70 -3 148 -4 148 -4c-5 -70 -14 -133 -14 -133c-69 -61 -134 -113 -134 -113h-31c-6 -10 -16 -27 -25 -43h52c35 -26 68 -53 68 -53c-3 -41 -7 -76 -7 -76c-69 -1 -137 -1 -137 -1c-2 27 -3 52 -3 52
c43 -1 70 -1 70 -1c1 11 1 24 1 24h-58c-32 25 -64 51 -64 51z" />
    <glyph glyph-name="cid171" unicode="&#xc8;" horiz-adv-x="468" 
d="M290 813c0 0 -84 56 -189 125c0 0 42 59 92 120c0 0 82 -70 175 -144c0 0 -49 -62 -78 -101zM386 385c3 -74 6 -147 6 -147c-115 -7 -204 -12 -204 -12s2 -77 5 -118c0 0 110 4 243 14c0 0 -2 -81 -4 -158c-184 -4 -356 -1 -356 -1s-16 372 -48 810c187 4 414 7 414 7
s-4 -87 -9 -172c0 0 -145 7 -257 14c2 -141 7 -266 7 -266s86 11 203 29z" />
    <glyph glyph-name="cid172" unicode="&#xc9;" horiz-adv-x="468" 
d="M204 813c-46 39 -99 88 -99 88c85 79 164 157 164 157c51 -56 106 -111 106 -111c-85 -63 -171 -134 -171 -134zM386 385c3 -74 6 -147 6 -147c-115 -7 -204 -12 -204 -12s2 -77 5 -118c0 0 110 4 243 14c0 0 -2 -81 -4 -158c-184 -4 -356 -1 -356 -1s-16 372 -48 810
c187 4 414 7 414 7s-4 -87 -9 -172c0 0 -145 7 -257 14c2 -141 7 -266 7 -266s86 11 203 29z" />
    <glyph glyph-name="cid173" unicode="&#xca;" horiz-adv-x="468" 
d="M438 900c-34 -30 -75 -75 -75 -75l-116 152c-48 -55 -128 -150 -128 -150c-38 36 -77 73 -77 73c81 89 148 167 148 167c56 -2 113 0 113 0c72 -91 135 -167 135 -167zM386 385c3 -74 6 -147 6 -147c-115 -7 -204 -12 -204 -12s2 -77 5 -118c0 0 110 4 243 14
c0 0 -2 -81 -4 -158c-184 -4 -356 -1 -356 -1s-16 372 -48 810c187 4 414 7 414 7s-4 -87 -9 -172c0 0 -145 7 -257 14c2 -141 7 -266 7 -266s86 11 203 29z" />
    <glyph glyph-name="cid174" unicode="&#xcb;" horiz-adv-x="468" 
d="M195 990c0 -72 -5 -134 -5 -134c-60 2 -122 2 -122 2c-1 65 -3 135 -3 135c66 -4 130 -3 130 -3zM404 990c-2 -65 -5 -134 -5 -134c-60 2 -122 2 -122 2c-2 61 -3 135 -3 135c71 -4 130 -3 130 -3zM386 385c3 -74 6 -147 6 -147c-115 -7 -204 -12 -204 -12s2 -77 5 -118
c0 0 110 4 243 14c0 0 -2 -81 -4 -158c-184 -4 -356 -1 -356 -1s-16 372 -48 810c187 4 414 7 414 7s-4 -87 -9 -172c0 0 -145 7 -257 14c2 -141 7 -266 7 -266s86 11 203 29z" />
    <glyph glyph-name="cid175" unicode="&#xcc;" horiz-adv-x="331" 
d="M221 813c0 0 -84 56 -189 125c0 0 42 59 92 120c0 0 82 -70 175 -144c0 0 -49 -62 -78 -101zM241 -34c0 0 -71 1 -146 0c0 0 -4 412 -16 815c0 0 81 0 179 2c0 0 -17 -434 -17 -817z" />
    <glyph glyph-name="cid176" unicode="&#xcd;" horiz-adv-x="335" 
d="M133 813c-46 39 -99 88 -99 88c85 79 164 157 164 157c51 -56 106 -111 106 -111c-85 -63 -171 -134 -171 -134zM241 -34c0 0 -71 1 -146 0c0 0 -4 412 -16 815c0 0 81 0 179 2c0 0 -17 -434 -17 -817z" />
    <glyph glyph-name="cid177" unicode="&#xce;" horiz-adv-x="442" 
d="M417 900c-34 -30 -75 -75 -75 -75l-116 152c-48 -55 -128 -150 -128 -150c-38 36 -77 73 -77 73c81 89 148 167 148 167c56 -2 113 0 113 0c72 -91 135 -167 135 -167zM290 -34c0 0 -71 1 -146 0c0 0 -4 412 -16 815c0 0 81 0 179 2c0 0 -17 -434 -17 -817z" />
    <glyph glyph-name="cid178" unicode="&#xcf;" horiz-adv-x="395" 
d="M155 990c0 -72 -5 -134 -5 -134c-60 2 -122 2 -122 2c-1 65 -3 135 -3 135c66 -4 130 -3 130 -3zM364 990c-2 -65 -5 -134 -5 -134c-60 2 -122 2 -122 2c-2 61 -3 135 -3 135c71 -4 130 -3 130 -3zM261 -34c0 0 -71 1 -146 0c0 0 -4 412 -16 815c0 0 81 0 179 2
c0 0 -17 -434 -17 -817z" />
    <glyph glyph-name="cid179" unicode="&#xd0;" horiz-adv-x="554" 
d="M197 614c2 -65 4 -128 5 -187h64c0 0 -3 -65 -4 -126l-57 -1c2 -116 3 -192 3 -192c68 -2 137 -1 137 -1c17 252 29 510 29 510c-88 2 -177 -3 -177 -3zM470 93c0 0 -58 -63 -117 -125c0 0 -137 -5 -264 -1c0 0 -5 133 -13 330l-52 -1s-2 75 -5 138c0 0 24 -1 51 -3
c-4 102 -9 213 -15 328c0 0 156 19 324 34c0 0 76 -78 146 -166c0 0 -30 -299 -55 -534z" />
    <glyph glyph-name="cid180" unicode="&#xd1;" horiz-adv-x="563" 
d="M47 937c0 0 90 54 175 110c0 0 59 -62 110 -110c0 0 61 32 122 81c0 0 28 -50 60 -99c0 0 -97 -49 -182 -99c0 0 -61 50 -116 102c0 0 -42 -40 -95 -82c-1 1 -40 54 -74 97zM374 238c0 0 2 254 8 548c0 0 71 -1 152 -4c0 0 -19 -395 -37 -819c0 0 -58 -2 -132 -4
c0 0 -102 247 -176 439c0 0 12 -206 19 -437c0 0 -75 2 -160 3c0 0 -6 364 -9 819c0 0 53 0 139 3c0 0 102 -305 196 -548z" />
    <glyph glyph-name="cid181" unicode="&#xd2;" horiz-adv-x="532" 
d="M320 813c0 0 -84 56 -189 125c0 0 42 59 92 120c0 0 82 -70 175 -144c0 0 -49 -62 -78 -101zM184 605c0 0 5 -288 7 -500c0 0 36 -1 138 -3c0 0 11 269 10 499c0 0 -68 6 -155 4zM460 96c0 0 -57 -66 -122 -143c0 0 -36 1 -152 5c0 0 -68 62 -136 147c0 0 -3 229 -13 508
c0 0 54 87 131 169c0 0 71 -3 194 0c0 0 67 -85 132 -181c0 0 -23 -268 -34 -505z" />
    <glyph glyph-name="cid182" unicode="&#xd3;" horiz-adv-x="532" 
d="M224 813c-46 39 -99 88 -99 88c85 79 164 157 164 157c51 -56 106 -111 106 -111c-85 -63 -171 -134 -171 -134zM184 605c0 0 5 -288 7 -500c0 0 36 -1 138 -3c0 0 11 269 10 499c0 0 -68 6 -155 4zM460 96c0 0 -57 -66 -122 -143c0 0 -36 1 -152 5c0 0 -68 62 -136 147
c0 0 -3 229 -13 508c0 0 54 87 131 169c0 0 71 -3 194 0c0 0 67 -85 132 -181c0 0 -23 -268 -34 -505z" />
    <glyph glyph-name="cid183" unicode="&#xd4;" horiz-adv-x="532" 
d="M468 900c-34 -30 -75 -75 -75 -75l-116 152c-48 -55 -128 -150 -128 -150c-38 36 -77 73 -77 73c81 89 148 167 148 167c56 -2 113 0 113 0c72 -91 135 -167 135 -167zM184 605c0 0 5 -288 7 -500c0 0 36 -1 138 -3c0 0 11 269 10 499c0 0 -68 6 -155 4zM460 96
c0 0 -57 -66 -122 -143c0 0 -36 1 -152 5c0 0 -68 62 -136 147c0 0 -3 229 -13 508c0 0 54 87 131 169c0 0 71 -3 194 0c0 0 67 -85 132 -181c0 0 -23 -268 -34 -505z" />
    <glyph glyph-name="cid184" unicode="&#xd5;" horiz-adv-x="532" 
d="M32 937c0 0 90 54 175 110c0 0 59 -62 110 -110c0 0 61 32 122 81c0 0 28 -50 60 -99c0 0 -97 -49 -182 -99c0 0 -61 50 -116 102c0 0 -42 -40 -95 -82c-1 1 -40 54 -74 97zM184 605c0 0 5 -288 7 -500c0 0 36 -1 138 -3c0 0 11 269 10 499c0 0 -68 6 -155 4zM460 96
c0 0 -57 -66 -122 -143c0 0 -36 1 -152 5c0 0 -68 62 -136 147c0 0 -3 229 -13 508c0 0 54 87 131 169c0 0 71 -3 194 0c0 0 67 -85 132 -181c0 0 -23 -268 -34 -505z" />
    <glyph glyph-name="cid185" unicode="&#xd6;" horiz-adv-x="532" 
d="M225 990c0 -72 -5 -134 -5 -134c-60 2 -122 2 -122 2c-1 65 -3 135 -3 135c66 -4 130 -3 130 -3zM434 990c-2 -65 -5 -134 -5 -134c-60 2 -122 2 -122 2c-2 61 -3 135 -3 135c71 -4 130 -3 130 -3zM184 605c0 0 5 -288 7 -500c0 0 36 -1 138 -3c0 0 11 269 10 499
c0 0 -68 6 -155 4zM460 96c0 0 -57 -66 -122 -143c0 0 -36 1 -152 5c0 0 -68 62 -136 147c0 0 -3 229 -13 508c0 0 54 87 131 169c0 0 71 -3 194 0c0 0 67 -85 132 -181c0 0 -23 -268 -34 -505z" />
    <glyph glyph-name="cid695" unicode="&#xd7;" horiz-adv-x="573" 
d="M287 230c0 0 -74 -75 -133 -129c0 0 -42 51 -90 97c39 35 79 81 130 128c0 0 -70 70 -128 126c0 0 50 48 97 91c50 -50 74 -77 124 -121c0 0 60 58 127 129c0 0 48 -52 96 -100c-62 -63 -70 -72 -125 -125c0 0 61 -66 126 -128c0 0 -51 -50 -100 -96
c-68 72 -77 84 -124 128z" />
    <glyph glyph-name="cid142" unicode="&#xd8;" horiz-adv-x="532" 
d="M428 846c67 -23 110 -40 110 -40c-22 -48 -54 -116 -76 -163c10 -14 20 -28 29 -42c0 0 -23 -268 -34 -505c0 0 -57 -66 -121 -143c0 0 -36 1 -153 5c0 0 -10 10 -28 27c-18 -39 -39 -71 -39 -71c-59 17 -86 32 -86 32c15 36 40 80 54 115c-12 14 -24 29 -37 44
c0 0 -3 229 -13 508c0 0 55 87 132 169c0 0 71 -3 193 0c0 0 10 -12 25 -33c22 49 44 97 44 97zM334 365c-46 -99 -88 -189 -122 -260c21 -1 57 -2 114 -3c0 0 5 117 8 263zM186 299c49 114 95 218 132 303c-25 2 -76 4 -137 3c0 0 3 -146 5 -306z" />
    <glyph glyph-name="cid187" unicode="&#xd9;" horiz-adv-x="530" 
d="M320 813c0 0 -84 56 -189 125c0 0 42 59 92 120c0 0 82 -70 175 -144c0 0 -49 -62 -78 -101zM505 757c0 0 -14 -330 -24 -633c0 0 -64 -77 -131 -171c0 0 -61 1 -141 1c0 0 -76 79 -151 152c-19 354 -29 672 -29 672s82 2 180 4c0 0 -6 -350 0 -658c0 0 70 1 140 5
c0 0 3 292 9 629c0 0 72 0 147 -1z" />
    <glyph glyph-name="cid188" unicode="&#xda;" horiz-adv-x="530" 
d="M224 813c-46 39 -99 88 -99 88c85 79 164 157 164 157c51 -56 106 -111 106 -111c-85 -63 -171 -134 -171 -134zM505 757c0 0 -14 -330 -24 -633c0 0 -64 -77 -131 -171c0 0 -61 1 -141 1c0 0 -76 79 -151 152c-19 354 -29 672 -29 672s82 2 180 4c0 0 -6 -350 0 -658
c0 0 70 1 140 5c0 0 3 292 9 629c0 0 72 0 147 -1z" />
    <glyph glyph-name="cid189" unicode="&#xdb;" horiz-adv-x="530" 
d="M468 900c-34 -30 -75 -75 -75 -75l-116 152c-48 -55 -128 -150 -128 -150c-38 36 -77 73 -77 73c81 89 148 167 148 167c56 -2 113 0 113 0c72 -91 135 -167 135 -167zM505 757c0 0 -14 -330 -24 -633c0 0 -64 -77 -131 -171c0 0 -61 1 -141 1c0 0 -76 79 -151 152
c-19 354 -29 672 -29 672s82 2 180 4c0 0 -6 -350 0 -658c0 0 70 1 140 5c0 0 3 292 9 629c0 0 72 0 147 -1z" />
    <glyph glyph-name="cid190" unicode="&#xdc;" horiz-adv-x="530" 
d="M225 990c0 -72 -5 -134 -5 -134c-60 2 -122 2 -122 2c-1 65 -3 135 -3 135c66 -4 130 -3 130 -3zM434 990c-2 -65 -5 -134 -5 -134c-60 2 -122 2 -122 2c-2 61 -3 135 -3 135c71 -4 130 -3 130 -3zM505 757c0 0 -14 -330 -24 -633c0 0 -64 -77 -131 -171
c0 0 -61 1 -141 1c0 0 -76 79 -151 152c-19 354 -29 672 -29 672s82 2 180 4c0 0 -6 -350 0 -658c0 0 70 1 140 5c0 0 3 292 9 629c0 0 72 0 147 -1z" />
    <glyph glyph-name="cid191" unicode="&#xdd;" horiz-adv-x="482" 
d="M224 813c-46 39 -99 88 -99 88c85 79 164 157 164 157c51 -56 106 -111 106 -111c-85 -63 -171 -134 -171 -134zM416 292l-117 -106s0 -49 7 -223c0 0 -65 -1 -138 1c0 0 6 71 6 226c-65 60 -120 113 -120 113c-13 183 -29 475 -29 475c80 2 154 2 154 2s-2 -334 1 -473
c73 -3 117 -4 117 -4c2 162 6 477 6 477c76 0 157 -1 157 -1s-22 -297 -44 -487z" />
    <glyph glyph-name="cid192" unicode="&#xde;" horiz-adv-x="480" 
d="M311 503c0 0 -63 -1 -133 -2v-279s61 -2 126 -1c0 0 9 115 7 282zM456 517c0 0 -20 -141 -33 -304c0 0 -61 -59 -119 -107c0 0 -69 0 -126 -3c-3 -58 -2 -142 -2 -142c-63 1 -132 1 -132 1c-5 469 -11 811 -11 811s76 -2 146 0c0 0 -2 -87 -1 -133c0 0 92 1 145 2
c0 0 61 -56 133 -125z" />
    <glyph glyph-name="cid150" unicode="&#xdf;" horiz-adv-x="490" 
d="M33 671c69 61 116 103 116 103c78 4 174 4 174 4c72 -66 143 -131 143 -131c-20 -192 -31 -306 -31 -306s-39 -19 -77 -33c49 -19 107 -44 107 -44c-1 -120 -4 -192 -4 -192c-57 -53 -128 -108 -128 -108c-36 1 -90 1 -90 1c6 29 6 65 12 119c38 -1 65 -1 65 -1
c8 76 11 131 11 131c-36 18 -87 40 -87 40c-8 46 -18 91 -18 91c47 25 84 51 84 51c9 73 19 247 19 247c-67 -3 -145 0 -145 0s0 -171 10 -677c-56 1 -128 -1 -128 -1c-17 383 -33 706 -33 706z" />
    <glyph glyph-name="cid193" unicode="&#xe0;" horiz-adv-x="509" 
d="M310 597c0 0 -84 56 -189 125c0 0 42 59 92 120c0 0 82 -70 175 -144c0 0 -49 -62 -78 -101zM172 275c0 0 3 -106 13 -214c0 0 78 10 115 15c0 0 3 90 6 197c0 0 -67 4 -134 2zM388 -18l-195 -44s-61 50 -136 95c0 0 -9 119 -23 273c0 0 54 41 129 92
c68 -8 147 -18 148 -18c4 24 6 69 6 69l-216 -10s-6 52 -9 130h234s65 -53 119 -100c-24 -222 -34 -392 -34 -392s20 -7 77 -15c-13 -62 -30 -119 -30 -119c-43 23 -70 39 -70 39z" />
    <glyph glyph-name="cid194" unicode="&#xe1;" horiz-adv-x="511" 
d="M224 593c-46 39 -99 88 -99 88c85 79 164 157 164 157c51 -56 106 -111 106 -111c-85 -63 -171 -134 -171 -134zM172 275c0 0 3 -106 13 -214c0 0 78 10 115 15c0 0 3 90 6 197c0 0 -67 4 -134 2zM388 -18l-195 -44s-61 50 -136 95c0 0 -9 119 -23 273c0 0 54 41 129 92
c68 -8 147 -18 148 -18c4 24 6 69 6 69l-216 -10s-6 52 -9 130h234s65 -53 119 -100c-24 -222 -34 -392 -34 -392s20 -7 77 -15c-13 -62 -30 -119 -30 -119c-43 23 -70 39 -70 39z" />
    <glyph glyph-name="cid195" unicode="&#xe2;" horiz-adv-x="511" 
d="M448 672c-34 -30 -75 -75 -75 -75l-116 152c-48 -55 -128 -150 -128 -150c-38 36 -77 73 -77 73c81 89 148 167 148 167c56 -2 113 0 113 0c72 -91 135 -167 135 -167zM172 275c0 0 3 -106 13 -214c0 0 78 10 115 15c0 0 3 90 6 197c0 0 -67 4 -134 2zM388 -18l-195 -44
s-61 50 -136 95c0 0 -9 119 -23 273c0 0 54 41 129 92c68 -8 147 -18 148 -18c4 24 6 69 6 69l-216 -10s-6 52 -9 130h234s65 -53 119 -100c-24 -222 -34 -392 -34 -392s20 -7 77 -15c-13 -62 -30 -119 -30 -119c-43 23 -70 39 -70 39z" />
    <glyph glyph-name="cid196" unicode="&#xe3;" horiz-adv-x="511" 
d="M22 702c0 0 90 54 175 110c0 0 59 -62 110 -110c0 0 61 32 122 81c0 0 28 -50 60 -99c0 0 -97 -49 -182 -99c0 0 -61 50 -116 103c0 0 -42 -41 -95 -83c-1 1 -40 54 -74 97zM172 275c0 0 3 -106 13 -214c0 0 78 10 115 15c0 0 3 90 6 197c0 0 -67 4 -134 2zM388 -18
l-195 -44s-61 50 -136 95c0 0 -9 119 -23 273c0 0 54 41 129 92c68 -8 147 -18 148 -18c4 24 6 69 6 69l-216 -10s-6 52 -9 130h234s65 -53 119 -100c-24 -222 -34 -392 -34 -392s20 -7 77 -15c-13 -62 -30 -119 -30 -119c-43 23 -70 39 -70 39z" />
    <glyph glyph-name="cid197" unicode="&#xe4;" horiz-adv-x="510" 
d="M215 763c0 -72 -5 -134 -5 -134c-60 1 -122 1 -122 1c-1 66 -3 135 -3 135c66 -3 130 -2 130 -2zM424 763c-2 -65 -5 -134 -5 -134c-60 1 -122 1 -122 1c-2 62 -3 135 -3 135c71 -3 130 -2 130 -2zM172 275c0 0 3 -106 13 -214c0 0 78 10 115 15c0 0 3 90 6 197
c0 0 -67 4 -134 2zM388 -18l-195 -44s-61 50 -136 95c0 0 -9 119 -23 273c0 0 54 41 129 92c68 -8 147 -18 148 -18c4 24 6 69 6 69l-216 -10s-6 52 -9 130h234s65 -53 119 -100c-24 -222 -34 -392 -34 -392s20 -7 77 -15c-13 -62 -30 -119 -30 -119c-43 23 -70 39 -70 39z
" />
    <glyph glyph-name="cid198" unicode="&#xe5;" horiz-adv-x="507" 
d="M297 771h-78c-2 -49 -2 -91 -2 -91c39 0 75 1 75 1c4 43 5 90 5 90zM383 777c-4 -55 -8 -97 -8 -97c-31 -40 -73 -74 -73 -74c-43 0 -86 1 -86 1c-41 33 -79 72 -79 72c-1 54 -4 99 -4 99c37 34 78 72 78 72c45 1 91 2 91 2c34 -35 81 -75 81 -75zM172 275
c0 0 3 -106 13 -214c0 0 78 10 115 15c0 0 3 90 6 197c0 0 -67 4 -134 2zM388 -18l-195 -44s-61 50 -136 95c0 0 -9 119 -23 273c0 0 54 41 129 92c68 -8 147 -18 148 -18c4 24 6 69 6 69l-216 -10s-6 52 -9 130h234s65 -53 119 -100c-24 -222 -34 -392 -34 -392
s20 -7 77 -15c-13 -62 -30 -119 -30 -119c-43 23 -70 39 -70 39z" />
    <glyph glyph-name="cid145" unicode="&#xe6;" horiz-adv-x="805" 
d="M482 322l150 15c5 47 7 94 7 94c-107 -2 -158 -4 -158 -4c-1 -53 1 -105 1 -105zM742 65c-45 -58 -102 -106 -102 -106c-99 -8 -155 -11 -155 -11l-81 71c-13 -17 -21 -37 -21 -37l-195 -44s-61 50 -136 95c0 0 -9 119 -23 273c0 0 54 41 129 92c68 -8 148 -18 149 -18
c3 24 5 69 5 69l-215 -10s-7 52 -9 130h234s38 -32 81 -68c33 38 57 63 57 63c113 -4 192 -8 192 -8c59 -54 126 -120 126 -120c-17 -86 -34 -195 -34 -195c-155 -8 -258 -14 -258 -14s2 -78 2 -153c82 0 128 7 128 7l-6 84c68 7 140 8 140 8c-5 -73 -8 -108 -8 -108z
M167 275c0 0 4 -106 13 -214c0 0 79 10 116 15c0 0 2 90 6 197c0 0 -68 4 -135 2z" />
    <glyph glyph-name="cid199" unicode="&#xe7;" horiz-adv-x="478" 
d="M453 432c1 -43 2 -108 2 -108c-77 3 -134 7 -134 7c-1 44 -2 87 -2 87c-74 5 -142 7 -142 7c6 -168 8 -348 8 -348c66 -3 120 -5 120 -5c0 61 -1 91 -1 91c67 0 140 -2 140 -2c1 -49 0 -89 0 -89c-60 -68 -109 -118 -109 -118c-26 -2 -53 -3 -77 -5
c-6 -10 -14 -25 -22 -38h52c35 -26 68 -53 68 -53c-3 -41 -7 -76 -7 -76c-69 -1 -137 -1 -137 -1c-2 27 -3 52 -3 52c43 -1 70 -1 70 -1c1 11 1 24 1 24h-58c-32 25 -64 51 -64 51c9 14 17 28 23 39h-8c-80 72 -127 119 -127 119c-5 175 -14 367 -14 367
c68 65 130 137 130 137c85 -3 161 -8 161 -8c63 -61 130 -129 130 -129z" />
    <glyph glyph-name="cid200" unicode="&#xe8;" horiz-adv-x="482" 
d="M310 597c0 0 -84 56 -189 125c0 0 42 59 92 120c0 0 82 -70 175 -144c0 0 -49 -62 -78 -101zM171 322l150 15c5 47 7 94 7 94c-107 -2 -158 -4 -158 -4c-1 -53 1 -105 1 -105zM431 65c-45 -58 -102 -106 -102 -106c-99 -8 -155 -11 -155 -11l-126 111l-19 363
c58 77 120 142 120 142c113 -4 192 -8 192 -8c59 -54 126 -120 126 -120c-17 -86 -34 -195 -34 -195c-155 -8 -258 -14 -258 -14s2 -78 2 -153c82 0 128 7 128 7l-6 84c68 7 140 8 140 8c-5 -73 -8 -108 -8 -108z" />
    <glyph glyph-name="cid201" unicode="&#xe9;" horiz-adv-x="482" 
d="M224 593c-46 39 -99 88 -99 88c85 79 164 157 164 157c51 -56 106 -111 106 -111c-85 -63 -171 -134 -171 -134zM171 322l150 15c5 47 7 94 7 94c-107 -2 -158 -4 -158 -4c-1 -53 1 -105 1 -105zM431 65c-45 -58 -102 -106 -102 -106c-99 -8 -155 -11 -155 -11l-126 111
l-19 363c58 77 120 142 120 142c113 -4 192 -8 192 -8c59 -54 126 -120 126 -120c-17 -86 -34 -195 -34 -195c-155 -8 -258 -14 -258 -14s2 -78 2 -153c82 0 128 7 128 7l-6 84c68 7 140 8 140 8c-5 -73 -8 -108 -8 -108z" />
    <glyph glyph-name="cid202" unicode="&#xea;" horiz-adv-x="482" 
d="M438 672c-34 -30 -75 -75 -75 -75l-116 152c-48 -55 -128 -150 -128 -150c-38 36 -77 73 -77 73c81 89 148 167 148 167c56 -2 113 0 113 0c72 -91 135 -167 135 -167zM171 322l150 15c5 47 7 94 7 94c-107 -2 -158 -4 -158 -4c-1 -53 1 -105 1 -105zM431 65
c-45 -58 -102 -106 -102 -106c-99 -8 -155 -11 -155 -11l-126 111l-19 363c58 77 120 142 120 142c113 -4 192 -8 192 -8c59 -54 126 -120 126 -120c-17 -86 -34 -195 -34 -195c-155 -8 -258 -14 -258 -14s2 -78 2 -153c82 0 128 7 128 7l-6 84c68 7 140 8 140 8
c-5 -73 -8 -108 -8 -108z" />
    <glyph glyph-name="cid203" unicode="&#xeb;" horiz-adv-x="482" 
d="M205 763c0 -72 -5 -134 -5 -134c-60 1 -122 1 -122 1c-1 66 -3 135 -3 135c66 -3 130 -2 130 -2zM414 763c-2 -65 -5 -134 -5 -134c-60 1 -122 1 -122 1c-2 62 -3 135 -3 135c71 -3 130 -2 130 -2zM171 322l150 15c5 47 7 94 7 94c-107 -2 -158 -4 -158 -4
c-1 -53 1 -105 1 -105zM431 65c-45 -58 -102 -106 -102 -106c-99 -8 -155 -11 -155 -11l-126 111l-19 363c58 77 120 142 120 142c113 -4 192 -8 192 -8c59 -54 126 -120 126 -120c-17 -86 -34 -195 -34 -195c-155 -8 -258 -14 -258 -14s2 -78 2 -153c82 0 128 7 128 7
l-6 84c68 7 140 8 140 8c-5 -73 -8 -108 -8 -108z" />
    <glyph glyph-name="cid204" unicode="&#xec;" horiz-adv-x="352" 
d="M237 597c0 0 -84 56 -189 125c0 0 42 59 92 120c0 0 82 -70 175 -144c0 0 -49 -62 -78 -101zM233 -34h-124c0 281 -3 593 -3 593c63 -2 145 -2 145 -2c-11 -289 -18 -591 -18 -591z" />
    <glyph glyph-name="cid205" unicode="&#xed;" horiz-adv-x="352" 
d="M140 593c-46 39 -99 88 -99 88c85 79 164 157 164 157c51 -56 106 -111 106 -111c-85 -63 -171 -134 -171 -134zM233 -34h-124c0 281 -3 593 -3 593c63 -2 145 -2 145 -2c-11 -289 -18 -591 -18 -591z" />
    <glyph glyph-name="cid206" unicode="&#xee;" horiz-adv-x="412" 
d="M403 672c-34 -30 -75 -75 -75 -75l-116 152c-48 -55 -128 -150 -128 -150c-38 36 -77 73 -77 73c81 89 148 167 148 167c56 -2 113 0 113 0c72 -91 135 -167 135 -167zM257 -34h-125c0 281 -3 593 -3 593c64 -2 146 -2 146 -2c-11 -289 -18 -591 -18 -591z" />
    <glyph glyph-name="cid207" unicode="&#xef;" horiz-adv-x="412" 
d="M163 763c0 -72 -5 -134 -5 -134c-60 1 -122 1 -122 1c-1 66 -3 135 -3 135c66 -3 130 -2 130 -2zM372 763c-2 -65 -5 -134 -5 -134c-60 1 -122 1 -122 1c-2 62 -3 135 -3 135c71 -3 130 -2 130 -2zM257 -34h-125c0 281 -3 593 -3 593c64 -2 146 -2 146 -2
c-11 -289 -18 -591 -18 -591z" />
    <glyph glyph-name="cid208" unicode="&#xf0;" horiz-adv-x="551" 
d="M175 361c7 -142 17 -279 17 -279c74 -1 161 3 161 3c0 1 6 149 13 274c-87 -2 -191 2 -191 2zM510 713c0 0 -56 -31 -109 -61c59 -99 117 -192 117 -192c-13 -182 -47 -402 -47 -402c-61 -52 -132 -106 -132 -106c-57 -2 -142 -3 -142 -3c-70 57 -138 121 -138 121
l-28 295c63 78 131 148 131 148c76 -12 181 -19 181 -19c-23 55 -53 109 -53 109c-42 -19 -68 -36 -125 -66c0 0 -33 40 -62 92c0 0 66 23 129 56c-17 28 -86 116 -86 116c42 35 91 77 91 77c53 -69 99 -122 99 -122s54 32 94 55c0 0 37 -46 80 -98z" />
    <glyph glyph-name="cid209" unicode="&#xf1;" horiz-adv-x="475" 
d="M12 702c0 0 90 54 175 110c0 0 59 -62 110 -110c0 0 61 32 122 81c0 0 28 -50 60 -99c0 0 -97 -49 -182 -99c0 0 -61 50 -116 103c0 0 -42 -41 -95 -83c-1 1 -40 54 -74 97zM317 -35c0 0 0 229 -2 443c0 0 -75 0 -133 -4c0 0 -1 -210 4 -439c0 0 -41 1 -132 0
c0 0 -7 280 -17 445c0 0 67 72 148 150c0 0 102 -2 140 -2c0 0 61 -70 118 -146c-12 -241 -17 -448 -17 -448s-51 0 -109 1z" />
    <glyph glyph-name="cid210" unicode="&#xf2;" horiz-adv-x="479" 
d="M290 597c0 0 -84 56 -189 125c0 0 42 59 92 120c0 0 82 -70 175 -144c0 0 -49 -62 -78 -101zM171 436c0 0 4 -181 8 -370c0 0 60 -5 115 -6c0 0 5 173 11 377c0 0 -80 1 -134 -1zM419 53c0 0 -63 -48 -126 -97h-116c0 0 -64 44 -128 104c0 0 -11 175 -18 383
c0 0 59 64 116 117c0 0 70 5 163 11c0 0 71 -61 131 -130c-18 -189 -17 -393 -22 -388z" />
    <glyph glyph-name="cid211" unicode="&#xf3;" horiz-adv-x="472" 
d="M204 593c-46 39 -99 88 -99 88c85 79 164 157 164 157c51 -56 106 -111 106 -111c-85 -63 -171 -134 -171 -134zM171 436c0 0 4 -181 8 -370c0 0 60 -5 115 -6c0 0 5 173 11 377c0 0 -80 1 -134 -1zM419 53c0 0 -63 -48 -126 -97h-116c0 0 -64 44 -128 104
c0 0 -11 175 -18 383c0 0 59 64 116 117c0 0 70 5 163 11c0 0 71 -61 131 -130c-18 -189 -17 -393 -22 -388z" />
    <glyph glyph-name="cid212" unicode="&#xf4;" horiz-adv-x="469" 
d="M428 672c-34 -30 -75 -75 -75 -75l-116 152c-48 -55 -128 -150 -128 -150c-38 36 -77 73 -77 73c81 89 148 167 148 167c56 -2 113 0 113 0c72 -91 135 -167 135 -167zM171 436c0 0 4 -181 8 -370c0 0 60 -5 115 -6c0 0 5 173 11 377c0 0 -80 1 -134 -1zM419 53
c0 0 -63 -48 -126 -97h-116c0 0 -64 44 -128 104c0 0 -11 175 -18 383c0 0 59 64 116 117c0 0 70 5 163 11c0 0 71 -61 131 -130c-18 -189 -17 -393 -22 -388z" />
    <glyph glyph-name="cid213" unicode="&#xf5;" horiz-adv-x="470" 
d="M2 702c0 0 90 54 175 110c0 0 59 -62 110 -110c0 0 61 32 122 81c0 0 28 -50 60 -99c0 0 -97 -49 -182 -99c0 0 -61 50 -116 103c0 0 -42 -41 -95 -83c-1 1 -40 54 -74 97zM171 436c0 0 4 -181 8 -370c0 0 60 -5 115 -6c0 0 5 173 11 377c0 0 -80 1 -134 -1zM419 53
c0 0 -63 -48 -126 -97h-116c0 0 -64 44 -128 104c0 0 -11 175 -18 383c0 0 59 64 116 117c0 0 70 5 163 11c0 0 71 -61 131 -130c-18 -189 -17 -393 -22 -388z" />
    <glyph glyph-name="cid214" unicode="&#xf6;" horiz-adv-x="469" 
d="M185 763c0 -72 -5 -134 -5 -134c-60 1 -122 1 -122 1c-1 66 -3 135 -3 135c66 -3 130 -2 130 -2zM394 763c-2 -65 -5 -134 -5 -134c-60 1 -122 1 -122 1c-2 62 -3 135 -3 135c71 -3 130 -2 130 -2zM171 436c0 0 4 -181 8 -370c0 0 60 -5 115 -6c0 0 5 173 11 377
c0 0 -80 1 -134 -1zM419 53c0 0 -63 -48 -126 -97h-116c0 0 -64 44 -128 104c0 0 -11 175 -18 383c0 0 59 64 116 117c0 0 70 5 163 11c0 0 71 -61 131 -130c-18 -189 -17 -393 -22 -388z" />
    <glyph glyph-name="cid696" unicode="&#xf7;" horiz-adv-x="629" 
d="M385 233c-4 -62 -5 -132 -5 -132c-65 -1 -131 1 -131 1c0 67 -3 133 -3 133c74 0 139 -2 139 -2zM385 563c-5 -65 -5 -132 -5 -132c-58 -2 -131 2 -131 2c0 67 -3 133 -3 133c74 -2 139 -3 139 -3zM77 404c0 0 235 -4 477 -7c0 0 -2 -63 -6 -127c0 0 -223 -2 -464 -5
c0 0 -4 72 -7 139z" />
    <glyph glyph-name="cid148" unicode="&#xf8;" horiz-adv-x="459" 
d="M358 602c47 -24 85 -51 85 -51c-15 -27 -29 -55 -44 -82c8 -9 17 -18 25 -28c-18 -189 -27 -393 -32 -388c0 0 -43 -48 -106 -97h-116c0 0 -11 7 -29 21c-23 -44 -36 -70 -36 -70c-34 21 -72 46 -72 46c13 27 26 53 39 80c-10 8 -20 18 -30 27c0 0 -11 175 -19 383
c0 0 60 64 117 117c0 0 69 5 163 11c0 0 10 -10 26 -27c18 37 29 58 29 58zM293 269c-40 -77 -76 -147 -106 -204c21 -2 61 -4 100 -5c0 0 3 86 6 209zM168 227c39 79 76 151 106 210c-28 0 -75 0 -111 -1c0 0 2 -90 5 -209z" />
    <glyph glyph-name="cid216" unicode="&#xf9;" horiz-adv-x="520" 
d="M310 597c0 0 -84 56 -189 125c0 0 42 59 92 120c0 0 82 -70 175 -144c0 0 -49 -62 -78 -101zM381 17c0 0 -32 -27 -66 -59c0 0 -60 2 -131 1c0 0 -56 51 -125 119c-12 209 -18 482 -18 482s73 1 158 -2c0 0 -7 -263 -8 -454c0 0 53 0 130 1c0 0 2 226 0 432
c0 0 79 -1 158 -5c-11 -218 -32 -453 -32 -453c27 -10 66 -20 66 -20c-17 -57 -30 -103 -30 -103c-36 8 -61 15 -61 15c-19 26 -41 46 -41 46z" />
    <glyph glyph-name="cid217" unicode="&#xfa;" horiz-adv-x="520" 
d="M234 593c-46 39 -99 88 -99 88c85 79 164 157 164 157c51 -56 106 -111 106 -111c-85 -63 -171 -134 -171 -134zM381 17c0 0 -32 -27 -66 -59c0 0 -60 2 -131 1c0 0 -56 51 -125 119c-12 209 -18 482 -18 482s73 1 158 -2c0 0 -7 -263 -8 -454c0 0 53 0 130 1
c0 0 2 226 0 432c0 0 79 -1 158 -5c-11 -218 -32 -453 -32 -453c27 -10 66 -20 66 -20c-17 -57 -30 -103 -30 -103c-36 8 -61 15 -61 15c-19 26 -41 46 -41 46z" />
    <glyph glyph-name="cid218" unicode="&#xfb;" horiz-adv-x="520" 
d="M458 672c-34 -30 -75 -75 -75 -75l-116 152c-48 -55 -128 -150 -128 -150c-38 36 -77 73 -77 73c81 89 148 167 148 167c56 -2 113 0 113 0c72 -91 135 -167 135 -167zM381 17c0 0 -32 -27 -66 -59c0 0 -60 2 -131 1c0 0 -56 51 -125 119c-12 209 -18 482 -18 482
s73 1 158 -2c0 0 -7 -263 -8 -454c0 0 53 0 130 1c0 0 2 226 0 432c0 0 79 -1 158 -5c-11 -218 -32 -453 -32 -453c27 -10 66 -20 66 -20c-17 -57 -30 -103 -30 -103c-36 8 -61 15 -61 15c-19 26 -41 46 -41 46z" />
    <glyph glyph-name="cid219" unicode="&#xfc;" horiz-adv-x="520" 
d="M225 763c0 -72 -5 -134 -5 -134c-60 1 -122 1 -122 1c-1 66 -3 135 -3 135c66 -3 130 -2 130 -2zM434 763c-2 -65 -5 -134 -5 -134c-60 1 -122 1 -122 1c-2 62 -3 135 -3 135c71 -3 130 -2 130 -2zM381 17c0 0 -32 -27 -66 -59c0 0 -60 2 -131 1c0 0 -56 51 -125 119
c-12 209 -18 482 -18 482s73 1 158 -2c0 0 -7 -263 -8 -454c0 0 53 0 130 1c0 0 2 226 0 432c0 0 79 -1 158 -5c-11 -218 -32 -453 -32 -453c27 -10 66 -20 66 -20c-17 -57 -30 -103 -30 -103c-36 8 -61 15 -61 15c-19 26 -41 46 -41 46z" />
    <glyph glyph-name="cid220" unicode="&#xfd;" horiz-adv-x="481" 
d="M214 593c-46 39 -99 88 -99 88c85 79 164 157 164 157c51 -56 106 -111 106 -111c-85 -63 -171 -134 -171 -134zM375 -259c0 0 -71 3 -123 5c0 0 11 104 19 225c0 0 -37 -3 -80 -11c-62 43 -132 105 -132 105c-14 235 -35 489 -35 489c74 6 164 8 164 8s-5 -239 3 -486
c41 -3 86 -2 86 -2s12 213 22 493c0 0 84 -5 162 -9c0 0 -42 -370 -86 -817z" />
    <glyph glyph-name="cid221" unicode="&#xfe;" horiz-adv-x="481" 
d="M311 397c0 0 -63 -1 -133 -2v-319s61 -1 126 0c0 0 9 154 7 321zM456 411c0 0 -20 -181 -33 -344c0 0 -61 -59 -119 -105c0 0 -69 0 -126 -3c-3 -58 -2 -193 -2 -193c-63 1 -132 1 -132 1c-5 469 -11 933 -11 933s76 -2 146 0c0 0 0 -76 -1 -165c0 0 92 1 145 1
c0 0 61 -56 133 -125z" />
    <glyph glyph-name="cid222" unicode="&#xff;" horiz-adv-x="481" 
d="M205 763c0 -72 -5 -134 -5 -134c-60 1 -122 1 -122 1c-1 66 -3 135 -3 135c66 -3 130 -2 130 -2zM414 763c-2 -65 -5 -134 -5 -134c-60 1 -122 1 -122 1c-2 62 -3 135 -3 135c71 -3 130 -2 130 -2zM375 -259c0 0 -71 3 -123 5c0 0 11 104 19 225c0 0 -37 -3 -80 -11
c-62 43 -132 105 -132 105c-14 235 -35 489 -35 489c74 6 164 8 164 8s-5 -239 3 -486c41 -3 86 -2 86 -2s12 213 22 493c0 0 84 -5 162 -9c0 0 -42 -370 -86 -817z" />
    <glyph glyph-name="cid104" unicode="&#x2044;" horiz-adv-x="721" 
d="M458 857c71 -23 149 -50 149 -50c-201 -442 -381 -872 -381 -872c-60 17 -127 42 -127 42c187 448 359 880 359 880z" />
    <glyph glyph-name="cid106" 
 />
    <glyph glyph-name="cid112" unicode="&#xfb01;" horiz-adv-x="659" 
d="M584 -44h-125c0 281 -3 593 -3 593c64 -2 146 -2 146 -2c-11 -289 -18 -591 -18 -591zM607 627c0 0 -74 1 -157 2c0 0 -2 83 -5 151c0 0 83 0 169 -2c0 0 -3 -66 -7 -151zM231 472c52 5 155 12 155 12c-2 -73 -4 -144 -4 -144s-94 2 -151 3c0 0 1 -191 0 -384
c-62 -3 -121 5 -122 5c0 0 -2 227 -5 378c0 0 -52 -2 -82 -3l-4 128c45 1 81 2 81 2s-2 86 -14 191c73 68 134 124 134 124h186s-8 -100 -19 -197c0 0 -79 15 -149 28c-1 -1 -4 -68 -6 -143z" />
    <glyph glyph-name="cid113" unicode="&#xfb02;" horiz-adv-x="659" 
d="M588 -39c-68 -1 -120 -1 -120 -1s-2 418 -11 820h153s-11 -392 -22 -819zM244 472c52 5 155 12 155 12c-3 -73 -4 -144 -4 -144s-94 2 -151 3c0 0 1 -191 0 -384c-62 -3 -121 5 -122 5c0 0 -2 227 -6 378c0 0 -51 -2 -81 -3l-4 128c45 1 80 2 80 2s-2 86 -13 191
c73 68 134 124 134 124h185s-7 -100 -18 -197c0 0 -79 15 -149 28c-1 -1 -4 -68 -6 -143z" />
    <glyph glyph-name="cid115" 
 />
    <glyph glyph-name="cid116" 
 />
    <glyph glyph-name="cid118" horiz-adv-x="252" 
 />
    <glyph glyph-name="cid124" 
 />
    <glyph glyph-name="cid125" 
 />
    <glyph glyph-name="cid127" unicode="&#x301;" horiz-adv-x="321" 
d="M124 813c-46 39 -99 88 -99 88c85 79 164 157 164 157c51 -56 106 -111 106 -111c-85 -63 -171 -134 -171 -134z" />
    <glyph glyph-name="cid130" unicode="&#x306;" horiz-adv-x="502" 
d="M475 903c0 0 -70 -33 -152 -75c0 0 -97 1 -174 4c0 0 -66 44 -124 87c0 0 36 45 76 92c0 0 26 -22 86 -59c0 0 54 -1 115 -2c0 0 45 35 92 69c0 0 36 -54 81 -116z" />
    <glyph glyph-name="cid131" unicode="&#x307;" horiz-adv-x="283" 
d="M217 993c1 -64 -5 -143 -5 -143c-73 2 -148 2 -148 2c-2 66 -3 143 -3 143c72 0 156 -2 156 -2z" />
    <glyph glyph-name="cid132" unicode="&#x308;" horiz-adv-x="451" 
d="M185 990c0 -72 -5 -134 -5 -134c-60 2 -122 2 -122 2c-1 65 -3 135 -3 135c66 -4 130 -3 130 -3zM394 990c-2 -65 -5 -134 -5 -134c-60 2 -122 2 -122 2c-2 61 -3 135 -3 135c71 -4 130 -3 130 -3z" />
    <glyph glyph-name="cid133" unicode="&#x2da;" horiz-adv-x="311" 
d="M197 1001h-78c-2 -49 -2 -91 -2 -91c39 0 75 1 75 1c4 43 5 90 5 90zM283 1007c-4 -55 -8 -97 -8 -97c-31 -40 -73 -74 -73 -74c-43 0 -86 1 -86 1c-41 33 -79 72 -79 72c-1 54 -4 99 -4 99c37 34 78 72 78 72c45 1 91 2 91 2c34 -35 81 -75 81 -75z" />
    <glyph glyph-name="cid135" unicode="&#x30b;" horiz-adv-x="501" 
d="M159 814c-51 12 -119 35 -119 35c40 106 69 200 69 200c72 -20 136 -41 136 -41c-48 -110 -86 -194 -86 -194zM372 814c-51 12 -119 35 -119 35c40 106 69 200 69 200c71 -20 136 -41 136 -41c-49 -110 -86 -194 -86 -194z" />
    <glyph glyph-name="cid136" unicode="&#x328;" horiz-adv-x="252" 
d="M77 -37h96c-37 -56 -54 -81 -54 -81c12 -14 23 -25 23 -25c20 17 39 35 39 35c19 -23 36 -44 36 -44c-46 -32 -84 -55 -84 -55c-48 39 -98 82 -98 82c21 40 42 88 42 88z" />
    <glyph glyph-name="cid137" unicode="&#x30c;" horiz-adv-x="449" 
d="M27 986c37 37 76 75 76 75l116 -152c48 55 127 150 127 150c35 -35 78 -73 78 -73c-88 -89 -169 -167 -169 -167h-82c-60 75 -146 167 -146 167z" />
    <glyph glyph-name="cid141" 
 />
    <glyph glyph-name="cid146" horiz-adv-x="247" 
 />
    <glyph glyph-name="cid147" 
 />
    <glyph glyph-name="cid155" 
 />
    <glyph glyph-name="cid156" horiz-adv-x="695" 
d="M92 106c0 0 289 -6 529 -10c0 0 -4 -37 -7 -123c0 0 -260 -8 -516 -7c0 0 -2 49 -6 140zM432 415c0 0 75 -1 173 -1c0 0 -4 -51 -6 -125c-64 0 -84 0 -169 -1c0 0 -1 -52 -1 -138c0 0 -69 3 -151 5c1 56 1 57 0 131c0 0 -82 -3 -167 -4c0 0 -2 63 -6 140
c78 -2 171 -5 171 -5s-2 49 -4 145c0 0 81 2 166 5c-2 -74 -4 -81 -6 -152z" />
    <glyph glyph-name="cid186" 
 />
    <glyph glyph-name="cid215" 
 />
    <glyph glyph-name="cid225" 
 />
    <glyph glyph-name="cid226" unicode="&#x305;" horiz-adv-x="438" 
d="M40 970c0 0 190 -1 370 -6c0 0 -4 -43 -6 -130c0 0 -175 -13 -358 -11c0 0 -2 56 -6 147z" />
    <glyph glyph-name="cid229" 
 />
    <glyph glyph-name="cid230" 
 />
    <glyph glyph-name="cid231" 
 />
    <glyph glyph-name="cid232" 
 />
    <glyph glyph-name="cid233" 
 />
    <glyph glyph-name="Amacron" unicode="&#x100;" horiz-adv-x="515" 
d="M52 986c0 0 196 -8 404 -10c0 0 -2 -48 -7 -132c0 0 -214 -5 -391 -7c0 0 -5 48 -6 149zM333 281c0 0 2 177 -3 336c-71 5 -151 10 -151 10s7 -187 20 -348c73 0 134 2 134 2zM453 -35c0 0 -57 1 -124 0c0 0 2 107 5 206c0 0 -73 -3 -121 -6c0 0 2 -104 7 -196
c0 0 -71 -4 -139 -4c0 0 -22 307 -52 677c0 0 65 78 136 143c0 0 81 -1 166 2c0 0 72 -73 156 -158c0 0 -20 -354 -34 -664z" />
    <glyph glyph-name="amacron" unicode="&#x101;" horiz-adv-x="513" 
d="M52 763c0 0 196 -8 404 -10c0 0 -2 -48 -7 -132c0 0 -214 -5 -391 -7c0 0 -5 48 -6 149zM172 275c0 0 3 -106 13 -214c0 0 78 10 115 15c0 0 3 90 6 197c0 0 -67 4 -134 2zM388 -18l-195 -44s-61 50 -136 95c0 0 -9 119 -23 273c0 0 54 41 129 92c68 -8 147 -18 148 -18
c4 24 6 69 6 69l-216 -10s-6 52 -9 130h234s65 -53 119 -100c-24 -222 -34 -392 -34 -392s20 -7 77 -15c-13 -62 -30 -119 -30 -119c-43 23 -70 39 -70 39z" />
    <glyph glyph-name="Abreve" unicode="&#x102;" horiz-adv-x="515" 
d="M475 903c0 0 -70 -33 -152 -75c0 0 -97 1 -174 4c0 0 -66 44 -124 87c0 0 36 45 76 92c0 0 26 -22 86 -59c0 0 54 -1 115 -2c0 0 45 35 92 69c0 0 36 -54 81 -116zM333 281c0 0 2 177 -3 336c-71 5 -151 10 -151 10s7 -187 20 -348c73 0 134 2 134 2zM453 -35
c0 0 -57 1 -124 0c0 0 2 107 5 206c0 0 -73 -3 -121 -6c0 0 2 -104 7 -196c0 0 -71 -4 -139 -4c0 0 -22 307 -52 677c0 0 65 78 136 143c0 0 81 -1 166 2c0 0 72 -73 156 -158c0 0 -20 -354 -34 -664z" />
    <glyph glyph-name="abreve" unicode="&#x103;" horiz-adv-x="513" 
d="M475 679c0 0 -70 -33 -152 -75c0 0 -97 1 -174 4c0 0 -66 44 -124 87c0 0 36 45 76 92c0 0 26 -22 86 -59c0 0 54 -1 115 -2c0 0 45 35 92 69c0 0 36 -54 81 -116zM172 275c0 0 3 -106 13 -214c0 0 78 10 115 15c0 0 3 90 6 197c0 0 -67 4 -134 2zM388 -18l-195 -44
s-61 50 -136 95c0 0 -9 119 -23 273c0 0 54 41 129 92c68 -8 147 -18 148 -18c4 24 6 69 6 69l-216 -10s-6 52 -9 130h234s65 -53 119 -100c-24 -222 -34 -392 -34 -392s20 -7 77 -15c-13 -62 -30 -119 -30 -119c-43 23 -70 39 -70 39z" />
    <glyph glyph-name="Aogonek" unicode="&#x104;" horiz-adv-x="515" 
d="M431 -35c-34 -52 -52 -83 -52 -83c11 -14 22 -25 22 -25c20 17 40 35 40 35c18 -23 35 -44 35 -44c-46 -32 -84 -55 -84 -55c-48 39 -97 82 -97 82c16 32 35 75 42 90h-8s2 107 5 206c0 0 -73 -3 -121 -6c0 0 2 -104 7 -196c0 0 -71 -4 -139 -4c0 0 -22 307 -52 677
c0 0 65 78 136 143c0 0 81 -1 166 2c0 0 72 -73 156 -158c0 0 -20 -354 -34 -664h-22zM333 281c0 0 2 177 -3 336c-71 5 -151 10 -151 10s7 -187 20 -348c73 0 134 2 134 2z" />
    <glyph glyph-name="aogonek" unicode="&#x105;" horiz-adv-x="511" 
d="M425 -39c-29 -43 -52 -79 -52 -79c11 -14 22 -25 22 -25c20 17 40 35 40 35c18 -23 35 -44 35 -44c-46 -32 -84 -55 -84 -55c-48 39 -97 82 -97 82c14 27 36 70 49 96l-145 -33s-61 50 -136 95c0 0 -9 119 -23 273c0 0 54 41 129 92c68 -8 147 -18 148 -18
c4 24 6 69 6 69l-216 -10s-6 52 -9 130h234s65 -53 119 -100c-24 -222 -34 -392 -34 -392s20 -7 77 -15c-13 -62 -30 -119 -30 -119c-13 7 -24 13 -33 18zM172 275c0 0 3 -106 13 -214c0 0 78 10 115 15c0 0 3 90 6 197c0 0 -67 4 -134 2z" />
    <glyph glyph-name="Cacute" unicode="&#x106;" horiz-adv-x="510" 
d="M204 813c-46 39 -99 88 -99 88c85 79 164 157 164 157c51 -56 106 -111 106 -111c-85 -63 -171 -134 -171 -134zM446 67c-69 -61 -134 -113 -134 -113h-134c-64 66 -119 128 -119 128c-18 245 -30 527 -30 527c64 94 121 168 121 168c83 5 181 11 181 11
c74 -81 150 -160 150 -160c-14 -141 -27 -249 -27 -249c-75 -4 -140 -6 -140 -6c8 118 15 249 15 249c-79 -4 -149 -9 -149 -9c-1 -255 5 -525 5 -525c55 -2 120 0 120 0c5 48 7 116 7 116c70 -3 148 -4 148 -4c-5 -70 -14 -133 -14 -133z" />
    <glyph glyph-name="cacute" unicode="&#x107;" horiz-adv-x="478" 
d="M214 593c-46 39 -99 88 -99 88c85 79 164 157 164 157c51 -56 106 -111 106 -111c-85 -63 -171 -134 -171 -134zM453 432c1 -43 2 -108 2 -108c-77 3 -134 7 -134 7c-1 44 -2 87 -2 87c-74 5 -142 7 -142 7c6 -168 8 -348 8 -348c66 -3 120 -5 120 -5c0 61 -1 91 -1 91
c67 0 140 -2 140 -2c1 -49 0 -89 0 -89c-60 -68 -109 -118 -109 -118c-78 -5 -162 -8 -162 -8c-80 72 -127 119 -127 119c-5 175 -14 367 -14 367c68 65 130 137 130 137c85 -3 161 -8 161 -8c63 -61 130 -129 130 -129z" />
    <glyph glyph-name="cid242" 
 />
    <glyph glyph-name="cid243" 
 />
    <glyph glyph-name="Cdotaccent" unicode="&#x10a;" horiz-adv-x="510" 
d="M333 993c1 -64 -5 -143 -5 -143c-72 2 -147 2 -147 2c-3 66 -3 143 -3 143c71 0 155 -2 155 -2zM446 67c-69 -61 -134 -113 -134 -113h-134c-64 66 -119 128 -119 128c-18 245 -30 527 -30 527c64 94 121 168 121 168c83 5 181 11 181 11c74 -81 150 -160 150 -160
c-14 -141 -27 -249 -27 -249c-75 -4 -140 -6 -140 -6c8 118 15 249 15 249c-79 -4 -149 -9 -149 -9c-1 -255 5 -525 5 -525c55 -2 120 0 120 0c5 48 7 116 7 116c70 -3 148 -4 148 -4c-5 -70 -14 -133 -14 -133z" />
    <glyph glyph-name="cdotaccent" unicode="&#x10b;" horiz-adv-x="478" 
d="M321 756c1 -64 -5 -143 -5 -143c-72 2 -147 2 -147 2c-3 66 -3 143 -3 143c71 0 155 -2 155 -2zM453 432c1 -43 2 -108 2 -108c-77 3 -134 7 -134 7c-1 44 -2 87 -2 87c-74 5 -142 7 -142 7c6 -168 8 -348 8 -348c66 -3 120 -5 120 -5c0 61 -1 91 -1 91
c67 0 140 -2 140 -2c1 -49 0 -89 0 -89c-60 -68 -109 -118 -109 -118c-78 -5 -162 -8 -162 -8c-80 72 -127 119 -127 119c-5 175 -14 367 -14 367c68 65 130 137 130 137c85 -3 161 -8 161 -8c63 -61 130 -129 130 -129z" />
    <glyph glyph-name="Ccaron" unicode="&#x10c;" horiz-adv-x="510" 
d="M57 986c37 37 76 75 76 75l116 -152c48 55 127 150 127 150c35 -35 78 -73 78 -73c-88 -89 -169 -167 -169 -167h-82c-60 75 -146 167 -146 167zM446 67c-69 -61 -134 -113 -134 -113h-134c-64 66 -119 128 -119 128c-18 245 -30 527 -30 527c64 94 121 168 121 168
c83 5 181 11 181 11c74 -81 150 -160 150 -160c-14 -141 -27 -249 -27 -249c-75 -4 -140 -6 -140 -6c8 118 15 249 15 249c-79 -4 -149 -9 -149 -9c-1 -255 5 -525 5 -525c55 -2 120 0 120 0c5 48 7 116 7 116c70 -3 148 -4 148 -4c-5 -70 -14 -133 -14 -133z" />
    <glyph glyph-name="ccaron" unicode="&#x10d;" horiz-adv-x="478" 
d="M43 780c36 36 75 74 75 74l117 -151c47 55 127 150 127 150c35 -35 77 -73 77 -73c-87 -89 -168 -167 -168 -167h-83c-59 74 -145 167 -145 167zM453 432c1 -43 2 -108 2 -108c-77 3 -134 7 -134 7c-1 44 -2 87 -2 87c-74 5 -142 7 -142 7c6 -168 8 -348 8 -348
c66 -3 120 -5 120 -5c0 61 -1 91 -1 91c67 0 140 -2 140 -2c1 -49 0 -89 0 -89c-60 -68 -109 -118 -109 -118c-78 -5 -162 -8 -162 -8c-80 72 -127 119 -127 119c-5 175 -14 367 -14 367c68 65 130 137 130 137c85 -3 161 -8 161 -8c63 -61 130 -129 130 -129z" />
    <glyph glyph-name="Dcaron" unicode="&#x10e;" horiz-adv-x="517" 
d="M57 986c37 37 76 75 76 75l116 -152c48 55 127 150 127 150c35 -35 78 -73 78 -73c-88 -89 -169 -167 -169 -167h-82c-60 75 -146 167 -146 167zM169 614c7 -272 10 -506 10 -506c68 -2 137 -1 137 -1c17 252 29 510 29 510c-87 2 -176 -3 -176 -3zM441 93
c0 0 -58 -63 -117 -125c0 0 -137 -5 -264 -1c0 0 -13 372 -34 792c0 0 157 19 324 34c0 0 76 -78 146 -166c0 0 -30 -299 -55 -534z" />
    <glyph glyph-name="dcaron" unicode="&#x10f;" horiz-adv-x="480" 
d="M47 986c37 37 76 75 76 75l116 -152c48 55 127 150 127 150c35 -35 78 -73 78 -73c-88 -89 -169 -167 -169 -167h-82c-60 75 -146 167 -146 167zM184 70c62 -2 132 -1 132 -1c5 157 4 353 4 353c-65 4 -154 9 -154 9c5 -162 18 -361 18 -361zM174 -52
c-66 54 -106 113 -106 113c-22 185 -40 385 -40 385c81 63 140 116 140 116c76 -5 154 -14 154 -14s2 75 -2 240c0 0 69 -3 135 -4c-16 -415 -34 -814 -34 -814c-120 -12 -247 -22 -247 -22z" />
    <glyph glyph-name="cid250" 
 />
    <glyph glyph-name="cid251" 
 />
    <glyph glyph-name="Emacron" unicode="&#x112;" horiz-adv-x="468" 
d="M42 986c0 0 196 -8 404 -10c0 0 -2 -48 -7 -132c0 0 -214 -5 -391 -7c0 0 -5 48 -6 149zM386 385c3 -74 6 -147 6 -147c-115 -7 -204 -12 -204 -12s2 -77 5 -118c0 0 110 4 243 14c0 0 -2 -81 -4 -158c-184 -4 -356 -1 -356 -1s-16 372 -48 810c187 4 414 7 414 7
s-4 -87 -9 -172c0 0 -145 7 -257 14c2 -141 7 -266 7 -266s86 11 203 29z" />
    <glyph glyph-name="emacron" unicode="&#x113;" horiz-adv-x="482" 
d="M35 756c0 0 197 -8 405 -10c0 0 -2 -48 -7 -132c0 0 -214 -5 -391 -7c0 0 -5 48 -7 149zM171 322l150 15c5 47 7 94 7 94c-107 -2 -158 -4 -158 -4c-1 -53 1 -105 1 -105zM431 65c-45 -58 -102 -106 -102 -106c-99 -8 -155 -11 -155 -11l-126 111l-19 363
c58 77 120 142 120 142c113 -4 192 -8 192 -8c59 -54 126 -120 126 -120c-17 -86 -34 -195 -34 -195c-155 -8 -258 -14 -258 -14s2 -78 2 -153c82 0 128 7 128 7l-6 84c68 7 140 8 140 8c-5 -73 -8 -108 -8 -108z" />
    <glyph glyph-name="cid254" 
 />
    <glyph glyph-name="uni013C" 
 />
    <glyph glyph-name="Edotaccent" unicode="&#x116;" horiz-adv-x="468" 
d="M313 993c1 -64 -5 -143 -5 -143c-72 2 -147 2 -147 2c-3 66 -3 143 -3 143c71 0 155 -2 155 -2zM386 385c3 -74 6 -147 6 -147c-115 -7 -204 -12 -204 -12s2 -77 5 -118c0 0 110 4 243 14c0 0 -2 -81 -4 -158c-184 -4 -356 -1 -356 -1s-16 372 -48 810c187 4 414 7 414 7
s-4 -87 -9 -172c0 0 -145 7 -257 14c2 -141 7 -266 7 -266s86 11 203 29z" />
    <glyph glyph-name="edotaccent" unicode="&#x117;" horiz-adv-x="482" 
d="M317 764c1 -64 -5 -143 -5 -143c-72 2 -147 2 -147 2c-3 66 -3 143 -3 143c71 0 155 -2 155 -2zM171 322l150 15c5 47 7 94 7 94c-107 -2 -158 -4 -158 -4c-1 -53 1 -105 1 -105zM431 65c-45 -58 -102 -106 -102 -106c-99 -8 -155 -11 -155 -11l-126 111l-19 363
c58 77 120 142 120 142c113 -4 192 -8 192 -8c59 -54 126 -120 126 -120c-17 -86 -34 -195 -34 -195c-155 -8 -258 -14 -258 -14s2 -78 2 -153c82 0 128 7 128 7l-6 84c68 7 140 8 140 8c-5 -73 -8 -108 -8 -108z" />
    <glyph glyph-name="Eogonek" unicode="&#x118;" horiz-adv-x="468" 
d="M383 -37h7c-36 -56 -53 -81 -53 -81c11 -14 22 -25 22 -25c20 17 40 35 40 35c18 -23 35 -44 35 -44c-46 -32 -84 -55 -84 -55c-48 39 -97 82 -97 82c18 37 38 80 41 87c-124 -1 -218 1 -218 1s-16 372 -48 810c187 4 414 7 414 7s-4 -87 -9 -172c0 0 -145 7 -257 14
c2 -141 7 -266 7 -266s86 11 203 29c3 -74 6 -147 6 -147c-115 -7 -204 -12 -204 -12s2 -77 5 -118c0 0 110 4 243 14c0 0 -2 -81 -4 -158c-16 0 -33 -1 -49 -1z" />
    <glyph glyph-name="eogonek" unicode="&#x119;" horiz-adv-x="482" 
d="M329 -41l-5 -1c-34 -52 -50 -76 -50 -76c11 -14 22 -25 22 -25c20 17 40 35 40 35c18 -23 35 -44 35 -44c-46 -32 -84 -55 -84 -55c-48 39 -97 82 -97 82c14 28 29 60 36 76c-34 -2 -52 -3 -52 -3l-126 111l-19 363c58 77 120 142 120 142c113 -4 192 -8 192 -8
c59 -54 126 -120 126 -120c-17 -86 -34 -195 -34 -195c-155 -8 -258 -14 -258 -14s2 -78 2 -153c82 0 128 7 128 7l-6 84c68 7 140 8 140 8c-5 -73 -8 -108 -8 -108c-45 -58 -102 -106 -102 -106zM171 322l150 15c5 47 7 94 7 94c-107 -2 -158 -4 -158 -4
c-1 -53 1 -105 1 -105z" />
    <glyph glyph-name="Ecaron" unicode="&#x11a;" horiz-adv-x="468" 
d="M57 986c37 37 76 75 76 75l116 -152c48 55 127 150 127 150c35 -35 78 -73 78 -73c-88 -89 -169 -167 -169 -167h-82c-60 75 -146 167 -146 167zM386 385c3 -74 6 -147 6 -147c-115 -7 -204 -12 -204 -12s2 -77 5 -118c0 0 110 4 243 14c0 0 -2 -81 -4 -158
c-184 -4 -356 -1 -356 -1s-16 372 -48 810c187 4 414 7 414 7s-4 -87 -9 -172c0 0 -145 7 -257 14c2 -141 7 -266 7 -266s86 11 203 29z" />
    <glyph glyph-name="ecaron" unicode="&#x11b;" horiz-adv-x="482" 
d="M47 778c37 36 76 74 76 74l116 -151c48 55 127 150 127 150c35 -35 78 -73 78 -73c-88 -89 -169 -167 -169 -167h-82c-60 74 -146 167 -146 167zM171 322l150 15c5 47 7 94 7 94c-107 -2 -158 -4 -158 -4c-1 -53 1 -105 1 -105zM431 65c-45 -58 -102 -106 -102 -106
c-99 -8 -155 -11 -155 -11l-126 111l-19 363c58 77 120 142 120 142c113 -4 192 -8 192 -8c59 -54 126 -120 126 -120c-17 -86 -34 -195 -34 -195c-155 -8 -258 -14 -258 -14s2 -78 2 -153c82 0 128 7 128 7l-6 84c68 7 140 8 140 8c-5 -73 -8 -108 -8 -108z" />
    <glyph glyph-name="cid262" 
 />
    <glyph glyph-name="cid263" 
 />
    <glyph glyph-name="Gbreve" unicode="&#x11e;" horiz-adv-x="548" 
d="M495 903c0 0 -70 -33 -152 -75c0 0 -97 1 -174 4c0 0 -66 44 -124 87c0 0 36 45 76 92c0 0 26 -22 86 -59c0 0 54 -1 115 -2c0 0 45 35 92 69c0 0 36 -54 81 -116zM351 620c0 0 -79 1 -149 -4c0 0 6 -262 8 -522c0 0 96 -2 141 -3c0 0 1 48 2 83c0 0 -58 -3 -80 -5
c-1 51 2 123 2 123c87 -4 225 -13 225 -13s-8 -120 -14 -192c0 0 -56 -58 -128 -123c0 0 -91 -1 -147 -4c0 0 -69 50 -130 118c0 0 -22 252 -45 539c0 0 81 84 157 161c0 0 92 2 205 3c0 0 51 -74 115 -147c0 0 -2 -68 -7 -133c0 0 -79 1 -164 0c0 0 4 57 9 119z" />
    <glyph glyph-name="gbreve" unicode="&#x11f;" horiz-adv-x="490" 
d="M475 679c0 0 -70 -33 -152 -75c0 0 -97 1 -174 4c0 0 -66 44 -124 87c0 0 36 45 76 92c0 0 26 -22 86 -59c0 0 54 -1 115 -2c0 0 45 35 92 69c0 0 36 -54 81 -116zM308 423c0 0 -63 0 -138 -2c0 0 7 -172 9 -343c0 0 65 -1 119 1c0 0 8 238 10 344zM405 -153
c0 0 -58 -57 -115 -105c0 0 -74 -1 -128 -1c0 0 -56 54 -109 112c0 0 4 37 5 84c0 0 70 -4 111 -7c0 0 -1 -43 -1 -75c0 0 56 -1 120 0c0 0 4 71 1 100c0 0 -53 1 -108 1c0 0 -69 60 -125 115c0 0 -10 176 -25 354c0 0 64 72 133 135c0 0 67 4 148 4c0 0 71 -61 139 -135
c-24 -297 -26 -248 -46 -582z" />
    <glyph glyph-name="Gdotaccent" unicode="&#x120;" horiz-adv-x="548" 
d="M353 993c1 -64 -5 -143 -5 -143c-72 2 -147 2 -147 2c-3 66 -3 143 -3 143c71 0 155 -2 155 -2zM351 620c0 0 -79 1 -149 -4c0 0 6 -262 8 -522c0 0 96 -2 141 -3c0 0 1 48 2 83c0 0 -58 -3 -80 -5c-1 51 2 123 2 123c87 -4 225 -13 225 -13s-8 -120 -14 -192
c0 0 -56 -58 -128 -123c0 0 -91 -1 -147 -4c0 0 -69 50 -130 118c0 0 -22 252 -45 539c0 0 81 84 157 161c0 0 92 2 205 3c0 0 51 -74 115 -147c0 0 -2 -68 -7 -133c0 0 -79 1 -164 0c0 0 4 57 9 119z" />
    <glyph glyph-name="gdotaccent" unicode="&#x121;" horiz-adv-x="490" 
d="M323 756c1 -64 -5 -143 -5 -143c-72 2 -147 2 -147 2c-3 66 -3 143 -3 143c71 0 155 -2 155 -2zM308 423c0 0 -63 0 -138 -2c0 0 7 -172 9 -343c0 0 65 -1 119 1c0 0 8 238 10 344zM405 -153c0 0 -58 -57 -115 -105c0 0 -74 -1 -128 -1c0 0 -56 54 -109 112
c0 0 4 37 5 84c0 0 70 -4 111 -7c0 0 -1 -43 -1 -75c0 0 56 -1 120 0c0 0 4 71 1 100c0 0 -53 1 -108 1c0 0 -69 60 -125 115c0 0 -10 176 -25 354c0 0 64 72 133 135c0 0 67 4 148 4c0 0 71 -61 139 -135c-24 -297 -26 -248 -46 -582z" />
    <glyph glyph-name="uni0122" unicode="&#x122;" horiz-adv-x="548" 
d="M206 -128c0 0 62 -1 123 -1c0 0 -2 -63 -4 -111c0 0 -17 -24 -41 -71c0 0 -15 7 -36 13c0 0 9 18 17 44c0 0 -14 4 -53 12c0 0 -3 63 -6 114zM351 620c0 0 -79 1 -149 -4c0 0 6 -262 8 -522c0 0 96 -2 141 -3c0 0 1 48 2 83c0 0 -58 -3 -80 -5c-1 51 2 123 2 123
c87 -4 225 -13 225 -13s-8 -120 -14 -192c0 0 -56 -58 -128 -123c0 0 -91 -1 -147 -4c0 0 -69 50 -130 118c0 0 -22 252 -45 539c0 0 81 84 157 161c0 0 92 2 205 3c0 0 51 -74 115 -147c0 0 -2 -68 -7 -133c0 0 -79 1 -164 0c0 0 4 57 9 119z" />
    <glyph glyph-name="uni0123" unicode="&#x123;" horiz-adv-x="490" 
d="M308 423c0 0 -63 0 -138 -2c0 0 7 -172 9 -343c0 0 65 -1 119 1c0 0 8 238 10 344zM405 -153c0 0 -58 -57 -115 -105c0 0 -74 -1 -128 -1c0 0 -56 54 -109 112c0 0 4 37 5 84c0 0 70 -4 111 -7c0 0 -1 -43 -1 -75c0 0 56 -1 120 0c0 0 4 71 1 100c0 0 -53 1 -108 1
c0 0 -69 60 -125 115c0 0 -10 176 -25 354c0 0 64 72 133 135c0 0 67 4 148 4c0 0 71 -61 139 -135c-24 -297 -26 -248 -46 -582zM296 649c0 0 -61 2 -122 2c0 0 2 63 4 111c0 0 17 24 41 70c0 0 15 -6 35 -12c0 0 -8 -18 -16 -44c0 0 14 -5 53 -12c0 0 3 -64 5 -115z" />
    <glyph glyph-name="cid270" 
 />
    <glyph glyph-name="cid271" 
 />
    <glyph glyph-name="Hbar" unicode="&#x126;" horiz-adv-x="637" 
d="M23 711c0 0 26 0 67 -1l-2 62c92 3 170 4 170 4c-1 -23 -2 -45 -2 -68c40 -1 82 -1 124 -2v72c91 0 171 -3 171 -3l-3 -72c24 -1 47 -1 68 -2c0 0 -2 -25 -7 -113l-67 -1c-20 -380 -29 -628 -29 -628c-78 2 -130 3 -130 3c0 111 -1 235 -1 235s-73 1 -136 1
c0 0 2 -110 0 -232c-67 -2 -129 -2 -129 -2c-8 201 -17 450 -23 618l-63 -1s-8 62 -8 130zM381 585l-129 -1c-4 -148 -4 -262 -4 -262s55 3 136 7c0 0 -2 105 -3 256z" />
    <glyph glyph-name="hbar" unicode="&#x127;" horiz-adv-x="527" 
d="M16 731l55 -2l-1 52c77 2 153 2 153 2c0 -20 -1 -40 -2 -58c38 -1 81 -3 128 -4c0 0 -1 -20 -6 -108c0 0 -46 -2 -125 -4c-1 -58 -2 -93 -2 -93s17 31 40 55c0 0 60 -2 127 -6c0 0 57 -81 113 -149c0 0 -7 -228 -9 -455c0 0 -73 1 -145 3c0 0 5 242 8 442
c0 0 -65 -1 -133 -4c0 0 -3 -226 -4 -438c0 0 -66 -3 -125 -3c0 0 -6 326 -14 646c-16 -1 -33 -1 -51 -1c0 0 -3 34 -7 125z" />
    <glyph glyph-name="cid274" 
 />
    <glyph glyph-name="cid275" 
 />
    <glyph glyph-name="Imacron" unicode="&#x12a;" horiz-adv-x="438" 
d="M12 986c0 0 196 -8 404 -10c0 0 -2 -59 -7 -132c0 0 -214 -5 -391 -7c0 0 -5 48 -6 149zM274 -39c-69 -1 -121 -1 -121 -1s-2 418 -10 820h152s-10 -392 -21 -819z" />
    <glyph glyph-name="imacron" unicode="&#x12b;" horiz-adv-x="417" 
d="M25 762c0 0 189 -2 371 -6c0 0 -2 -66 -7 -130c0 0 -181 -8 -357 -11c0 0 -3 56 -7 147zM131 -37c0 0 0 285 -3 600c0 0 78 1 167 -2c0 0 -7 -286 -18 -598c0 0 -77 -2 -146 0z" />
    <glyph glyph-name="cid278" 
 />
    <glyph glyph-name="cid279" 
 />
    <glyph glyph-name="Iogonek" unicode="&#x12e;" horiz-adv-x="233" 
d="M176 -39h-15c-36 -54 -52 -79 -52 -79c11 -14 22 -25 22 -25c20 17 40 35 40 35c18 -23 35 -44 35 -44c-46 -32 -84 -55 -84 -55c-48 39 -97 82 -97 82c17 34 35 74 40 85h-10s-2 418 -11 820h153s-11 -392 -21 -819z" />
    <glyph glyph-name="iogonek" unicode="&#x12f;" horiz-adv-x="236" 
d="M176 -34h-15c-33 -51 -49 -84 -49 -84c11 -14 22 -25 22 -25c20 17 40 35 40 35c18 -23 35 -44 35 -44c-46 -32 -84 -55 -84 -55c-48 39 -97 82 -97 82c15 31 32 73 39 91h-16c0 281 -3 593 -3 593c63 -2 146 -2 146 -2c-11 -289 -18 -591 -18 -591z" />
    <glyph glyph-name="Idotaccent" unicode="&#x130;" horiz-adv-x="233" 
d="M194 993c1 -64 -5 -143 -5 -143c-72 2 -147 2 -147 2c-3 66 -3 143 -3 143c71 0 155 -2 155 -2zM176 -39c-69 -1 -121 -1 -121 -1s-2 418 -11 820h153s-11 -392 -21 -819z" />
    <glyph glyph-name="IJ" unicode="&#x132;" horiz-adv-x="711" 
d="M622 81c-52 -63 -115 -125 -115 -125c-58 -1 -152 8 -152 8c-70 77 -129 133 -129 133c-4 72 -7 138 -7 138c79 5 158 -2 158 -2c-3 -62 -7 -128 -7 -128c66 -6 119 -6 119 -6c5 307 9 686 9 686c72 -2 164 -7 164 -7c-19 -370 -40 -697 -40 -697zM179 -39
c-69 -1 -121 -1 -121 -1s-2 418 -10 820h152s-10 -392 -21 -819z" />
    <glyph glyph-name="ij" unicode="&#x133;" horiz-adv-x="487" 
d="M261 790c0 0 92 0 178 -2c0 0 -3 -66 -7 -151c0 0 -84 1 -166 2c0 0 -3 83 -5 151zM266 555c0 0 93 -2 166 3c0 0 -8 -332 -12 -648c0 0 -70 -76 -125 -139c0 0 -63 -7 -111 -11l1 149l92 3s-4 332 -11 643zM181 -34h-124c0 281 -3 593 -3 593c63 -2 145 -2 145 -2
c-11 -289 -18 -591 -18 -591zM204 637c0 0 -74 1 -156 2c0 0 -3 83 -5 151c0 0 82 0 168 -2c0 0 -3 -66 -7 -151z" />
    <glyph glyph-name="cid286" 
 />
    <glyph glyph-name="cid287" 
 />
    <glyph glyph-name="uni0136" unicode="&#x136;" horiz-adv-x="498" 
d="M456 -41c-79 3 -164 7 -164 7c-48 78 -88 144 -88 144c0 -66 -2 -143 -2 -143c-73 -5 -136 -6 -136 -6c-9 317 -28 820 -28 820c86 -1 165 3 165 3c-6 -143 2 -217 2 -217s63 88 125 200c0 0 57 -27 127 -66c-127 -192 -240 -371 -240 -371s75 -128 144 -225
c52 5 101 12 101 12c0 -82 -6 -158 -6 -158zM185 -128c0 0 62 -1 123 -1c0 0 -2 -63 -4 -111c0 0 -17 -24 -41 -71c0 0 -15 7 -36 13c0 0 9 18 17 44c0 0 -14 4 -53 12c0 0 -3 63 -6 114z" />
    <glyph glyph-name="uni0137" unicode="&#x137;" horiz-adv-x="482" 
d="M447 -39c-83 3 -160 4 -160 4c-57 125 -105 255 -105 255c-4 -146 -4 -256 -4 -256c-72 0 -124 -1 -124 -1s-2 363 -16 821c84 0 163 -1 163 -1c-9 -239 -14 -416 -14 -416s56 106 98 202c0 0 70 -22 138 -55c-69 -84 -170 -219 -170 -219s52 -111 103 -204
c49 1 100 3 100 3c-5 -73 -9 -133 -9 -133zM174 -128c0 0 62 -1 123 -1c0 0 -2 -63 -4 -111c0 0 -17 -24 -41 -71c0 0 -15 7 -36 13c0 0 9 18 17 44c0 0 -14 4 -53 12c0 0 -3 63 -6 114z" />
    <glyph glyph-name="cid255" 
 />
    <glyph glyph-name="Lacute" unicode="&#x139;" horiz-adv-x="383" 
d="M144 813c-46 39 -99 88 -99 88c85 79 164 157 164 157c51 -56 106 -111 106 -111c-85 -63 -171 -134 -171 -134zM186 108c81 6 164 14 164 14l6 -157h-302c-9 365 -19 811 -19 811c88 4 172 5 172 5c-18 -410 -21 -673 -21 -673z" />
    <glyph glyph-name="lacute" unicode="&#x13a;" horiz-adv-x="336" 
d="M134 813c-46 39 -99 88 -99 88c85 79 164 157 164 157c51 -56 106 -111 106 -111c-85 -63 -171 -134 -171 -134zM226 -39c-69 -1 -121 -1 -121 -1s-2 418 -11 820h153s-11 -392 -21 -819z" />
    <glyph glyph-name="uni013B" unicode="&#x13b;" horiz-adv-x="383" 
d="M133 -128c0 0 61 -1 122 -1c0 0 -2 -63 -4 -111c0 0 -17 -24 -41 -71c0 0 -15 7 -35 13c0 0 8 18 16 44c0 0 -14 4 -53 12c0 0 -3 63 -5 114zM194 774c0 0 -18 -405 -21 -671c0 0 78 5 165 15c0 0 4 -74 15 -160c0 0 -164 3 -291 0c0 0 -19 402 -42 805c0 0 83 3 174 11z
" />
    <glyph glyph-name="cid296" unicode="&#x13c;" horiz-adv-x="223" 
d="M55 -128c0 0 62 -1 123 -1c0 0 -3 -63 -4 -111c0 0 -17 -24 -41 -71c0 0 -16 7 -36 13c0 0 9 18 17 44c0 0 -14 4 -53 12c0 0 -4 63 -6 114zM30 772h164c-17 -372 -26 -808 -26 -808s-76 -2 -123 -4c-2 423 -15 812 -15 812z" />
    <glyph glyph-name="Lcaron" unicode="&#x13d;" horiz-adv-x="427" 
d="M17 986c37 37 76 75 76 75l116 -152c48 55 127 150 127 150c35 -35 78 -73 78 -73c-88 -89 -169 -167 -169 -167h-82c-60 75 -146 167 -146 167zM186 108c81 6 164 14 164 14l6 -157h-302c-9 365 -19 811 -19 811c88 4 172 5 172 5c-18 -410 -21 -673 -21 -673z" />
    <glyph glyph-name="lcaron" unicode="&#x13e;" horiz-adv-x="429" 
d="M17 986c37 37 76 75 76 75l116 -152c48 55 127 150 127 150c35 -35 78 -73 78 -73c-88 -89 -169 -167 -169 -167h-82c-60 75 -146 167 -146 167zM266 -39c-69 -1 -121 -1 -121 -1s-2 418 -11 820h153s-11 -392 -21 -819z" />
    <glyph glyph-name="cid297" 
 />
    <glyph glyph-name="cid298" 
 />
    <glyph glyph-name="Nacute" unicode="&#x143;" horiz-adv-x="563" 
d="M234 813c-46 39 -99 88 -99 88c85 79 164 157 164 157c51 -56 106 -111 106 -111c-85 -63 -171 -134 -171 -134zM374 238c0 0 2 254 8 548c0 0 71 -1 152 -4c0 0 -19 -395 -37 -819c0 0 -58 -2 -132 -4c0 0 -102 247 -176 439c0 0 12 -206 19 -437c0 0 -75 2 -160 3
c0 0 -6 364 -9 819c0 0 53 0 139 3c0 0 102 -305 196 -548z" />
    <glyph glyph-name="nacute" unicode="&#x144;" horiz-adv-x="475" 
d="M194 597c-46 39 -99 88 -99 88c85 79 164 157 164 157c51 -56 106 -111 106 -111c-85 -63 -171 -134 -171 -134zM317 -35c0 0 0 229 -2 443c0 0 -75 0 -133 -4c0 0 -1 -210 4 -439c0 0 -41 1 -132 0c0 0 -7 280 -17 445c0 0 67 72 148 150c0 0 102 -2 140 -2
c0 0 61 -70 118 -146c-12 -241 -17 -448 -17 -448s-51 0 -109 1z" />
    <glyph glyph-name="uni0145" unicode="&#x145;" horiz-adv-x="571" 
d="M374 238c0 0 2 254 8 548c0 0 71 -1 152 -4c0 0 -19 -395 -37 -819c0 0 -58 -2 -132 -4c0 0 -102 247 -176 439c0 0 12 -206 19 -437c0 0 -75 2 -160 3c0 0 -6 364 -9 819c0 0 53 0 139 3c0 0 102 -305 196 -548zM196 -128c0 0 62 -1 123 -1c0 0 -2 -63 -4 -111
c0 0 -17 -24 -41 -71c0 0 -15 7 -36 13c0 0 9 18 17 44c0 0 -14 4 -53 12c0 0 -3 63 -6 114z" />
    <glyph glyph-name="uni0146" unicode="&#x146;" horiz-adv-x="471" 
d="M317 -35c0 0 0 229 -2 443c0 0 -75 0 -133 -4c0 0 -1 -210 4 -439c0 0 -41 1 -132 0c0 0 -7 280 -17 445c0 0 67 72 148 150c0 0 102 -2 140 -2c0 0 61 -70 118 -146c-12 -241 -17 -448 -17 -448s-51 0 -109 1zM163 -128c0 0 62 -1 123 -1c0 0 -2 -63 -4 -111
c0 0 -17 -24 -41 -71c0 0 -15 7 -36 13c0 0 9 18 17 44c0 0 -14 4 -53 12c0 0 -3 63 -6 114z" />
    <glyph glyph-name="Ncaron" unicode="&#x147;" horiz-adv-x="572" 
d="M87 986c37 37 76 75 76 75l116 -152c48 55 127 150 127 150c35 -35 78 -73 78 -73c-88 -89 -169 -167 -169 -167h-82c-60 75 -146 167 -146 167zM374 238c0 0 2 254 8 548c0 0 71 -1 152 -4c0 0 -19 -395 -37 -819c0 0 -58 -2 -132 -4c0 0 -102 247 -176 439
c0 0 12 -206 19 -437c0 0 -75 2 -160 3c0 0 -6 364 -9 819c0 0 53 0 139 3c0 0 102 -305 196 -548z" />
    <glyph glyph-name="ncaron" unicode="&#x148;" horiz-adv-x="475" 
d="M47 777c37 36 76 74 76 74l116 -151c48 55 127 150 127 150c35 -35 78 -73 78 -73c-88 -89 -169 -167 -169 -167h-82c-60 74 -146 167 -146 167zM317 -35c0 0 0 229 -2 443c0 0 -75 0 -133 -4c0 0 -1 -210 4 -439c0 0 -41 1 -132 0c0 0 -7 280 -17 445c0 0 67 72 148 150
c0 0 102 -2 140 -2c0 0 61 -70 118 -146c-12 -241 -17 -448 -17 -448s-51 0 -109 1z" />
    <glyph glyph-name="cid307" 
 />
    <glyph glyph-name="cid308" 
 />
    <glyph glyph-name="cid309" 
 />
    <glyph glyph-name="cid310" 
 />
    <glyph glyph-name="cid311" 
 />
    <glyph glyph-name="cid312" 
 />
    <glyph glyph-name="cid313" 
 />
    <glyph glyph-name="Ohungarumlaut" unicode="&#x150;" horiz-adv-x="528" 
d="M179 814c-51 12 -119 35 -119 35c40 106 69 200 69 200c72 -20 136 -41 136 -41c-48 -110 -86 -194 -86 -194zM392 814c-51 12 -119 35 -119 35c40 106 69 200 69 200c71 -20 136 -41 136 -41c-49 -110 -86 -194 -86 -194zM184 605c0 0 5 -288 7 -500c0 0 36 -1 138 -3
c0 0 11 269 10 499c0 0 -68 6 -155 4zM460 96c0 0 -57 -66 -122 -143c0 0 -36 1 -152 5c0 0 -68 62 -136 147c0 0 -3 229 -13 508c0 0 54 87 131 169c0 0 71 -3 194 0c0 0 67 -85 132 -181c0 0 -23 -268 -34 -505z" />
    <glyph glyph-name="ohungarumlaut" unicode="&#x151;" horiz-adv-x="468" 
d="M171 436c0 0 4 -181 8 -370c0 0 60 -5 115 -6c0 0 5 173 11 377c0 0 -80 1 -134 -1zM419 53c0 0 -63 -48 -126 -97h-116c0 0 -64 44 -128 104c0 0 -11 175 -18 383c0 0 59 64 116 117c0 0 70 5 163 11c0 0 71 -61 131 -130c-18 -189 -17 -393 -22 -388zM149 613
c-51 12 -119 35 -119 35c40 106 69 201 69 201c72 -21 136 -42 136 -42c-48 -110 -86 -194 -86 -194zM362 613c-51 12 -119 35 -119 35c40 106 69 201 69 201c71 -21 136 -42 136 -42c-49 -110 -86 -194 -86 -194z" />
    <glyph glyph-name="Racute" unicode="&#x154;" horiz-adv-x="508" 
d="M224 813c-46 39 -99 88 -99 88c85 79 164 157 164 157c51 -56 106 -111 106 -111c-85 -63 -171 -134 -171 -134zM185 638c0 -181 -1 -356 -1 -356s63 -4 123 -8c10 179 26 369 26 369c-87 -2 -148 -5 -148 -5zM474 88c-4 -59 -9 -127 -9 -127c-74 3 -153 6 -153 6
c-58 100 -102 194 -102 194c-13 1 -25 1 -25 1s4 -82 10 -198c0 0 -87 -2 -139 0c0 0 -7 388 -26 812c0 0 168 10 313 15c82 -86 141 -145 141 -145c-21 -199 -40 -379 -40 -379c-58 -48 -113 -108 -113 -108l51 -78c51 3 92 7 92 7z" />
    <glyph glyph-name="racute" unicode="&#x155;" horiz-adv-x="395" 
d="M159 597c-46 39 -99 88 -99 88c85 79 164 157 164 157c51 -56 106 -111 106 -111c-85 -63 -171 -134 -171 -134zM360 402c0 0 -43 4 -91 8c-48 -43 -79 -78 -79 -78s-6 -178 -7 -368c-77 1 -135 0 -135 0c-2 287 -8 591 -8 591h159c-1 -36 -2 -73 -2 -73s36 35 72 71
c0 0 47 3 100 5c0 0 -3 -75 -9 -156z" />
    <glyph glyph-name="cid320" 
 />
    <glyph glyph-name="cid321" 
 />
    <glyph glyph-name="Rcaron" unicode="&#x158;" horiz-adv-x="508" 
d="M57 986c37 37 76 75 76 75l116 -152c48 55 127 150 127 150c35 -35 78 -73 78 -73c-88 -89 -169 -167 -169 -167h-82c-60 75 -146 167 -146 167zM185 638c0 -181 -1 -356 -1 -356s63 -4 123 -8c10 179 26 369 26 369c-87 -2 -148 -5 -148 -5zM474 88
c-4 -59 -9 -127 -9 -127c-74 3 -153 6 -153 6c-58 100 -102 194 -102 194c-13 1 -25 1 -25 1s4 -82 10 -198c0 0 -87 -2 -139 0c0 0 -7 388 -26 812c0 0 168 10 313 15c82 -86 141 -145 141 -145c-21 -199 -40 -379 -40 -379c-58 -48 -113 -108 -113 -108l51 -78
c51 3 92 7 92 7z" />
    <glyph glyph-name="rcaron" unicode="&#x159;" horiz-adv-x="430" 
d="M17 781c37 36 76 74 76 74l116 -151c48 55 127 150 127 150c35 -35 78 -73 78 -73c-88 -89 -169 -167 -169 -167h-82c-60 74 -146 167 -146 167zM370 402c0 0 -43 4 -91 8c-48 -43 -79 -78 -79 -78s-6 -178 -7 -368c-77 1 -135 0 -135 0c-2 287 -8 591 -8 591h159
c-1 -36 -2 -73 -2 -73s36 35 72 71c0 0 47 3 100 5c0 0 -3 -75 -9 -156z" />
    <glyph glyph-name="Sacute" unicode="&#x15a;" horiz-adv-x="538" 
d="M514 648c0 0 -4 -79 -15 -174c0 0 -72 2 -131 2c0 0 -1 75 1 171c0 0 -101 -8 -174 -12c0 0 -2 -134 3 -269c0 0 84 -1 172 -1c0 0 66 -58 130 -114c0 0 -7 -98 -8 -177c0 0 -68 -62 -132 -119c0 0 -82 0 -154 1c0 0 -87 54 -151 110c0 52 -4 112 -4 112s77 3 155 2
c0 0 0 -70 2 -109c0 0 68 3 152 9c0 0 2 71 0 161c0 0 -69 1 -157 -1c0 0 -85 58 -163 116c0 0 2 162 -7 299c0 0 74 63 141 129c0 0 89 4 195 7c0 0 67 -68 145 -143zM224 813c-46 39 -99 88 -99 88c85 79 164 157 164 157c51 -56 106 -111 106 -111
c-85 -63 -171 -134 -171 -134z" />
    <glyph glyph-name="sacute" unicode="&#x15b;" horiz-adv-x="484" 
d="M455 440c0 0 2 -35 3 -87c0 0 -87 1 -152 5c0 0 0 33 1 72c0 0 -49 -1 -119 -6c0 0 0 -71 2 -117c0 0 55 -5 116 1c0 0 66 -51 137 -103c0 0 -4 -61 -12 -136c0 0 -68 -64 -121 -108c0 0 -62 -1 -139 -2c0 0 -71 64 -118 109c0 0 -4 36 -6 66l141 2s1 -30 1 -59
c0 0 53 1 114 2l2 104c-65 3 -114 2 -114 2c-74 53 -145 94 -145 94s-3 84 -4 147c0 0 76 83 141 138c0 0 67 2 135 5c0 0 81 -82 137 -129zM199 597c-46 39 -99 88 -99 88c85 79 164 157 164 157c51 -56 106 -111 106 -111c-85 -63 -171 -134 -171 -134z" />
    <glyph glyph-name="cid326" 
 />
    <glyph glyph-name="cid327" 
 />
    <glyph glyph-name="Scedilla" unicode="&#x15e;" horiz-adv-x="544" 
d="M198 -93c12 19 22 39 28 49h-20s-87 54 -151 110c0 52 -4 112 -4 112s77 3 155 2c0 0 0 -70 2 -109c0 0 68 3 152 9c0 0 2 71 0 161c0 0 -69 1 -157 -1c0 0 -85 58 -163 116c0 0 2 162 -7 299c0 0 74 63 141 129c0 0 89 4 195 7c0 0 67 -68 145 -143c0 0 -4 -79 -15 -174
c0 0 -72 2 -131 2c0 0 -1 75 1 171c0 0 -101 -8 -174 -12c0 0 -2 -134 3 -269c0 0 84 -1 172 -1c0 0 66 -58 130 -114c0 0 -7 -98 -8 -177c0 0 -68 -62 -132 -119h-58c-6 -10 -17 -28 -26 -44h52c35 -26 68 -53 68 -53c-3 -41 -7 -76 -7 -76c-69 -1 -137 -1 -137 -1
c-2 27 -3 52 -3 52c43 -1 70 -1 70 -1c1 11 1 24 1 24h-58c-32 25 -64 51 -64 51z" />
    <glyph glyph-name="scedilla" unicode="&#x15f;" horiz-adv-x="491" 
d="M169 -93c13 22 25 43 29 52h-27s-71 64 -118 109c0 0 -4 36 -6 66l141 2s1 -30 1 -59c0 0 53 1 114 2l2 104c-65 3 -114 2 -114 2c-74 53 -145 94 -145 94s-3 84 -4 147c0 0 76 83 141 138c0 0 67 2 135 5c0 0 81 -82 137 -129c0 0 2 -35 3 -87c0 0 -87 1 -152 5
c0 0 0 33 1 72c0 0 -49 -1 -119 -6c0 0 0 -71 2 -117c0 0 55 -5 116 1c0 0 66 -51 137 -103c0 0 -4 -61 -12 -136c0 0 -68 -64 -121 -108l-35 -1c-4 -7 -17 -29 -29 -49h53c34 -26 68 -53 68 -53c-3 -41 -7 -76 -7 -76c-69 -1 -137 -1 -137 -1c-3 27 -4 52 -4 52
c44 -1 70 -1 70 -1c2 11 2 24 2 24h-58c-33 25 -64 51 -64 51z" />
    <glyph glyph-name="cid330" unicode="&#x160;" horiz-adv-x="544" 
d="M77 986c37 37 76 75 76 75l116 -152c48 55 127 150 127 150c35 -35 78 -73 78 -73c-88 -89 -169 -167 -169 -167h-82c-60 75 -146 167 -146 167zM514 648c0 0 -4 -79 -15 -174c0 0 -72 2 -131 2c0 0 -1 75 1 171c0 0 -101 -8 -174 -12c0 0 -2 -134 3 -269
c0 0 84 -1 172 -1c0 0 66 -58 130 -114c0 0 -7 -98 -8 -177c0 0 -68 -62 -132 -119c0 0 -82 0 -154 1c0 0 -87 54 -151 110c0 52 -4 112 -4 112s77 3 155 2c0 0 0 -70 2 -109c0 0 68 3 152 9c0 0 2 71 0 161c0 0 -69 1 -157 -1c0 0 -85 58 -163 116c0 0 2 162 -7 299
c0 0 74 63 141 129c0 0 89 4 195 7c0 0 67 -68 145 -143z" />
    <glyph glyph-name="cid332" 
 />
    <glyph glyph-name="cid333" 
 />
    <glyph glyph-name="cid334" unicode="&#x164;" horiz-adv-x="524" 
d="M67 986c37 37 76 75 76 75l116 -152c48 55 127 150 127 150c35 -35 78 -73 78 -73c-88 -89 -169 -167 -169 -167h-82c-60 75 -146 167 -146 167zM187 -38c0 0 -3 216 -8 633c0 0 -52 -2 -137 -5c0 0 -6 97 -10 187c233 3 459 6 459 6c-4 -95 -9 -186 -9 -186
c-67 1 -145 1 -145 1s-8 -322 -16 -633c0 0 -67 -1 -134 -3z" />
    <glyph glyph-name="tcaron" unicode="&#x165;" horiz-adv-x="428" 
d="M17 888c37 36 76 74 76 74l116 -151c48 55 127 150 127 150c35 -35 78 -73 78 -73c-88 -89 -169 -167 -169 -167h-82c-60 74 -146 167 -146 167zM399 -42l-163 2s-63 58 -127 113c-4 168 -4 349 -4 349s-24 -1 -58 -1l-6 140c36 -3 64 -3 64 -3c0 41 1 85 -1 131
c80 0 147 -5 147 -5c-3 -75 -5 -124 -5 -124h147s-2 -56 -6 -144c0 0 -89 3 -146 5c-1 -188 -4 -337 -4 -337c73 3 158 11 158 11c4 -69 4 -137 4 -137z" />
    <glyph glyph-name="cid336" 
 />
    <glyph glyph-name="cid337" 
 />
    <glyph glyph-name="cid338" 
 />
    <glyph glyph-name="cid339" 
 />
    <glyph glyph-name="cid340" unicode="&#x16a;" horiz-adv-x="530" 
d="M72 986c0 0 196 -8 404 -10c0 0 -2 -48 -7 -132c0 0 -214 -5 -391 -7c0 0 -5 48 -6 149zM505 757c0 0 -14 -330 -24 -633c0 0 -64 -77 -131 -171c0 0 -61 1 -141 1c0 0 -76 79 -151 152c-19 354 -29 672 -29 672s82 2 180 4c0 0 -6 -350 0 -658c0 0 70 1 140 5
c0 0 3 292 9 629c0 0 72 0 147 -1z" />
    <glyph glyph-name="umacron" unicode="&#x16b;" horiz-adv-x="520" 
d="M65 756c0 0 197 -8 405 -10c0 0 -2 -48 -7 -132c0 0 -214 -5 -391 -7c0 0 -5 48 -7 149zM381 17c0 0 -32 -27 -66 -59c0 0 -60 2 -131 1c0 0 -56 51 -125 119c-12 209 -18 482 -18 482s73 1 158 -2c0 0 -7 -263 -8 -454c0 0 53 0 130 1c0 0 2 226 0 432c0 0 79 -1 158 -5
c-11 -218 -32 -453 -32 -453c27 -10 66 -20 66 -20c-17 -57 -30 -103 -30 -103c-36 8 -61 15 -61 15c-19 26 -41 46 -41 46z" />
    <glyph glyph-name="cid342" 
 />
    <glyph glyph-name="cid343" 
 />
    <glyph glyph-name="cid344" unicode="&#x16e;" horiz-adv-x="530" 
d="M307 1001h-78c-2 -49 -1 -91 -1 -91c38 0 75 1 75 1c3 43 4 90 4 90zM393 1007c-4 -55 -8 -97 -8 -97c-31 -40 -73 -74 -73 -74c-43 0 -86 1 -86 1c-41 33 -79 72 -79 72c-1 54 -3 99 -3 99c36 34 77 72 77 72c45 1 91 2 91 2c34 -35 81 -75 81 -75zM505 757
c0 0 -14 -330 -24 -633c0 0 -64 -77 -131 -171c0 0 -61 1 -141 1c0 0 -76 79 -151 152c-19 354 -29 672 -29 672s82 2 180 4c0 0 -6 -350 0 -658c0 0 70 1 140 5c0 0 3 292 9 629c0 0 72 0 147 -1z" />
    <glyph glyph-name="cid345" unicode="&#x16f;" horiz-adv-x="520" 
d="M297 771h-78c-2 -49 -2 -91 -2 -91c39 0 75 1 75 1c4 43 5 90 5 90zM383 777c-4 -55 -8 -97 -8 -97c-31 -40 -73 -74 -73 -74c-43 0 -86 1 -86 1c-41 33 -79 72 -79 72c-1 54 -4 99 -4 99c37 34 78 72 78 72c45 1 91 2 91 2c34 -35 81 -75 81 -75zM381 17
c0 0 -32 -27 -66 -59c0 0 -60 2 -131 1c0 0 -56 51 -125 119c-12 209 -18 482 -18 482s73 1 158 -2c0 0 -7 -263 -8 -454c0 0 53 0 130 1c0 0 2 226 0 432c0 0 79 -1 158 -5c-11 -218 -32 -453 -32 -453c27 -10 66 -20 66 -20c-17 -57 -30 -103 -30 -103
c-36 8 -61 15 -61 15c-19 26 -41 46 -41 46z" />
    <glyph glyph-name="cid346" unicode="&#x170;" horiz-adv-x="530" 
d="M179 814c-51 12 -119 35 -119 35c40 106 69 200 69 200c72 -20 136 -41 136 -41c-48 -110 -86 -194 -86 -194zM392 814c-51 12 -119 35 -119 35c40 106 69 200 69 200c71 -20 136 -41 136 -41c-49 -110 -86 -194 -86 -194zM505 757c0 0 -14 -330 -24 -633
c0 0 -64 -77 -131 -171c0 0 -61 1 -141 1c0 0 -76 79 -151 152c-19 354 -29 672 -29 672s82 2 180 4c0 0 -6 -350 0 -658c0 0 70 1 140 5c0 0 3 292 9 629c0 0 72 0 147 -1z" />
    <glyph glyph-name="cid347" unicode="&#x171;" horiz-adv-x="520" 
d="M169 613c-51 12 -119 35 -119 35c40 106 69 201 69 201c72 -21 136 -42 136 -42c-48 -110 -86 -194 -86 -194zM382 613c-51 12 -119 35 -119 35c40 106 69 201 69 201c71 -21 136 -42 136 -42c-49 -110 -86 -194 -86 -194zM381 17c0 0 -32 -27 -66 -59c0 0 -60 2 -131 1
c0 0 -56 51 -125 119c-12 209 -18 482 -18 482s73 1 158 -2c0 0 -7 -263 -8 -454c0 0 53 0 130 1c0 0 2 226 0 432c0 0 79 -1 158 -5c-11 -218 -32 -453 -32 -453c27 -10 66 -20 66 -20c-17 -57 -30 -103 -30 -103c-36 8 -61 15 -61 15c-19 26 -41 46 -41 46z" />
    <glyph glyph-name="cid348" unicode="&#x172;" horiz-adv-x="530" 
d="M350 -47h-7c-32 -49 -47 -71 -47 -71c12 -14 23 -25 23 -25c20 17 39 35 39 35c19 -23 36 -44 36 -44c-46 -32 -84 -55 -84 -55c-48 39 -98 82 -98 82c15 29 31 63 38 79h-41c0 0 -76 79 -151 152c-19 354 -29 672 -29 672s82 2 180 4c0 0 -6 -350 0 -658c0 0 70 1 140 5
c0 0 3 292 9 629c0 0 72 0 147 -1c0 0 -14 -330 -24 -633c0 0 -64 -77 -131 -171z" />
    <glyph glyph-name="cid349" unicode="&#x173;" horiz-adv-x="520" 
d="M483 -44c-19 -29 -60 -74 -60 -74c12 -14 23 -25 23 -25c20 17 40 35 40 35c18 -23 35 -44 35 -44c-46 -32 -84 -55 -84 -55c-48 39 -98 82 -98 82c14 26 42 86 60 124l-18 18s-32 -27 -66 -59c0 0 -60 2 -131 1c0 0 -56 51 -125 119c-12 209 -18 482 -18 482
s73 1 158 -2c0 0 -7 -263 -8 -454c0 0 53 0 130 1c0 0 2 226 0 432c0 0 79 -1 158 -5c-11 -218 -32 -453 -32 -453c27 -10 66 -20 66 -20c-17 -57 -30 -103 -30 -103z" />
    <glyph glyph-name="cid350" 
 />
    <glyph glyph-name="cid351" 
 />
    <glyph glyph-name="cid352" 
 />
    <glyph glyph-name="cid353" 
 />
    <glyph glyph-name="cid354" unicode="&#x178;" horiz-adv-x="482" 
d="M195 990c0 -72 -5 -134 -5 -134c-60 2 -122 2 -122 2c-1 65 -3 135 -3 135c66 -4 130 -3 130 -3zM404 990c-2 -65 -5 -134 -5 -134c-60 2 -122 2 -122 2c-2 61 -3 135 -3 135c71 -4 130 -3 130 -3zM416 292l-117 -106s0 -49 7 -223c0 0 -65 -1 -138 1c0 0 6 71 6 226
c-65 60 -120 113 -120 113c-13 183 -29 475 -29 475c80 2 154 2 154 2s-2 -334 1 -473c73 -3 117 -4 117 -4c2 162 6 477 6 477c76 0 157 -1 157 -1s-22 -297 -44 -487z" />
    <glyph glyph-name="cid355" unicode="&#x179;" horiz-adv-x="502" 
d="M204 813c-46 39 -99 88 -99 88c85 79 164 157 164 157c51 -56 106 -111 106 -111c-85 -63 -171 -134 -171 -134zM481 594c0 0 -177 -264 -322 -486c0 0 134 9 297 27c0 0 -10 -88 -13 -169c0 0 -171 -2 -360 -2c0 0 -33 78 -58 148c0 0 158 257 301 491
c0 0 -140 -1 -276 -2c0 0 -2 77 -7 182c0 0 161 -5 344 -7c0 0 46 -83 94 -182z" />
    <glyph glyph-name="cid356" unicode="&#x17a;" horiz-adv-x="496" 
d="M224 593c-46 39 -99 88 -99 88c85 79 164 157 164 157c51 -56 106 -111 106 -111c-85 -63 -171 -134 -171 -134zM466 412c0 0 -171 -173 -292 -317c0 0 108 1 272 5c0 0 -7 -84 -14 -141c0 0 -171 3 -356 0c0 0 -31 65 -53 132c0 0 142 159 286 324c0 0 -127 -5 -257 -4
c0 0 -5 88 -4 149c0 0 160 -3 354 0c0 0 39 -75 64 -148z" />
    <glyph glyph-name="cid357" unicode="&#x17b;" horiz-adv-x="502" 
d="M333 993c1 -64 -5 -143 -5 -143c-72 2 -147 2 -147 2c-3 66 -3 143 -3 143c71 0 155 -2 155 -2zM481 594c0 0 -177 -264 -322 -486c0 0 134 9 297 27c0 0 -10 -88 -13 -169c0 0 -171 -2 -360 -2c0 0 -33 78 -58 148c0 0 158 257 301 491c0 0 -140 -1 -276 -2
c0 0 -2 77 -7 182c0 0 161 -5 344 -7c0 0 46 -83 94 -182z" />
    <glyph glyph-name="cid358" unicode="&#x17c;" horiz-adv-x="496" 
d="M321 756c1 -64 -5 -143 -5 -143c-72 2 -147 2 -147 2c-3 66 -3 143 -3 143c71 0 155 -2 155 -2zM466 412c0 0 -171 -173 -292 -317c0 0 108 1 272 5c0 0 -7 -84 -14 -141c0 0 -171 3 -356 0c0 0 -31 65 -53 132c0 0 142 159 286 324c0 0 -127 -5 -257 -4
c0 0 -5 88 -4 149c0 0 160 -3 354 0c0 0 39 -75 64 -148z" />
    <glyph glyph-name="cid359" unicode="&#x17d;" horiz-adv-x="502" 
d="M57 986c37 37 76 75 76 75l116 -152c48 55 127 150 127 150c35 -35 78 -73 78 -73c-88 -89 -169 -167 -169 -167h-82c-60 75 -146 167 -146 167zM481 594c0 0 -177 -264 -322 -486c0 0 134 9 297 27c0 0 -10 -88 -13 -169c0 0 -171 -2 -360 -2c0 0 -33 78 -58 148
c0 0 158 257 301 491c0 0 -140 -1 -276 -2c0 0 -2 77 -7 182c0 0 161 -5 344 -7c0 0 46 -83 94 -182z" />
    <glyph glyph-name="cid360" unicode="&#x17e;" horiz-adv-x="496" 
d="M47 777c37 36 76 74 76 74l116 -151c48 55 127 150 127 150c35 -35 78 -73 78 -73c-88 -89 -169 -167 -169 -167h-82c-60 74 -146 167 -146 167zM466 412c0 0 -171 -173 -292 -317c0 0 108 1 272 5c0 0 -7 -84 -14 -141c0 0 -171 3 -356 0c0 0 -31 65 -53 132
c0 0 142 159 286 324c0 0 -127 -5 -257 -4c0 0 -5 88 -4 149c0 0 160 -3 354 0c0 0 39 -75 64 -148z" />
    <glyph glyph-name="cid361" 
 />
    <glyph glyph-name="cid362" 
 />
    <glyph glyph-name="cid363" 
 />
    <glyph glyph-name="cid364" unicode="&#x192;" horiz-adv-x="631" 
d="M406 527v-92c52 -1 83 -2 140 -2c-6 -85 0 -169 0 -169h-149s-8 -159 -17 -301c0 0 -79 -61 -154 -162c-83 0 -167 -6 -167 -6c-8 83 -11 149 -11 149c61 -4 118 -9 118 -9c33 38 88 79 88 79c6 99 1 249 1 249c-45 -1 -70 -2 -116 -3c-4 78 -17 179 -17 179
c65 -1 140 -3 140 -3c3 39 -2 82 -5 141c62 73 119 168 119 168c92 11 206 27 206 27c1 -96 10 -182 10 -182c-73 -1 -135 -4 -135 -4c-34 -33 -51 -59 -51 -59z" />
    <glyph glyph-name="cid365" 
 />
    <glyph glyph-name="cid366" 
 />
    <glyph glyph-name="cid367" 
 />
    <glyph glyph-name="cid368" 
 />
    <glyph glyph-name="cid369" 
 />
    <glyph glyph-name="cid370" 
 />
    <glyph glyph-name="cid371" 
 />
    <glyph glyph-name="cid372" 
 />
    <glyph glyph-name="cid373" horiz-adv-x="303" 
d="M254 389c-7 -93 -8 -187 -8 -187c-94 2 -192 2 -192 2c1 95 -4 188 -4 188c99 -3 204 -3 204 -3z" />
    <glyph glyph-name="cid374" 
 />
    <glyph glyph-name="cid375" 
 />
    <glyph glyph-name="cid376" 
 />
    <glyph glyph-name="cid377" 
 />
    <glyph glyph-name="cid378" 
 />
    <glyph glyph-name="cid379" 
 />
    <glyph glyph-name="cid380" 
 />
    <glyph glyph-name="cid381" 
 />
    <glyph glyph-name="cid382" 
 />
    <glyph glyph-name="cid383" unicode="&#x1c5;" horiz-adv-x="1009" 
d="M551 777c36 36 75 74 75 74l116 -151c48 55 128 150 128 150c34 -35 77 -73 77 -73c-88 -89 -168 -167 -168 -167h-83c-60 74 -145 167 -145 167zM969 412c0 0 -170 -173 -291 -317c0 0 108 1 272 5c0 0 -7 -84 -15 -141c0 0 -171 3 -355 0c0 0 -32 65 -54 132
c0 0 143 159 287 324c0 0 -127 -5 -258 -4c0 0 -5 88 -4 149c0 0 160 -3 355 0c0 0 39 -75 63 -148zM183 614c7 -272 11 -506 11 -506c68 -2 136 -1 136 -1c17 252 29 510 29 510c-87 2 -176 -3 -176 -3zM455 93c0 0 -58 -63 -117 -125c0 0 -137 -5 -264 -1
c0 0 -13 372 -34 792c0 0 157 19 324 34c0 0 76 -78 147 -166c0 0 -31 -299 -56 -534z" />
    <glyph glyph-name="cid384" unicode="&#x1c6;" horiz-adv-x="953" 
d="M184 70c62 -2 132 -1 132 -1c5 157 4 353 4 353c-65 4 -154 9 -154 9c5 -162 18 -361 18 -361zM174 -52c-66 54 -106 113 -106 113c-22 185 -40 385 -40 385c81 63 140 116 140 116c76 -5 154 -14 154 -14s2 75 -2 240c0 0 69 -3 135 -4c-16 -415 -34 -814 -34 -814
c-120 -12 -247 -22 -247 -22zM491 777c36 36 75 74 75 74l116 -151c48 55 128 150 128 150c34 -35 77 -73 77 -73c-88 -89 -168 -167 -168 -167h-83c-60 74 -145 167 -145 167zM909 412c0 0 -170 -173 -291 -317c0 0 108 1 272 5c0 0 -7 -84 -15 -141c0 0 -171 3 -355 0
c0 0 -32 65 -54 132c0 0 143 159 287 324c0 0 -127 -5 -258 -4c0 0 -5 88 -4 149c0 0 160 -3 355 0c0 0 39 -75 63 -148z" />
    <glyph glyph-name="cid385" 
 />
    <glyph glyph-name="cid386" 
 />
    <glyph glyph-name="cid387" 
 />
    <glyph glyph-name="cid388" 
 />
    <glyph glyph-name="cid389" 
 />
    <glyph glyph-name="cid390" 
 />
    <glyph glyph-name="cid391" 
 />
    <glyph glyph-name="cid392" 
 />
    <glyph glyph-name="cid393" 
 />
    <glyph glyph-name="cid394" 
 />
    <glyph glyph-name="cid395" 
 />
    <glyph glyph-name="cid396" unicode="&#x1f2;" horiz-adv-x="875" 
d="M836 412c0 0 -109 -174 -203 -317c0 0 20 1 184 5c0 0 -7 -84 -14 -141c0 0 -84 3 -268 0c0 0 -32 65 -54 132c0 0 119 175 199 324c0 0 -39 -5 -170 -4c0 0 -5 88 -4 149c0 0 73 -3 267 0c0 0 39 -75 63 -148zM183 614c7 -272 11 -506 11 -506c68 -2 91 -1 91 -1
c17 252 29 510 29 510c-87 2 -131 -3 -131 -3zM410 93c0 0 -58 -63 -117 -125c0 0 -92 -5 -219 -1c0 0 -13 372 -34 792c0 0 112 19 279 34c0 0 76 -78 147 -166c0 0 -31 -299 -56 -534z" />
    <glyph glyph-name="cid397" unicode="&#x1f3;" horiz-adv-x="800" 
d="M763 412c0 0 -109 -174 -203 -317c0 0 20 1 184 5c0 0 -7 -84 -14 -141c0 0 -84 3 -268 0c0 0 -32 65 -54 132c0 0 119 175 199 324c0 0 -39 -5 -170 -4c0 0 -5 88 -4 149c0 0 73 -3 267 0c0 0 39 -75 63 -148zM184 70c62 -2 88 -1 88 -1c5 157 4 353 4 353
c-65 4 -110 9 -110 9c5 -162 18 -361 18 -361zM174 -52c-66 54 -106 113 -106 113c-22 185 -40 385 -40 385c81 63 140 116 140 116c76 -5 110 -14 110 -14s2 75 -2 240c0 0 68 -3 135 -4c-16 -415 -35 -814 -35 -814c-120 -12 -202 -22 -202 -22z" />
    <glyph glyph-name="cid398" 
 />
    <glyph glyph-name="cid399" 
 />
    <glyph glyph-name="cid400" 
 />
    <glyph glyph-name="cid401" 
 />
    <glyph glyph-name="cid402" 
 />
    <glyph glyph-name="cid403" 
 />
    <glyph glyph-name="cid404" 
 />
    <glyph glyph-name="cid405" 
 />
    <glyph glyph-name="cid406" 
 />
    <glyph glyph-name="cid407" 
 />
    <glyph glyph-name="cid408" 
 />
    <glyph glyph-name="cid409" 
 />
    <glyph glyph-name="cid410" 
 />
    <glyph glyph-name="cid411" 
 />
    <glyph glyph-name="cid412" 
 />
    <glyph glyph-name="cid413" 
 />
    <glyph glyph-name="cid414" 
 />
    <glyph glyph-name="cid415" 
 />
    <glyph glyph-name="cid416" 
 />
    <glyph glyph-name="cid417" 
 />
    <glyph glyph-name="cid418" 
 />
    <glyph glyph-name="cid419" 
 />
    <glyph glyph-name="cid420" unicode="&#x21a;" horiz-adv-x="502" 
d="M187 -38c0 0 -3 216 -8 633c0 0 -52 -2 -137 -5c0 0 -6 97 -10 187c233 3 459 6 459 6c-4 -95 -9 -186 -9 -186c-67 1 -145 1 -145 1s-8 -322 -16 -633c0 0 -67 -1 -134 -3zM195 -128c0 0 62 -1 123 -1c0 0 -2 -63 -4 -111c0 0 -17 -24 -41 -71c0 0 -15 7 -36 13
c0 0 9 18 17 44c0 0 -14 4 -53 12c0 0 -3 63 -6 114z" />
    <glyph glyph-name="cid421" unicode="&#x21b;" horiz-adv-x="459" 
d="M399 -42l-163 2s-63 58 -127 113c-4 168 -4 349 -4 349s-24 -1 -58 -1l-6 140c36 -3 64 -3 64 -3c0 41 1 85 -1 131c80 0 147 -5 147 -5c-3 -75 -5 -124 -5 -124h147s-2 -56 -6 -144c0 0 -89 3 -146 5c-1 -188 -4 -337 -4 -337c73 3 158 11 158 11c4 -69 4 -137 4 -137z
M165 -128c0 0 62 -1 123 -1c0 0 -2 -63 -4 -111c0 0 -17 -24 -41 -71c0 0 -15 7 -36 13c0 0 9 18 17 44c0 0 -14 4 -53 12c0 0 -3 63 -6 114z" />
    <glyph glyph-name="cid422" 
 />
    <glyph glyph-name="cid423" 
 />
    <glyph glyph-name="cid424" 
 />
    <glyph glyph-name="cid425" 
 />
    <glyph glyph-name="cid426" 
 />
    <glyph glyph-name="cid427" 
 />
    <glyph glyph-name="cid428" 
 />
    <glyph glyph-name="cid429" 
 />
    <glyph glyph-name="cid430" 
 />
    <glyph glyph-name="cid431" 
 />
    <glyph glyph-name="cid432" 
 />
    <glyph glyph-name="cid433" unicode="&#x2c7;" horiz-adv-x="449" 
d="M27 986c37 37 76 75 76 75l116 -152c48 55 127 150 127 150c35 -35 78 -73 78 -73c-88 -89 -169 -167 -169 -167h-82c-60 75 -146 167 -146 167z" />
    <glyph glyph-name="cid434" 
 />
    <glyph glyph-name="cid435" 
 />
    <glyph glyph-name="cid436" 
 />
    <glyph glyph-name="cid437" 
 />
    <glyph glyph-name="cid438" 
 />
    <glyph glyph-name="cid439" 
 />
    <glyph glyph-name="cid440" 
 />
    <glyph glyph-name="cid441" 
 />
    <glyph glyph-name="cid442" 
 />
    <glyph glyph-name="cid443" 
 />
    <glyph glyph-name="cid444" 
 />
    <glyph glyph-name="cid445" 
 />
    <glyph glyph-name="cid446" 
 />
    <glyph glyph-name="cid447" 
 />
    <glyph glyph-name="cid448" 
 />
    <glyph glyph-name="cid449" 
 />
    <glyph glyph-name="cid450" unicode="&#x2d8;" horiz-adv-x="502" 
d="M475 903c0 0 -70 -33 -152 -75c0 0 -97 1 -174 4c0 0 -66 44 -124 87c0 0 36 45 76 92c0 0 26 -22 86 -59c0 0 54 -1 115 -2c0 0 45 35 92 69c0 0 36 -54 81 -116z" />
    <glyph glyph-name="cid451" unicode="&#x2d9;" horiz-adv-x="283" 
d="M217 993c1 -64 -5 -143 -5 -143c-73 2 -148 2 -148 2c-2 66 -3 143 -3 143c72 0 156 -2 156 -2z" />
    <glyph glyph-name="cid452" 
 />
    <glyph glyph-name="cid453" unicode="&#x2db;" horiz-adv-x="252" 
d="M77 -37h96c-37 -56 -54 -81 -54 -81c12 -14 23 -25 23 -25c20 17 39 35 39 35c19 -23 36 -44 36 -44c-46 -32 -84 -55 -84 -55c-48 39 -98 82 -98 82c21 40 42 88 42 88z" />
    <glyph glyph-name="cid454" unicode="&#x2dc;" horiz-adv-x="515" 
d="M22 937c0 0 90 54 175 110c0 0 59 -62 110 -110c0 0 61 32 122 81c0 0 28 -50 60 -99c0 0 -97 -49 -182 -99c0 0 -61 50 -116 102c0 0 -42 -40 -95 -82c-1 1 -40 54 -74 97z" />
    <glyph glyph-name="cid455" 
 />
    <glyph glyph-name="cid456" 
 />
    <glyph glyph-name="cid457" 
 />
    <glyph glyph-name="cid458" unicode="&#x37e;" horiz-adv-x="376" 
d="M94 129c0 0 103 -2 204 -2c0 0 -4 -106 -7 -185c0 0 -40 -80 -68 -147c0 0 -37 8 -79 21c0 0 16 55 27 113c0 0 -3 -2 -68 10c0 0 -6 105 -9 190zM82 562c0 0 110 -2 219 -2c0 0 -4 -116 -7 -205c0 0 -108 -1 -203 -4c0 0 -5 117 -9 211z" />
    <glyph glyph-name="cid459" unicode="&#x384;" horiz-adv-x="353" 
d="M235 825c-48 1 -104 -1 -104 -1c-7 86 -11 166 -11 166c60 4 121 6 121 6c-2 -93 -6 -171 -6 -171z" />
    <glyph glyph-name="cid460" unicode="&#x385;" horiz-adv-x="353" 
d="M235 825c-48 1 -104 -1 -104 -1c-7 86 -11 166 -11 166c60 4 121 6 121 6c-2 -93 -6 -171 -6 -171zM144 777c-1 -70 -4 -134 -4 -134c-55 -2 -123 1 -123 1c-1 67 -3 135 -3 135c69 1 130 -2 130 -2zM353 777c0 -72 -4 -134 -4 -134c-57 -3 -123 1 -123 1
c0 69 -3 135 -3 135c66 1 130 -2 130 -2z" />
    <glyph glyph-name="cid461" unicode="&#x386;" horiz-adv-x="690" 
d="M200 697c-48 1 -104 -1 -104 -1c-7 86 -11 166 -11 166c60 4 121 6 121 6c-2 -93 -6 -171 -6 -171zM486 -25c0 0 -11 65 -38 147c-104 -2 -219 -5 -219 -5c-11 -46 -21 -93 -30 -139h-162s114 409 207 788c0 0 97 1 201 7c0 0 100 -400 210 -786c0 0 -77 -10 -169 -12z
M427 246c-29 167 -49 240 -79 341c0 0 -38 -137 -87 -336c90 -4 166 -5 166 -5z" />
    <glyph glyph-name="cid462" unicode="&#x387;" horiz-adv-x="303" 
d="M253 389c-6 -93 -7 -187 -7 -187c-94 2 -192 2 -192 2c1 95 -4 188 -4 188c100 -3 203 -3 203 -3z" />
    <glyph glyph-name="cid463" unicode="&#x388;" horiz-adv-x="589" 
d="M127 697c-47 1 -103 -1 -103 -1c-8 86 -12 166 -12 166c60 4 121 6 121 6c-2 -93 -6 -171 -6 -171zM507 385c3 -74 6 -147 6 -147c-115 -7 -204 -12 -204 -12s2 -77 5 -118c0 0 110 4 243 14c0 0 -2 -81 -4 -158c-184 -4 -356 -1 -356 -1s-16 372 -48 810
c187 4 414 7 414 7s-4 -87 -10 -172c0 0 -144 7 -256 14c2 -141 7 -266 7 -266s86 11 203 29z" />
    <glyph glyph-name="cid464" unicode="&#x389;" horiz-adv-x="653" 
d="M589 -41c-78 2 -130 3 -130 3c0 111 -1 235 -1 235s-73 1 -136 1c0 0 2 -110 0 -232c-68 -2 -129 -2 -129 -2c-14 338 -29 808 -29 808c92 3 170 4 170 4c-9 -228 -11 -454 -11 -454s56 3 137 7c0 0 -4 201 -4 449c90 0 171 -3 171 -3c-25 -485 -38 -816 -38 -816z
M136 697c-47 1 -103 -1 -103 -1c-7 86 -11 166 -11 166c60 4 121 6 121 6c-2 -93 -7 -171 -7 -171z" />
    <glyph glyph-name="cid465" unicode="&#x38a;" horiz-adv-x="366" 
d="M136 697c-47 1 -103 -1 -103 -1c-7 86 -11 166 -11 166c60 4 121 6 121 6c-2 -93 -7 -171 -7 -171zM323 -34c0 0 -72 1 -146 0c0 0 -5 412 -16 815c0 0 80 0 178 2c0 0 -16 -434 -16 -817z" />
    <glyph glyph-name="cid466" 
 />
    <glyph glyph-name="cid467" unicode="&#x38c;" horiz-adv-x="600" 
d="M252 605c0 0 5 -288 7 -500c0 0 36 -1 138 -3c0 0 12 269 10 499c0 0 -68 6 -155 4zM528 96c0 0 -57 -66 -121 -143c0 0 -36 1 -153 5c0 0 -68 62 -136 147c0 0 -3 229 -13 508c0 0 55 87 132 169c0 0 71 -3 193 0c0 0 67 -85 132 -181c0 0 -23 -268 -34 -505zM136 697
c-47 1 -103 -1 -103 -1c-7 86 -11 166 -11 166c60 4 121 6 121 6c-2 -93 -7 -171 -7 -171z" />
    <glyph glyph-name="cid468" 
 />
    <glyph glyph-name="cid469" unicode="&#x38e;" horiz-adv-x="685" 
d="M131 697c-47 1 -103 -1 -103 -1c-7 86 -11 166 -11 166c60 4 121 6 121 6c-2 -93 -7 -171 -7 -171zM491 165c-5 -110 -5 -206 -5 -206c-62 1 -168 0 -168 0c4 113 -1 212 -1 212s-79 317 -164 614c0 0 91 1 162 6c0 0 59 -268 96 -452c0 0 54 252 103 453
c0 0 75 -2 147 -3c0 0 -105 -389 -170 -624z" />
    <glyph glyph-name="cid470" unicode="&#x38f;" horiz-adv-x="718" 
d="M130 697c-47 1 -103 -1 -103 -1c-7 86 -11 166 -11 166c60 4 121 6 121 6c-2 -93 -7 -171 -7 -171zM668 116c0 0 -4 -90 -12 -145c0 0 -154 3 -252 7c0 0 -7 77 -16 139l147 214c-15 101 -61 301 -61 301s-98 3 -220 2c0 0 -42 -132 -73 -308c0 0 75 -113 144 -208
c-5 -61 -9 -142 -9 -142c-112 -1 -253 -4 -253 -4c-9 86 -12 139 -12 139c92 0 144 1 144 1c-77 76 -169 197 -169 197l69 344s87 72 165 134c0 0 98 1 210 1c0 0 80 -69 163 -145c0 0 18 -141 58 -338c0 0 -82 -117 -165 -192c0 0 72 1 142 3z" />
    <glyph glyph-name="cid471" unicode="&#x390;" horiz-adv-x="413" 
d="M255 825c-48 1 -104 -1 -104 -1c-7 86 -11 166 -11 166c60 4 121 6 121 6c-2 -93 -6 -171 -6 -171zM164 777c-1 -70 -4 -134 -4 -134c-55 -2 -123 1 -123 1c-1 67 -3 135 -3 135c69 1 130 -2 130 -2zM373 777c0 -72 -4 -134 -4 -134c-57 -3 -123 1 -123 1
c0 69 -3 135 -3 135c66 1 130 -2 130 -2zM399 -37l-132 2c-58 51 -137 112 -137 112c0 212 -5 500 -5 500h155s-7 -291 -2 -486c0 0 33 -2 118 1c0 0 3 -69 3 -129z" />
    <glyph glyph-name="cid472" unicode="&#x3aa;" horiz-adv-x="372" 
d="M145 990c0 -72 -5 -134 -5 -134c-60 2 -122 2 -122 2c-1 65 -3 135 -3 135c66 -4 130 -3 130 -3zM354 990c-2 -65 -5 -134 -5 -134c-60 2 -122 2 -122 2c-2 61 -3 135 -3 135c71 -4 130 -3 130 -3zM246 -39c-69 -1 -121 -1 -121 -1s-2 418 -11 820h153s-11 -392 -21 -819
z" />
    <glyph glyph-name="cid473" unicode="&#x3ab;" horiz-adv-x="545" 
d="M235 990c0 -72 -5 -134 -5 -134c-60 2 -122 2 -122 2c-1 65 -3 135 -3 135c66 -4 130 -3 130 -3zM444 990c-2 -65 -5 -134 -5 -134c-60 2 -122 2 -122 2c-2 61 -3 135 -3 135c71 -4 130 -3 130 -3zM342 165c-5 -110 -5 -206 -5 -206c-62 1 -148 0 -148 0
c4 113 -1 212 -1 212s-79 317 -165 614c0 0 82 1 153 6c0 0 59 -268 96 -452c0 0 54 252 103 453c0 0 65 -2 137 -3c0 0 -105 -389 -170 -624z" />
    <glyph glyph-name="cid474" unicode="&#x3ac;" horiz-adv-x="625" 
d="M387 625c-47 1 -103 -1 -103 -1c-8 86 -12 166 -12 166c60 4 121 6 121 6c-2 -93 -6 -171 -6 -171zM515 510l102 -94c-94 -103 -187 -210 -187 -210s58 -72 58 -73c0 0 45 -9 98 -14l-31 -138c-51 10 -116 29 -116 29c-37 43 -79 90 -79 90s-165 -111 -216 -143
c0 0 -55 44 -110 98c-2 195 -12 387 -12 387c72 76 126 126 126 126c92 -17 192 -42 192 -42c27 -94 51 -184 51 -184c66 84 124 168 124 168zM159 111c65 53 147 123 147 123c-29 97 -58 165 -58 165c-45 12 -97 26 -97 26c3 -139 8 -314 8 -314z" />
    <glyph glyph-name="cid475" unicode="&#x3ad;" horiz-adv-x="513" 
d="M305 625c-48 1 -104 -1 -104 -1c-7 86 -11 166 -11 166c60 4 121 6 121 6c-2 -93 -6 -171 -6 -171zM407 366c-52 56 -102 80 -102 80c-135 -1 -128 -6 -128 -6c-3 -64 -4 -106 -4 -106c82 0 148 2 148 2c2 -55 0 -137 0 -137c-64 0 -147 6 -147 6c-5 -91 -7 -111 -7 -111
c136 -12 138 -11 138 -11c47 42 111 87 111 87c43 -66 66 -129 66 -129c-65 -50 -144 -88 -144 -88c-134 6 -184 20 -184 20c-64 61 -119 126 -119 126c-2 73 3 109 3 109c45 32 85 62 85 62c-42 27 -93 73 -93 73c4 71 10 122 10 122c58 47 132 112 132 112
c127 5 174 12 174 12c69 -53 145 -97 145 -97c-37 -65 -84 -126 -84 -126z" />
    <glyph glyph-name="cid476" unicode="&#x3ae;" horiz-adv-x="553" 
d="M335 625c-48 1 -104 -1 -104 -1c-7 86 -11 166 -11 166c60 4 121 6 121 6c-2 -93 -6 -171 -6 -171zM154 517c0 0 31 28 65 60c0 0 90 -2 161 -1c0 0 76 -52 145 -120c-7 -277 -2 -691 -2 -691s-73 -1 -158 2c0 0 7 472 8 663c0 0 -63 0 -140 -1c0 0 -2 -266 0 -471
c0 0 -79 1 -158 5c11 217 12 492 12 492c-27 6 -66 20 -66 20c-1 47 0 104 0 104c63 -5 111 -5 111 -5c11 -28 22 -57 22 -57z" />
    <glyph glyph-name="cid477" unicode="&#x3af;" horiz-adv-x="330" 
d="M167 625c-47 1 -103 -1 -103 -1c-8 86 -12 166 -12 166c60 4 121 6 121 6c-2 -93 -6 -171 -6 -171zM311 -37l-132 2c-58 51 -137 112 -137 112c0 212 -4 500 -4 500h155s-7 -291 -2 -486c0 0 32 -2 117 1c0 0 3 -69 3 -129z" />
    <glyph glyph-name="cid478" unicode="&#x3b0;" horiz-adv-x="492" 
d="M305 825c-48 1 -104 -1 -104 -1c-7 86 -11 166 -11 166c60 4 121 6 121 6c-2 -93 -6 -171 -6 -171zM214 777c-1 -70 -4 -134 -4 -134c-55 -2 -123 1 -123 1c-1 67 -3 135 -3 135c69 1 130 -2 130 -2zM423 777c0 -72 -4 -134 -4 -134c-57 -3 -123 1 -123 1
c0 69 -3 135 -3 135c66 1 130 -2 130 -2zM34 569c49 2 143 2 143 2c0 -233 2 -483 2 -483c55 0 135 4 135 4c1 212 -3 479 -3 479c41 -1 147 0 147 0c-6 -275 -5 -485 -5 -485c-63 -64 -131 -130 -131 -130c-56 -1 -134 2 -134 2c-74 57 -151 126 -151 126s-3 279 -3 485z
" />
    <glyph glyph-name="cid479" unicode="&#x3c2;" horiz-adv-x="531" 
d="M194 -33c0 0 -73 54 -135 104c0 0 -7 156 -22 352c0 0 62 62 131 123c0 0 84 13 204 27c0 0 70 -58 150 -126c0 0 -53 -49 -110 -103c0 0 -36 38 -83 85c0 0 -64 -10 -146 -25c0 0 4 -147 13 -306c0 0 70 5 148 15c0 0 68 -66 145 -134c1 2 -35 -108 -60 -175
c-1 0 -97 -27 -183 -47l-79 122s87 5 152 11c0 0 5 28 15 80c0 0 -76 0 -140 -3z" />
    <glyph glyph-name="cid480" unicode="&#x3ca;" horiz-adv-x="413" 
d="M165 763c0 -72 -5 -134 -5 -134c-60 1 -122 1 -122 1c-1 66 -3 135 -3 135c66 -3 130 -2 130 -2zM374 763c-2 -65 -5 -134 -5 -134c-60 1 -122 1 -122 1c-2 62 -3 135 -3 135c71 -3 130 -2 130 -2zM399 -37l-132 2c-58 51 -137 112 -137 112c0 212 -5 500 -5 500h155
s-7 -291 -2 -486c0 0 33 -2 118 1c0 0 3 -69 3 -129z" />
    <glyph glyph-name="cid481" unicode="&#x3cb;" horiz-adv-x="489" 
d="M205 763c0 -72 -5 -134 -5 -134c-60 1 -122 1 -122 1c-1 66 -3 135 -3 135c66 -3 130 -2 130 -2zM414 763c-2 -65 -5 -134 -5 -134c-60 1 -122 1 -122 1c-2 62 -3 135 -3 135c71 -3 130 -2 130 -2zM34 569c49 2 143 2 143 2c0 -233 2 -483 2 -483c55 0 135 4 135 4
c1 212 -3 479 -3 479c41 -1 147 0 147 0c-6 -275 -5 -485 -5 -485c-63 -64 -131 -130 -131 -130c-56 -1 -134 2 -134 2c-74 57 -151 126 -151 126s-3 279 -3 485z" />
    <glyph glyph-name="cid482" unicode="&#x3cc;" horiz-adv-x="459" 
d="M285 625c-48 1 -104 -1 -104 -1c-7 86 -11 166 -11 166c60 4 121 6 121 6c-2 -93 -6 -171 -6 -171zM171 436c0 0 4 -181 8 -370c0 0 60 -5 115 -6c0 0 5 173 11 377c0 0 -80 1 -134 -1zM419 53c0 0 -63 -48 -126 -97h-116c0 0 -64 44 -128 104c0 0 -11 175 -18 383
c0 0 59 64 116 117c0 0 70 5 163 11c0 0 71 -61 131 -130c-18 -189 -17 -393 -22 -388z" />
    <glyph glyph-name="cid483" unicode="&#x3cd;" horiz-adv-x="475" 
d="M284 625c-47 1 -103 -1 -103 -1c-7 86 -11 166 -11 166c60 4 121 6 121 6c-2 -93 -7 -171 -7 -171zM24 559c49 2 143 2 143 2c0 -233 2 -473 2 -473c55 0 135 4 135 4c1 212 -3 469 -3 469c40 -1 147 0 147 0c-7 -275 -6 -475 -6 -475c-62 -64 -130 -130 -130 -130
c-56 -1 -134 2 -134 2c-74 57 -151 126 -151 126s-3 269 -3 475z" />
    <glyph glyph-name="cid484" unicode="&#x3ce;" horiz-adv-x="828" 
d="M457 625c-47 1 -103 -1 -103 -1c-8 86 -12 166 -12 166c60 4 121 6 121 6c-2 -93 -6 -171 -6 -171zM291 481c-64 -59 -114 -116 -114 -116c1 -154 7 -260 7 -260c73 -4 155 -4 155 -4c0 93 -2 225 -2 225c62 2 144 0 144 0c0 -74 -6 -225 -6 -225c104 -6 161 -7 161 -7
c13 154 11 271 11 271c-48 53 -121 126 -121 126c75 49 146 75 146 75c58 -74 113 -164 113 -164c-7 -153 -22 -324 -22 -324c-70 -73 -134 -123 -134 -123c-83 -2 -158 4 -158 4c-36 50 -71 84 -71 84c-30 -47 -71 -93 -71 -93c-82 4 -174 11 -174 11
c-53 65 -104 138 -104 138c-6 145 -15 312 -15 312c61 79 112 166 112 166c73 -43 143 -96 143 -96z" />
    <glyph glyph-name="cid485" 
 />
    <glyph glyph-name="cid486" unicode="&#x401;" horiz-adv-x="468" 
d="M195 990c0 -72 -5 -134 -5 -134c-60 2 -122 2 -122 2c-1 65 -3 135 -3 135c66 -4 130 -3 130 -3zM404 990c-2 -65 -5 -134 -5 -134c-60 2 -122 2 -122 2c-2 61 -3 135 -3 135c71 -4 130 -3 130 -3zM386 385c3 -74 6 -147 6 -147c-115 -7 -204 -12 -204 -12s2 -77 5 -118
c0 0 110 4 243 14c0 0 -2 -81 -4 -158c-184 -4 -356 -1 -356 -1s-16 372 -48 810c187 4 414 7 414 7s-4 -87 -9 -172c0 0 -145 7 -257 14c2 -141 7 -266 7 -266s86 11 203 29z" />
    <glyph glyph-name="cid487" unicode="&#x451;" horiz-adv-x="482" 
d="M205 763c0 -72 -5 -134 -5 -134c-60 1 -122 1 -122 1c-1 66 -3 135 -3 135c66 -3 130 -2 130 -2zM414 763c-2 -65 -5 -134 -5 -134c-60 1 -122 1 -122 1c-2 62 -3 135 -3 135c71 -3 130 -2 130 -2zM171 322l150 15c5 47 7 94 7 94c-107 -2 -158 -4 -158 -4
c-1 -53 1 -105 1 -105zM431 65c-45 -58 -102 -106 -102 -106c-99 -8 -155 -11 -155 -11l-126 111l-19 363c58 77 120 142 120 142c113 -4 192 -8 192 -8c59 -54 126 -120 126 -120c-17 -86 -34 -195 -34 -195c-155 -8 -258 -14 -258 -14s2 -78 2 -153c82 0 128 7 128 7
l-6 84c68 7 140 8 140 8c-5 -73 -8 -108 -8 -108z" />
    <glyph glyph-name="cid488" 
 />
    <glyph glyph-name="cid489" 
 />
    <glyph glyph-name="cid490" 
 />
    <glyph glyph-name="cid491" 
 />
    <glyph glyph-name="cid492" 
 />
    <glyph glyph-name="cid493" 
 />
    <glyph glyph-name="cid494" 
 />
    <glyph glyph-name="cid495" unicode="&#xff66;" horiz-adv-x="435" 
d="M319 747c42 -58 97 -140 97 -140c-48 -252 -90 -513 -90 -513c-87 -82 -192 -175 -192 -175c-39 66 -71 123 -71 123c87 62 175 127 175 127c13 94 27 199 27 199s-109 -7 -226 -12c-3 65 -6 141 -6 141c123 5 249 3 249 3s5 47 9 98c-97 -2 -262 -10 -262 -10
c-5 67 -5 156 -5 156c132 7 295 3 295 3z" />
    <glyph glyph-name="cid496" unicode="&#xff67;" horiz-adv-x="402" 
d="M225 362c0 0 -22 -137 -37 -265c0 0 -37 -88 -62 -150c0 0 -62 30 -84 54c0 0 30 61 54 115c0 2 11 117 26 257c0 0 67 0 103 -11zM321 569c29 -49 65 -118 65 -118c-45 -117 -74 -222 -74 -222c-35 33 -79 61 -79 61c31 84 45 142 45 142c-131 -11 -245 -21 -245 -21
c-4 63 -8 152 -8 152c145 3 296 6 296 6z" />
    <glyph glyph-name="cid497" unicode="&#xff68;" horiz-adv-x="360" 
d="M243 398c4 -199 11 -443 11 -443c-46 -3 -104 -2 -104 -2c5 174 10 332 10 332c-40 -64 -59 -98 -59 -98c-35 49 -75 96 -75 96c125 168 233 320 233 320c29 -36 72 -79 72 -79c-50 -70 -88 -126 -88 -126z" />
    <glyph glyph-name="cid498" unicode="&#xff69;" horiz-adv-x="381" 
d="M369 386c-28 -185 -66 -373 -66 -373c-33 -34 -83 -74 -83 -74c-60 7 -128 14 -128 14c6 59 13 132 13 132c58 -12 121 -23 121 -23c20 156 41 307 41 307c-76 -2 -156 -9 -156 -9c3 -39 6 -71 6 -71c-47 -6 -89 -8 -89 -8v217s53 -1 105 -2c-2 55 -7 122 -7 122
c51 2 101 2 101 2s-2 -67 -5 -121c30 -2 78 -2 78 -2c31 -47 69 -111 69 -111z" />
    <glyph glyph-name="cid499" unicode="&#xff6a;" horiz-adv-x="334" 
d="M311 94c-4 -77 -2 -148 -2 -148s-153 -3 -278 -3c-4 76 -5 154 -5 154c54 -2 102 -3 102 -3c-1 140 -3 292 -3 292c-51 0 -86 -1 -86 -1l-6 137c157 0 277 2 277 2c-3 -71 -7 -139 -7 -139c-29 1 -62 1 -88 1c0 0 -3 -139 -3 -292h99z" />
    <glyph glyph-name="cid500" unicode="&#xff6b;" horiz-adv-x="370" 
d="M355 380c0 0 -27 3 -61 5c0 0 -2 -211 -5 -439c0 0 -45 -4 -87 0c0 0 6 128 10 263c-27 -116 -47 -185 -47 -185c-32 -37 -73 -79 -73 -79c-33 58 -61 120 -61 120c40 24 66 44 66 44s47 134 86 268c-79 -3 -154 -7 -154 -7c-2 63 -3 141 -3 141s95 -4 172 -6
c0 0 2 44 0 98c0 0 50 2 102 1c0 0 -1 -60 -1 -102c31 -1 59 -1 59 -1c0 -49 -3 -121 -3 -121z" />
    <glyph glyph-name="cid501" unicode="&#xff6c;" horiz-adv-x="384" 
d="M213 270c0 0 23 49 49 102c0 0 -38 -11 -93 -29c14 -172 34 -383 33 -382c0 0 -48 -8 -91 -17c0 0 -19 192 -35 373c-18 -8 -45 -17 -45 -17s-9 86 -17 160c0 0 28 5 54 11c0 0 -4 62 -10 132c0 0 53 5 97 10c0 0 4 -65 7 -126c40 9 154 32 154 32s23 -67 52 -138
c0 0 -51 -102 -85 -175c0 0 -40 34 -70 64z" />
    <glyph glyph-name="cid502" unicode="&#xff6d;" horiz-adv-x="372" 
d="M343 4c-123 -2 -318 -1 -318 -1c-1 69 -3 146 -3 146c76 -5 146 -9 146 -9c11 176 17 268 17 268c-74 -3 -141 -10 -141 -10c-2 71 -4 168 -4 168c80 3 159 5 159 5c40 -59 98 -144 98 -144s-23 -205 -30 -291c44 -3 81 -3 81 -3c-2 -61 -5 -129 -5 -129z" />
    <glyph glyph-name="cid503" unicode="&#xff6e;" horiz-adv-x="362" 
d="M342 420c0 0 -13 -146 -24 -346c0 0 -53 -74 -89 -121c0 0 -91 1 -185 4c0 0 -3 79 -3 133c0 0 99 -3 186 -5c0 0 3 30 5 93c-87 2 -190 1 -190 1c-3 57 -3 134 -3 134s106 -3 198 -6c6 74 7 100 7 100s-102 -4 -210 -11c0 0 -3 87 -6 150c0 0 126 3 227 1
c0 0 52 -72 87 -127z" />
    <glyph glyph-name="cid504" unicode="&#xff6f;" horiz-adv-x="416" 
d="M237 540c0 0 -2 -93 -1 -185c0 0 -48 -3 -79 -7c0 0 -7 90 -16 182c0 0 48 6 96 10zM392 514c0 0 -46 -225 -91 -418c0 0 -53 -75 -117 -157c0 0 -34 53 -60 101c0 0 54 60 92 111c0 0 37 162 72 394c0 0 50 -14 104 -31zM118 532c0 0 7 -92 16 -181c0 0 -45 -9 -78 -14
c0 0 -13 74 -30 179c0 0 54 8 92 16z" />
    <glyph glyph-name="cid505" unicode="&#xff70;" horiz-adv-x="467" 
d="M61 418l337 -6c-4 -89 -7 -145 -7 -145c-164 2 -322 -4 -322 -4c-4 82 -8 155 -8 155z" />
    <glyph glyph-name="cid506" unicode="&#xff71;" horiz-adv-x="467" 
d="M257 473c0 0 -27 -174 -46 -336c0 0 -47 -110 -80 -188c0 0 -60 37 -87 67c0 0 37 78 68 145c0 3 14 148 33 325c0 0 67 0 112 -13zM387 734c36 -62 73 -136 73 -136c-56 -149 -102 -294 -102 -294c-44 42 -90 77 -90 77c39 106 65 193 65 193
c-165 -15 -310 -28 -310 -28c-5 80 -10 181 -10 181c184 3 374 7 374 7z" />
    <glyph glyph-name="cid507" unicode="&#xff72;" horiz-adv-x="420" 
d="M286 511c5 -248 14 -554 14 -554c-58 -3 -122 -2 -122 -2c8 218 14 415 14 415c-51 -80 -75 -122 -75 -122c-44 61 -94 120 -94 120c158 210 291 399 291 399c37 -44 82 -99 82 -99c-62 -87 -110 -157 -110 -157z" />
    <glyph glyph-name="cid508" unicode="&#xff73;" horiz-adv-x="459" 
d="M444 519c-35 -231 -83 -467 -83 -467c-41 -43 -95 -92 -95 -92c-74 8 -159 17 -159 17c7 74 15 165 15 165c73 -15 152 -28 152 -28c25 195 51 384 51 384c-95 -3 -195 -12 -195 -12c4 -48 7 -89 7 -89c-59 -7 -111 -9 -111 -9v246s67 -1 131 -3c-2 69 -8 153 -8 153
c63 2 126 2 126 2s-3 -84 -6 -151c38 -2 89 -3 89 -3c39 -58 86 -113 86 -113z" />
    <glyph glyph-name="cid509" unicode="&#xff74;" horiz-adv-x="390" 
d="M362 154c-5 -97 -2 -186 -2 -186s-174 -3 -330 -3c-6 95 -6 193 -6 193c68 -3 127 -4 127 -4c0 175 -4 364 -4 364c-64 0 -107 -1 -107 -1l-8 172c197 0 329 2 329 2c-4 -88 -9 -174 -9 -174c-35 1 -77 1 -109 1c0 0 -4 -173 -4 -364h123z" />
    <glyph glyph-name="cid510" unicode="&#xff75;" horiz-adv-x="463" 
d="M435 481c0 0 -34 4 -76 6c0 0 -2 -263 -7 -548c0 0 -47 -5 -99 -1c0 0 6 161 12 329c-34 -144 -59 -231 -59 -231c-39 -46 -90 -99 -90 -99c-42 73 -77 150 -77 150c49 31 82 56 82 56s60 167 108 334c-99 -3 -193 -9 -193 -9c-2 80 -4 165 -4 165s119 -6 215 -8
c0 0 3 55 1 123c0 0 54 2 118 0c0 0 -1 -74 -1 -126c38 -2 73 -2 73 -2c1 -61 -3 -139 -3 -139z" />
    <glyph glyph-name="cid511" unicode="&#xff76;" horiz-adv-x="435" 
d="M407 474c-8 -260 -20 -538 -20 -538c-58 2 -120 14 -120 14c23 241 44 472 44 472s-49 -6 -101 -15c-17 -191 -42 -443 -42 -443s-51 2 -102 13c0 0 27 230 38 421c-30 -9 -72 -17 -72 -17c-7 82 -12 167 -12 167c46 1 91 6 91 6c3 91 3 193 3 193s60 1 116 -2
c0 0 -6 -102 -12 -187c51 3 113 4 113 4c36 -42 76 -88 76 -88z" />
    <glyph glyph-name="cid512" unicode="&#xff77;" horiz-adv-x="434" 
d="M251 504c3 -27 3 -40 7 -73c67 14 136 30 136 30c6 -73 10 -143 10 -143c-70 -17 -136 -31 -136 -31s9 -116 23 -321c0 0 -45 -7 -95 -13c0 0 -14 154 -32 320c-53 -15 -118 -29 -118 -29c-5 74 -11 152 -11 152c64 10 115 20 115 20c0 25 -3 42 -5 65
c-57 -7 -112 -16 -112 -16c-9 74 -14 149 -14 149c55 5 119 16 119 16s-5 53 -15 110c0 0 59 13 115 20c0 0 4 -64 8 -117c65 11 134 27 134 27c6 -62 12 -141 12 -141c-84 -14 -141 -25 -141 -25z" />
    <glyph glyph-name="cid513" unicode="&#xff78;" horiz-adv-x="435" 
d="M341 710c36 -68 67 -126 67 -126c-63 -266 -134 -541 -134 -541c-59 -42 -141 -88 -141 -88c-25 80 -37 150 -37 150c61 20 109 52 109 52c50 209 95 402 95 402c-60 15 -125 26 -125 26c-20 -91 -41 -183 -41 -183c-56 22 -113 51 -113 51c42 159 80 295 80 295
c107 -19 240 -38 240 -38z" />
    <glyph glyph-name="cid514" unicode="&#xff79;" horiz-adv-x="429" 
d="M407 510c0 0 -26 3 -51 5c-10 -186 -24 -420 -24 -420c-77 -80 -161 -154 -161 -154c-36 60 -69 124 -70 127c70 56 124 102 124 102s14 163 25 350c-41 0 -87 2 -87 2s-10 -85 -17 -159c0 0 -64 12 -121 28c0 0 31 228 53 411c0 0 54 -7 111 -15c0 0 -8 -85 -12 -137
c0 0 120 4 233 12c0 0 -2 -70 -3 -152z" />
    <glyph glyph-name="cid515" unicode="&#xff7a;" horiz-adv-x="421" 
d="M310 692c46 -81 92 -158 92 -158c-10 -209 -16 -409 -16 -409l-62 -132c-138 -3 -295 3 -295 3c-3 83 -1 160 -1 160c147 -8 249 -7 249 -7c7 187 6 362 6 362h-226c-4 92 -5 172 -5 172c126 7 258 9 258 9z" />
    <glyph glyph-name="cid516" unicode="&#xff7b;" horiz-adv-x="485" 
d="M456 498c0 0 -47 -6 -73 -6c0 0 -21 -219 -38 -391c0 0 -37 -76 -81 -165c0 0 -42 51 -85 100c0 0 43 61 78 118c0 0 15 145 26 342c0 0 -47 -2 -87 -4c-1 -87 -1 -149 -1 -149s-44 -9 -90 -12c0 0 -3 58 -8 152c-31 -2 -68 -6 -70 -6c-7 79 -10 158 -10 158
c45 4 71 4 71 4c-1 56 -3 133 -3 134c0 0 53 4 113 7c0 -1 0 -85 -2 -141c0 0 41 1 93 3c0 0 2 72 5 139c0 0 57 -1 116 -6c0 0 -7 -89 -11 -139c30 -2 67 4 67 4c-4 -77 -10 -142 -10 -142z" />
    <glyph glyph-name="cid517" unicode="&#xff7c;" horiz-adv-x="472" 
d="M347 726c0 0 58 -19 108 -43c0 0 -68 -313 -128 -618c0 0 -133 -66 -255 -127c0 0 -24 98 -40 191c0 0 116 30 207 57c0 0 53 264 108 540zM67 549c84 -56 170 -117 170 -117c-19 -58 -41 -118 -41 -118c-90 51 -178 97 -178 97c25 76 49 138 49 138zM83 741
c103 -70 182 -130 182 -130c-19 -63 -38 -121 -38 -121c-86 52 -192 125 -192 125c25 65 48 126 48 126z" />
    <glyph glyph-name="cid518" unicode="&#xff7d;" horiz-adv-x="482" 
d="M281 727c56 -84 101 -164 101 -164c-45 -170 -81 -283 -81 -283c74 -113 158 -234 158 -234c-47 -50 -102 -108 -102 -108c-57 115 -113 219 -113 218c-66 -100 -143 -216 -143 -216c-43 56 -77 105 -77 105c85 117 170 246 170 246c33 132 64 261 64 261
c-105 -9 -224 -23 -224 -23c-2 100 -2 196 -2 196c121 2 249 2 249 2z" />
    <glyph glyph-name="cid519" unicode="&#xff7e;" horiz-adv-x="430" 
d="M402 107c0 0 -2 -77 -1 -149c0 0 -134 -4 -248 -1c0 0 -42 59 -80 115c0 0 6 185 12 363c-24 -4 -60 -12 -60 -12c-4 79 -6 164 -6 164c38 -2 66 0 66 0s4 90 5 173c0 0 61 3 129 3c0 0 -5 -109 -8 -165c69 2 132 2 132 2c35 -48 72 -120 72 -120
c-27 -80 -59 -186 -59 -186c-55 34 -109 70 -109 70c28 54 52 94 52 94c-46 -7 -101 -16 -101 -16c-11 -207 -19 -353 -19 -353s113 9 223 18z" />
    <glyph glyph-name="cid520" unicode="&#xff7f;" horiz-adv-x="452" 
d="M427 704c0 0 -38 -303 -77 -573c0 0 -87 -109 -165 -202c0 0 -44 66 -86 126c0 0 88 83 142 129c0 0 30 227 65 545c58 -11 120 -25 121 -25zM155 723c0 0 25 -160 50 -321c0 0 -53 -20 -109 -42c0 0 -26 144 -64 325c0 0 63 23 123 38z" />
    <glyph glyph-name="cid521" unicode="&#xff80;" horiz-adv-x="455" 
d="M295 493c9 51 24 94 24 94s-42 11 -102 17c0 0 -11 -37 -25 -90c61 -9 103 -21 103 -21zM433 590c0 0 -65 -259 -124 -498c0 0 -54 -95 -113 -172c0 0 -45 56 -84 112c0 0 54 67 96 117c0 0 35 116 55 227c-71 18 -96 21 -96 21c-12 -47 -26 -88 -26 -88s-58 8 -107 25
c0 0 57 218 98 412c0 0 119 -6 222 -14c0 0 39 -76 79 -142z" />
    <glyph glyph-name="cid522" unicode="&#xff81;" horiz-adv-x="409" 
d="M384 337c-65 3 -118 6 -118 6c5 -109 10 -214 10 -214c-47 -95 -112 -196 -112 -196c-47 67 -91 140 -89 139c52 47 88 87 88 87c0 94 -3 189 -3 189c-70 3 -133 6 -133 6c-2 54 -4 138 -4 138c74 -1 134 -2 134 -2c0 44 -2 92 -2 92c-40 -9 -79 -17 -79 -17
c-11 56 -20 127 -20 127c127 44 263 88 263 88c13 -76 24 -167 24 -167s-45 -8 -83 -15c0 0 0 -53 2 -107c62 1 128 3 128 3c-1 -74 -6 -157 -6 -157z" />
    <glyph glyph-name="cid523" unicode="&#xff82;" horiz-adv-x="499" 
d="M283 681l1 -231s-57 -4 -97 -9c0 0 -11 118 -23 228c0 0 58 7 119 12zM481 649c0 0 -58 -281 -114 -523c0 0 -66 -93 -146 -196c0 0 -42 66 -74 126c0 0 71 70 123 126c0 0 38 215 81 506c0 0 63 -18 130 -39zM135 671c0 0 12 -115 24 -226c0 0 -55 -11 -96 -17
c0 0 -18 106 -41 223c0 0 66 10 113 20z" />
    <glyph glyph-name="cid524" unicode="&#xff83;" horiz-adv-x="464" 
d="M98 594c-3 77 -5 143 -5 143c128 2 250 4 250 4c1 -74 -1 -145 -1 -145c-121 -2 -244 -2 -244 -2zM434 380c0 0 -78 -1 -99 -1c-8 -124 -17 -262 -17 -262c-30 -59 -64 -125 -64 -125c-79 -26 -169 -57 -169 -57c-18 76 -30 158 -30 158c82 27 162 54 162 54s4 124 3 230
c-85 -5 -184 -14 -184 -14c-4 67 -7 163 -7 163c164 6 408 12 408 12c0 -81 -3 -158 -3 -158z" />
    <glyph glyph-name="cid525" unicode="&#xff84;" horiz-adv-x="416" 
d="M341 242c0 0 -95 49 -171 89c-1 -171 -5 -368 -5 -368s-53 -3 -108 -3c0 0 -11 371 -24 763c0 0 70 6 145 6c0 0 -3 -117 -5 -265c99 -34 120 -45 216 -76c-1 -2 -25 -81 -48 -146z" />
    <glyph glyph-name="cid526" unicode="&#xff85;" horiz-adv-x="446" 
d="M413 453c0 0 -33 -2 -85 -6c-1 -166 -4 -334 -4 -334s-77 -98 -151 -188c0 0 -52 67 -89 130c0 0 83 68 136 111c0 0 0 146 -7 269c-92 -7 -176 -14 -176 -14c-5 89 -7 186 -7 186c98 -1 176 -2 176 -2s-1 71 -4 159c0 0 62 4 132 0c0 0 -1 -94 -2 -160h87
c0 -76 -6 -151 -6 -151z" />
    <glyph glyph-name="cid527" unicode="&#xff86;" horiz-adv-x="407" 
d="M321 659c-2 -80 -4 -169 -4 -169c-119 -4 -240 -2 -240 -2c-3 75 -5 173 -5 173c128 2 249 -2 249 -2zM377 204c-4 -88 -6 -165 -6 -165c-161 -1 -337 -4 -337 -4c-3 82 -7 176 -7 176c166 -2 350 -7 350 -7z" />
    <glyph glyph-name="cid528" unicode="&#xff87;" horiz-adv-x="435" 
d="M306 228c40 -49 77 -92 77 -92c-46 -58 -87 -110 -87 -110c-21 32 -52 78 -52 78c-46 -74 -116 -176 -116 -176c-43 48 -86 102 -86 102s80 85 134 175c-26 17 -81 104 -112 146c39 47 81 101 81 101c50 -76 85 -133 85 -133c36 134 66 272 66 272
c-135 -7 -266 -17 -266 -17c-3 91 -3 169 -3 169c131 3 291 1 291 1c49 -66 101 -148 101 -148c-49 -174 -113 -368 -113 -368z" />
    <glyph glyph-name="cid529" unicode="&#xff88;" horiz-adv-x="438" 
d="M296 306c66 -48 122 -95 122 -95c-32 -63 -61 -104 -61 -104s-57 52 -101 97c6 -124 19 -257 19 -257c-55 -4 -111 1 -111 1s5 106 9 200c-52 -23 -127 -49 -127 -49c-12 81 -18 156 -18 156c63 20 135 40 135 40c52 94 95 184 95 184c-104 -14 -232 -30 -232 -30
c-4 82 -5 171 -5 171c70 1 128 4 128 4c-2 44 -5 140 -5 140c55 3 117 1 117 1s-2 -97 -2 -138c50 2 93 2 93 2c28 -74 45 -135 45 -135c-63 -109 -101 -188 -101 -188z" />
    <glyph glyph-name="cid530" unicode="&#xff89;" horiz-adv-x="435" 
d="M407 682c0 0 -57 -291 -103 -501c0 0 -84 -138 -158 -253l-101 101c0 0 85 112 151 202c1 4 29 187 67 486c0 0 67 -15 144 -35z" />
    <glyph glyph-name="cid531" unicode="&#xff8a;" horiz-adv-x="451" 
d="M350 659c0 0 36 -296 74 -673c0 0 -60 -13 -128 -21c0 0 -11 334 -36 682c0 0 47 5 90 12zM196 739c0 0 -19 -387 -36 -770c0 0 -63 7 -130 17c0 0 39 393 69 764c0 0 49 -7 97 -11z" />
    <glyph glyph-name="cid532" unicode="&#xff8b;" horiz-adv-x="431" 
d="M160 431c-10 -185 -10 -317 -10 -317c106 5 245 21 245 21s2 -103 1 -178c0 0 -131 -2 -251 0c0 0 -48 62 -102 113c0 0 -7 317 -14 675c0 0 61 3 146 5c0 0 -3 -109 -7 -180c100 7 209 15 209 15s0 -69 -3 -157c0 0 -128 1 -214 3z" />
    <glyph glyph-name="cid533" unicode="&#xff8c;" horiz-adv-x="440" 
d="M304 705c54 -73 115 -159 115 -159c-46 -213 -86 -419 -86 -419c-80 -81 -193 -176 -193 -176c-40 64 -68 124 -68 124c81 74 173 149 173 149c27 140 49 313 49 313c-103 -9 -261 -22 -261 -22c-2 91 -1 190 -1 190h272z" />
    <glyph glyph-name="cid534" unicode="&#xff8d;" horiz-adv-x="436" 
d="M133 695c55 -2 94 -6 94 -6c97 -357 184 -656 184 -656c-50 -31 -104 -57 -104 -57c-69 263 -130 494 -130 494c-16 -58 -39 -143 -39 -143c-54 17 -112 38 -112 38c56 167 107 330 107 330z" />
    <glyph glyph-name="cid535" unicode="&#xff8e;" horiz-adv-x="467" 
d="M391 454c0 0 24 -164 58 -401c0 0 -51 -16 -100 -30c0 0 -20 177 -48 405c0 0 40 13 90 26zM426 656c0 -70 -4 -143 -4 -143s-84 0 -142 3c0 -211 9 -552 9 -552s-56 -4 -108 -1c0 0 8 312 8 549c-69 -3 -136 -7 -136 -7c-1 68 -3 150 -3 150c70 -1 135 -2 135 -2
c1 58 1 124 1 124s53 1 98 0c0 0 0 -82 1 -123c82 1 141 2 141 2zM76 450c0 0 47 -9 91 -15c0 0 -23 -209 -46 -412c0 0 -57 7 -104 13c0 0 31 192 59 414z" />
    <glyph glyph-name="cid536" unicode="&#xff8f;" horiz-adv-x="438" 
d="M248 158c0 0 32 -34 80 -98c0 0 -48 -68 -91 -117c0 0 -95 146 -181 274c0 0 32 54 67 104l53 -73c60 137 109 285 109 285c-115 -13 -250 -26 -250 -26c-7 93 -11 187 -11 187h303c45 -63 97 -144 97 -144s-101 -218 -176 -392z" />
    <glyph glyph-name="cid537" unicode="&#xff90;" horiz-adv-x="435" 
d="M350 358c-12 -81 -24 -158 -24 -158c-129 48 -244 91 -244 91c12 68 22 148 22 148c102 -34 246 -81 246 -81zM402 605c-18 -86 -34 -173 -34 -173c-166 63 -325 122 -325 122c17 74 31 158 31 158c165 -56 328 -107 328 -107zM395 86c-14 -71 -27 -153 -27 -153
c-172 62 -335 120 -335 120c10 65 23 155 23 155c159 -57 339 -122 339 -122z" />
    <glyph glyph-name="cid538" unicode="&#xff91;" horiz-adv-x="450" 
d="M318 -39c0 0 -12 53 -23 97c0 0 -94 -44 -215 -97c0 0 -33 95 -62 164c0 0 79 288 154 625c0 0 60 -19 119 -40c0 0 -99 -332 -158 -571c0 0 60 13 135 33c-10 39 -17 75 -17 75s49 23 95 39c0 0 40 -126 89 -274c0 0 -54 -24 -117 -51z" />
    <glyph glyph-name="cid539" unicode="&#xff92;" horiz-adv-x="435" 
d="M310 387c48 -44 98 -101 98 -101c-28 -60 -59 -116 -59 -116s-35 34 -75 72c-23 -83 -44 -176 -44 -176s-62 -69 -114 -137c0 0 -52 76 -87 123c0 0 70 62 103 99c32 94 51 181 50 183c-71 70 -121 124 -121 124c30 59 63 107 63 107c48 -50 91 -90 91 -90
c30 132 55 283 55 283s58 -10 123 -33c0 0 -35 -151 -83 -338z" />
    <glyph glyph-name="cid540" unicode="&#xff93;" horiz-adv-x="424" 
d="M226 340c0 0 -3 -144 -4 -261c0 0 74 14 157 27c0 0 -1 -86 -7 -167c0 0 -80 2 -165 4c0 0 -44 64 -84 123c4 89 6 267 6 267c-47 -2 -94 -5 -94 -5c0 66 -1 154 -1 154h102v109c-34 -2 -72 -2 -72 -2c-2 71 -1 158 -1 158h306c-3 -64 -13 -152 -13 -152h-126
c-1 -55 -2 -112 -2 -112c96 0 167 -1 167 -1c0 -63 -5 -136 -5 -136c-89 -2 -164 -6 -164 -6z" />
    <glyph glyph-name="cid541" unicode="&#xff94;" horiz-adv-x="460" 
d="M249 356c0 0 28 61 60 128c0 0 -46 -14 -116 -36c18 -216 43 -492 42 -491c0 0 -42 -9 -96 -21c0 0 -23 253 -45 478c-22 -9 -55 -20 -55 -20s-11 95 -22 187c0 0 36 6 68 14c0 0 -5 78 -12 165l104 13c0 0 4 -82 8 -158c49 11 192 41 192 41s30 -72 66 -161
c0 0 -64 -128 -107 -219c0 0 -50 43 -87 80z" />
    <glyph glyph-name="cid542" unicode="&#xff95;" horiz-adv-x="448" 
d="M420 11c-154 -2 -389 -1 -389 -1c-1 86 -3 170 -3 170c94 -6 191 -11 191 -11c14 220 21 372 21 372c-93 -3 -185 -12 -185 -12c-2 88 -4 185 -4 185c99 3 207 6 207 6c50 -74 104 -155 104 -155s-29 -294 -37 -402c54 -3 102 -3 102 -3c-4 -76 -7 -149 -7 -149z" />
    <glyph glyph-name="cid543" unicode="&#xff96;" horiz-adv-x="438" 
d="M419 594c0 0 -17 -270 -31 -520c0 0 -49 -68 -93 -126c0 0 -122 0 -240 4c0 0 -3 74 -4 142c0 0 133 -4 241 -7c0 0 4 88 7 167c-109 2 -246 1 -246 1c-4 71 -4 143 -4 143s141 -4 256 -8c8 92 8 188 8 188s-136 -5 -271 -14c0 0 -3 83 -7 162c0 0 166 4 293 1
c0 0 46 -64 91 -133z" />
    <glyph glyph-name="cid544" unicode="&#xff97;" horiz-adv-x="438" 
d="M344 769c-1 -73 -5 -142 -5 -142c-144 -1 -273 -5 -273 -5c-2 72 -5 158 -5 158c129 -3 283 -11 283 -11zM316 562c51 -56 99 -119 99 -119c-35 -188 -74 -391 -74 -391c-88 -64 -166 -123 -166 -123c-36 69 -61 122 -61 122c74 51 142 98 142 98c24 135 43 260 43 260
c-121 -9 -268 -21 -268 -21c-2 85 -3 174 -3 174h288z" />
    <glyph glyph-name="cid545" unicode="&#xff98;" horiz-adv-x="421" 
d="M395 701l-36 -570c0 0 -27 -66 -58 -122c0 0 -82 -23 -203 -69c0 0 -15 80 -26 165c0 0 96 10 187 37c0 0 4 233 4 560c0 0 62 -2 132 -1zM172 700c0 0 -4 -180 -6 -352c0 0 -52 -8 -111 -13c0 0 -7 161 -16 358c77 4 132 7 133 7z" />
    <glyph glyph-name="cid546" unicode="&#xff99;" horiz-adv-x="528" 
d="M388 731c0 0 -14 -319 -25 -582c0 0 36 44 75 91c0 0 37 -71 70 -154c0 0 -76 -60 -151 -121c0 0 -48 50 -90 100c0 0 -1 321 -4 668c0 0 59 -3 125 -2zM225 733c0 0 -5 -294 -6 -546c0 0 -40 -107 -82 -209c0 0 -57 40 -113 82c0 0 48 86 84 155c0 0 1 165 -6 514
c0 0 62 2 123 4z" />
    <glyph glyph-name="cid547" unicode="&#xff9a;" horiz-adv-x="418" 
d="M173 722c0 0 -7 -343 -10 -628c0 0 44 25 81 49c0 0 20 64 40 125c0 0 56 -42 111 -87c0 0 -32 -66 -64 -136c0 0 -80 -47 -172 -100c0 0 -62 53 -110 102c0 0 -1 321 -8 673c0 0 65 -1 132 2z" />
    <glyph glyph-name="cid548" unicode="&#xff9b;" horiz-adv-x="447" 
d="M311 560c-89 1 -172 5 -172 5c2 -217 8 -438 8 -438c61 0 144 6 144 6c11 289 20 427 20 427zM427 579c-18 -236 -36 -486 -36 -486c-45 -75 -70 -109 -70 -109c-78 4 -193 -8 -193 -8c-46 65 -78 121 -78 121c-14 209 -32 496 -32 496c58 73 102 117 102 117
c84 7 217 13 217 13c56 -80 90 -144 90 -144z" />
    <glyph glyph-name="cid549" unicode="&#xff9c;" horiz-adv-x="491" 
d="M375 725c59 -70 104 -128 104 -128c-34 -254 -66 -437 -66 -437c-86 -98 -181 -202 -181 -202c-35 63 -70 122 -70 122c83 69 155 143 155 143c23 210 35 345 35 345c-101 6 -205 4 -205 4c1 -77 1 -156 1 -156c-52 -3 -114 -5 -114 -5s-3 127 -5 227l67 80
c107 3 279 7 279 7z" />
    <glyph glyph-name="cid550" unicode="&#xff9d;" horiz-adv-x="449" 
d="M267 156c34 287 59 565 59 565c56 -9 103 -19 103 -19c-27 -280 -54 -584 -54 -584c-57 -70 -99 -122 -99 -122c-111 -4 -214 3 -219 3c-1 93 -1 175 -1 175c111 -4 211 -18 211 -18zM249 572c-11 -72 -25 -141 -25 -141c-91 18 -193 43 -193 43c10 81 23 160 23 160
c97 -30 195 -62 195 -62z" />
    <glyph glyph-name="cid551" unicode="&#xff9e;" horiz-adv-x="282" 
d="M147 982c0 0 48 -1 92 0c0 0 -6 -131 -9 -182c0 0 -58 0 -88 1c0 0 2 89 5 181zM27 982c0 0 48 -1 93 0c0 0 -4 -130 -5 -182c0 0 -51 3 -90 1c0 0 6 98 2 181z" />
    <glyph glyph-name="cid552" unicode="&#xff9f;" horiz-adv-x="211" 
d="M124 959c-31 2 -43 0 -43 0c2 -52 5 -85 5 -85c22 0 35 1 35 1c3 48 3 84 3 84zM183 964c-7 -54 -11 -90 -11 -90c-22 -22 -51 -56 -51 -56c-33 1 -36 1 -36 1c-13 13 -58 51 -58 51c-7 54 -10 95 -10 95c32 27 58 64 58 64c28 0 53 2 53 2c22 -31 55 -67 55 -67z" />
    <glyph glyph-name="cid553" unicode="&#xffe8;" horiz-adv-x="202" 
d="M155 775c-13 -437 -12 -816 -12 -816c-43 1 -88 0 -88 0c-1 428 -16 814 -16 814c57 0 116 2 116 2z" />
    <glyph glyph-name="cid554" 
 />
    <glyph glyph-name="cid555" 
 />
    <glyph glyph-name="cid556" 
 />
    <glyph glyph-name="cid557" 
 />
    <glyph glyph-name="cid558" 
 />
    <glyph glyph-name="cid559" 
 />
    <glyph glyph-name="cid560" 
 />
    <glyph glyph-name="cid561" 
 />
    <glyph glyph-name="cid562" 
 />
    <glyph glyph-name="cid563" 
 />
    <glyph glyph-name="cid564" 
 />
    <glyph glyph-name="cid565" 
 />
    <glyph glyph-name="cid566" 
 />
    <glyph glyph-name="cid567" 
 />
    <glyph glyph-name="cid568" 
 />
    <glyph glyph-name="cid569" 
 />
    <glyph glyph-name="cid570" 
 />
    <glyph glyph-name="cid571" 
 />
    <glyph glyph-name="cid572" 
 />
    <glyph glyph-name="cid573" 
 />
    <glyph glyph-name="cid574" 
 />
    <glyph glyph-name="cid575" 
 />
    <glyph glyph-name="cid576" 
 />
    <glyph glyph-name="cid577" 
 />
    <glyph glyph-name="cid578" 
 />
    <glyph glyph-name="cid579" 
 />
    <glyph glyph-name="cid580" 
 />
    <glyph glyph-name="cid581" 
 />
    <glyph glyph-name="cid582" 
 />
    <glyph glyph-name="cid583" 
 />
    <glyph glyph-name="cid584" 
 />
    <glyph glyph-name="cid585" 
 />
    <glyph glyph-name="cid586" 
 />
    <glyph glyph-name="cid587" 
 />
    <glyph glyph-name="cid588" 
 />
    <glyph glyph-name="cid589" 
 />
    <glyph glyph-name="cid590" 
 />
    <glyph glyph-name="cid591" 
 />
    <glyph glyph-name="cid592" 
 />
    <glyph glyph-name="cid593" 
 />
    <glyph glyph-name="cid594" 
 />
    <glyph glyph-name="cid595" 
 />
    <glyph glyph-name="cid596" 
 />
    <glyph glyph-name="cid597" 
 />
    <glyph glyph-name="cid598" 
 />
    <glyph glyph-name="cid599" 
 />
    <glyph glyph-name="cid600" 
 />
    <glyph glyph-name="cid601" 
 />
    <glyph glyph-name="cid602" 
 />
    <glyph glyph-name="cid603" 
 />
    <glyph glyph-name="cid604" 
 />
    <glyph glyph-name="cid605" 
 />
    <glyph glyph-name="cid606" 
 />
    <glyph glyph-name="cid607" 
 />
    <glyph glyph-name="cid608" unicode="&#xe062;" horiz-adv-x="1408" 
d="M1177 271c-6 1 -9 6 -9 11c4 32 4 65 1 97c-1 5 3 10 8 10l176 23c5 1 10 -3 10 -8c6 -49 6 -99 0 -148c0 -5 -5 -9 -11 -8zM1088 58c-4 3 -5 9 -2 13c19 27 36 55 49 84c2 5 7 7 12 5l164 -68c5 -2 7 -7 5 -12c-20 -46 -44 -87 -74 -127c-3 -4 -9 -5 -13 -2zM1147 500
c-5 -2 -10 0 -13 5c-13 30 -29 58 -48 84c-3 4 -2 10 2 14l141 107c4 3 10 3 13 -2c30 -39 54 -82 74 -128c2 -4 0 -10 -5 -12zM329 602c4 -3 4 -9 1 -13c-19 -26 -35 -54 -48 -84c-2 -5 -8 -7 -13 -5l-163 68c-5 2 -8 8 -5 13c19 45 44 88 74 127c3 5 9 5 13 2zM240 389
c5 -1 9 -5 8 -10c-3 -33 -3 -65 0 -97c1 -6 -3 -10 -8 -11l-176 -23c-5 -1 -10 3 -11 8c-5 49 -5 99 0 148c1 5 6 9 11 8zM270 160c5 2 10 0 12 -5c13 -30 29 -58 48 -84c4 -4 3 -10 -1 -13l-141 -107c-4 -3 -10 -2 -14 2c-29 40 -54 82 -73 127c-2 5 0 10 5 12zM685 606
c180 0 297 -109 297 -272v-257c0 -5 -4 -10 -10 -10h-154c-5 0 -9 5 -9 10v249c0 69 -46 122 -122 122c-60 0 -111 -49 -111 -115c0 -84 59 -121 112 -121c32 0 51 5 65 9c6 2 12 -2 12 -9v-131c0 -6 -2 -11 -8 -13c-22 -10 -60 -14 -89 -14c-143 0 -266 100 -266 275
c0 151 119 277 283 277z" />
    <glyph glyph-name="cid609" unicode="&#xe063;" horiz-adv-x="929" 
d="M394 214l379 -24v171l-249 -42l55 253h-247c39 -224 62 -358 62 -358zM553 709v-41c163 -38 284 -184 284 -358c0 -203 -164 -367 -368 -367c-203 0 -367 164 -367 367c0 176 124 324 290 359v40h-110v129h382v-129h-111z" />
    <glyph glyph-name="cid610" unicode="&#xe064;" horiz-adv-x="920" 
d="M594 212c15 0 27 13 27 28s-12 27 -27 27s-27 -12 -27 -27s12 -28 27 -28zM594 323c49 0 89 -41 89 -90c0 -50 -40 -90 -89 -90s-89 40 -89 90c0 49 40 90 89 90zM327 212c15 0 27 13 27 28s-12 27 -27 27c-14 0 -26 -12 -26 -27s12 -28 26 -28zM325 321
c49 0 88 -39 88 -88s-39 -89 -88 -89c-48 0 -87 40 -87 89s39 88 87 88zM460 802c267 0 453 -143 426 -325c-23 -155 -106 -199 -164 -245v2c0 69 -58 125 -129 125c-88 0 -119 -77 -119 -77s-8 -14 -14 -14s-14 14 -14 14s-22 77 -119 77c-72 0 -129 -56 -129 -125v-2
c-58 46 -142 90 -165 245c-27 182 160 325 427 325zM766 107c17 9 -8 38 39 68c78 -94 18 -186 -76 -186c0 0 -75 0 -94 60c-15 -7 -23 -22 -26 -46c24 -22 24 -44 22 -61h-11c-55 0 -132 3 -160 96c-29 -93 -105 -96 -160 -96h-11c-2 17 -2 39 21 61c-3 24 -11 39 -25 46
c-19 -60 -95 -60 -95 -60c-94 0 -153 92 -75 186c47 -30 22 -59 38 -68c24 -12 45 -18 61 -18c18 0 31 7 36 19c21 -16 48 -25 77 -25c54 0 93 23 119 73c3 4 8 17 14 17s11 -13 13 -17c27 -50 66 -73 120 -73c29 0 55 9 77 25c5 -12 18 -19 36 -19c16 0 37 6 60 18z" />
    <glyph glyph-name="cid611" unicode="&#xe065;" horiz-adv-x="891" 
d="M549 354c39 -1 71 28 72 65c2 38 -29 69 -68 70s-71 -28 -72 -65c-2 -37 29 -68 68 -70zM353 360c38 -1 71 28 72 65c1 38 -30 69 -68 70c-39 1 -72 -28 -73 -65s30 -68 69 -70zM563 509c66 -2 117 -62 115 -133s-57 -128 -123 -125c-47 1 -87 32 -105 76
c-21 -43 -62 -71 -110 -70c-65 2 -117 62 -115 133s57 127 123 125c47 -1 87 -33 105 -77c21 43 62 72 110 71zM322 67c-2 -15 -11 -86 -66 -108c-95 54 -38 146 -31 167c0 0 17 56 -31 170c-154 14 -166 66 -166 66c-26 113 367 513 438 511c72 -2 440 -426 407 -537
c0 0 -15 -51 -170 -55c-55 -111 -41 -168 -41 -168c59 -111 -40 -165 -40 -165c-56 37 -60 107 -60 114c1 -11 1 -110 -66 -133c0 0 -58 14 -54 131c-4 -117 -62 -127 -62 -127c-62 25 -60 115 -58 134zM560 203c77 -3 142 68 145 158c2 85 -48 172 -158 166
c-55 -3 -71 -26 -92 -26c-21 1 -35 25 -90 31c-109 13 -165 -70 -167 -155c-3 -90 57 -165 134 -167c73 -3 80 28 115 27v0h1c34 -1 39 -32 112 -34z" />
    <glyph glyph-name="cid612" unicode="&#xe066;" horiz-adv-x="935" 
d="M864 382h42c0 -238 -194 -435 -439 -435c-118 0 -232 49 -311 127l-56 -71l-30 142l-30 142l145 -3l145 -4l-46 -55c26 -31 58 -55 95 -69c26 -11 55 -17 85 -18c36 0 73 8 107 25c81 39 136 136 136 219h42c0 -83 -39 -166 -101 -218l25 -31c70 60 114 166 114 249h44
c0 -119 -51 -214 -131 -281l22 -27c86 74 142 180 142 308zM235 665l-22 26c-87 -74 -142 -181 -142 -309h-43c0 238 201 444 442 444v0v0v0v0c120 0 229 -49 308 -128l56 68l30 -143l30 -143l-145 3l-144 4l45 55c-25 30 -58 54 -95 69c-26 11 -54 17 -84 17
c-37 1 -74 -9 -108 -25c-80 -40 -135 -130 -135 -221h-43c0 91 40 167 102 219l-26 32c-70 -60 -114 -150 -114 -249h-43c0 113 51 214 131 281z" />
    <glyph glyph-name="cid613" unicode="&#xe067;" horiz-adv-x="974" 
d="M663 242c21 0 23 -42 20 -77c-1 -20 -5 -71 -23 -68c-20 4 -26 30 -26 73c0 39 6 72 29 72zM495 242c21 0 23 -42 20 -77c-1 -20 -5 -71 -23 -68c-20 4 -26 30 -26 73c0 39 6 72 29 72zM788 148c7 87 -34 177 -194 186c-161 8 -243 -39 -257 -130
c-14 -94 32 -198 225 -201c192 -3 220 59 226 145zM877 160c35 -23 70 -38 70 -38c-16 -34 -27 -73 -27 -73c-49 11 -73 12 -73 12c-27 -75 -158 -83 -158 -83c-130 -8 -238 -12 -330 15s-152 137 -155 170c-56 -17 -104 -41 -104 -41c-38 58 -85 117 -85 117
c114 22 170 35 170 35c-8 36 -4 83 -4 83c-58 8 -110 8 -110 8c4 40 4 79 4 79c118 9 123 9 123 9c2 10 6 18 6 18c-102 88 -123 104 -123 104c22 23 39 54 39 54c66 -37 137 -68 137 -68c23 30 41 41 41 41c-34 122 -68 211 -68 211c33 5 69 23 69 23
c92 -184 100 -195 100 -195c16 5 31 3 31 3c11 42 17 116 17 116c25 6 60 -4 60 -4c4 -55 2 -116 2 -116c83 -9 102 -97 102 -97c43 41 85 111 85 111c30 -11 51 -33 51 -33c-19 -67 -50 -124 -50 -124c37 8 76 -22 76 -22c61 25 124 61 124 61c10 -27 29 -52 29 -52
c-39 -31 -89 -65 -89 -65c96 -101 40 -259 40 -259z" />
    <glyph glyph-name="uniE068" unicode="&#xe068;" horiz-adv-x="454" 
d="M420 758c0 0 -21 2 -44 4c-23 -20 -38 -37 -38 -37s-3 -86 -3 -178c-37 1 -66 0 -66 0c0 139 -3 285 -3 285h76c0 -17 -1 -35 -1 -35s18 17 35 34c0 0 23 2 48 2c0 0 -2 -36 -4 -75zM106 720l72 7c3 23 4 46 4 46c-52 -1 -76 -2 -76 -2c-1 -26 0 -51 0 -51zM231 597
c-21 -28 -49 -52 -49 -52c-48 -4 -74 -5 -74 -5l-61 53l-9 175c28 37 58 68 58 68c54 -1 92 -3 92 -3c28 -26 60 -58 60 -58c-8 -41 -16 -94 -16 -94c-75 -4 -124 -7 -124 -7s1 -37 1 -73c39 0 61 3 61 3l-2 40c32 4 67 4 67 4c-3 -35 -4 -51 -4 -51z" />
    <glyph glyph-name="cid615" unicode="&#xe069;" horiz-adv-x="454" 
d="M192 758c0 0 -21 2 -44 4c-23 -20 -38 -37 -38 -37s-3 -86 -3 -178c-37 1 -65 0 -65 0c-1 139 -4 285 -4 285h76v-35l34 34c0 0 23 2 48 2c0 0 -1 -36 -4 -75zM277 720l72 7c2 23 3 46 3 46c-51 -1 -75 -2 -75 -2c-1 -26 0 -51 0 -51zM402 597c-22 -28 -49 -52 -49 -52
c-48 -4 -75 -5 -75 -5l-60 53l-10 175c28 37 58 68 58 68c55 -1 93 -3 93 -3c28 -26 60 -58 60 -58c-8 -41 -16 -94 -16 -94c-75 -4 -124 -7 -124 -7s1 -37 1 -73c39 0 61 3 61 3c-1 20 -3 40 -3 40c33 4 68 4 68 4c-3 -35 -4 -51 -4 -51z" />
    <glyph glyph-name="cid616" unicode="&#xe06a;" horiz-adv-x="260" 
d="M94 720l71 7c3 23 4 46 4 46c-52 -1 -76 -2 -76 -2c0 -26 1 -51 1 -51zM218 597c-21 -28 -48 -52 -48 -52c-48 -4 -75 -5 -75 -5l-61 53l-9 175c28 37 58 68 58 68c54 -1 92 -3 92 -3c29 -26 61 -58 61 -58c-8 -41 -16 -94 -16 -94c-75 -4 -125 -7 -125 -7s1 -37 1 -73
c40 0 62 3 62 3c-2 20 -3 40 -3 40c33 4 67 4 67 4c-2 -35 -4 -51 -4 -51z" />
    <glyph glyph-name="cid617" unicode="&#xe06b;" horiz-adv-x="990" 
d="M59 860h872v-884h-872v884zM615 396c59 39 87 84 87 162c0 96 -86 167 -209 167c-120 0 -214 -69 -218 -184l108 -17c3 70 43 106 101 106c55 0 98 -33 98 -81c0 -43 -20 -71 -60 -97c-58 -39 -92 -77 -92 -150c0 -11 -1 -29 2 -44h107v41c0 49 31 68 76 97zM427 203
v-125h118v125h-118z" />
    <glyph glyph-name="cid618" 
 />
    <glyph glyph-name="cid619" 
 />
    <glyph glyph-name="cid620" 
 />
    <glyph glyph-name="cid621" 
 />
    <glyph glyph-name="cid622" 
 />
    <glyph glyph-name="cid623" 
 />
    <glyph glyph-name="cid624" 
 />
    <glyph glyph-name="cid625" 
 />
    <glyph glyph-name="cid626" 
 />
    <glyph glyph-name="cid627" 
 />
    <glyph glyph-name="cid628" 
 />
    <glyph glyph-name="cid629" 
 />
    <glyph glyph-name="cid630" 
 />
    <glyph glyph-name="cid631" 
 />
    <glyph glyph-name="cid632" 
 />
    <glyph glyph-name="cid633" unicode="&#x2003;" 
 />
    <glyph glyph-name="cid634" unicode="&#x3001;" horiz-adv-x="335" 
d="M134 176l161 -162c-59 -47 -97 -77 -97 -77c-80 78 -161 150 -161 150c51 47 97 89 97 89z" />
    <glyph glyph-name="cid635" unicode="&#x3002;" horiz-adv-x="298" 
d="M197 134h-78c-2 -49 -2 -91 -2 -91c39 0 75 1 75 1c4 43 5 90 5 90zM283 140c-4 -55 -8 -97 -8 -97c-31 -40 -73 -73 -73 -73c-43 0 -86 1 -86 1c-41 32 -79 71 -79 71c-1 54 -4 99 -4 99c37 34 78 72 78 72c45 1 91 2 91 2c34 -35 81 -75 81 -75z" />
    <glyph glyph-name="cid636" unicode="&#xff0c;" horiz-adv-x="285" 
d="M34 129c0 0 103 -2 204 -2c0 0 -4 -106 -7 -185c0 0 -40 -80 -68 -147c0 0 -37 8 -79 21c0 0 16 55 27 113c0 0 -3 -2 -68 10c0 0 -6 105 -9 190z" />
    <glyph glyph-name="cid637" unicode="&#xff0e;" horiz-adv-x="303" 
d="M254 129c2 -100 -8 -180 -8 -186c-94 2 -192 2 -192 2c1 95 -4 188 -4 188c102 -3 204 -4 204 -4z" />
    <glyph glyph-name="cid638" unicode="&#x30fb;" horiz-adv-x="303" 
d="M254 389c-7 -93 -8 -187 -8 -187c-94 2 -192 2 -192 2c1 95 -4 188 -4 188c99 -3 204 -3 204 -3z" />
    <glyph glyph-name="cid639" unicode="&#xff1a;" horiz-adv-x="396" 
d="M92 158c0 0 107 -3 212 -2c0 0 -4 -113 -7 -197c0 0 -104 -1 -195 -4c0 0 -6 112 -10 203zM85 566c0 0 110 -3 219 -2c0 0 -4 -117 -7 -205c0 0 -108 -2 -203 -4c0 0 -6 117 -9 211z" />
    <glyph glyph-name="cid640" unicode="&#xff1b;" horiz-adv-x="376" 
d="M94 129c0 0 103 -2 204 -2c0 0 -4 -106 -7 -185c0 0 -40 -80 -68 -147c0 0 -37 8 -79 21c0 0 16 55 27 113c0 0 -3 -2 -68 10c0 0 -6 105 -9 190zM82 562c0 0 110 -2 219 -2c0 0 -4 -116 -7 -205c0 0 -108 -1 -203 -4c0 0 -5 117 -9 211z" />
    <glyph glyph-name="cid641" unicode="&#xff1f;" horiz-adv-x="704" 
d="M489 806c88 -77 176 -173 176 -173c-30 -150 -55 -265 -55 -265c-63 -53 -131 -96 -131 -96c-42 8 -76 -6 -76 -6c-2 -70 -7 -112 -7 -112c-75 1 -132 0 -132 0c-4 77 -8 138 -8 138c52 43 91 100 91 100c40 -1 116 9 116 9c5 103 11 234 11 234c-146 4 -258 1 -258 1
c4 -90 7 -154 7 -154c-89 -7 -174 -17 -174 -17c-9 81 -20 161 -20 161c92 104 161 183 161 183c170 -2 299 -3 299 -3zM254 84c0 0 73 1 152 -1c0 0 -1 -57 -3 -118h-142s-3 63 -7 119z" />
    <glyph glyph-name="cid642" unicode="&#xff01;" horiz-adv-x="388" 
d="M264 -37h-141s-3 63 -7 118c0 0 72 2 151 0c0 0 -1 -57 -3 -118zM269 152h-153c-14 276 -24 627 -24 627c110 0 219 -3 219 -3c-23 -323 -42 -624 -42 -624z" />
    <glyph glyph-name="cid643" unicode="&#x309b;" horiz-adv-x="366" 
d="M258 982c0 0 62 -1 120 0c0 0 -8 -131 -12 -182c0 0 -76 0 -115 1c0 0 3 89 7 181zM102 982c0 0 62 -1 120 0c0 0 -5 -130 -6 -182c0 0 -67 3 -117 1c0 0 8 98 3 181z" />
    <glyph glyph-name="cid644" unicode="&#x309c;" horiz-adv-x="311" 
d="M197 1001h-78c-2 -49 -2 -91 -2 -91c39 0 75 1 75 1c4 43 5 90 5 90zM283 1007c-4 -55 -8 -97 -8 -97c-31 -40 -73 -74 -73 -74c-43 0 -86 1 -86 1c-41 33 -79 72 -79 72c-1 54 -4 99 -4 99c37 34 78 72 78 72c45 1 91 2 91 2c34 -35 81 -75 81 -75z" />
    <glyph glyph-name="cid646" unicode="&#xff40;" horiz-adv-x="345" 
d="M26 854c0 0 96 32 188 69c0 0 63 -136 111 -259c0 0 -81 -43 -152 -75c0 0 -59 130 -147 265z" />
    <glyph glyph-name="cid648" unicode="&#xff3e;" horiz-adv-x="502" 
d="M477 739c-42 -37 -86 -85 -86 -85l-134 162c-55 -58 -147 -160 -147 -160c-42 44 -89 83 -89 83c110 90 194 167 194 167c44 1 95 0 95 0c69 -75 167 -167 167 -167z" />
    <glyph glyph-name="cid649" unicode="&#xffe3;" horiz-adv-x="755" 
d="M62 767c0 0 298 -8 631 -10c0 0 -2 -63 -7 -130c0 0 -300 -7 -618 -7c0 0 -2 56 -6 147z" />
    <glyph glyph-name="cid650" unicode="&#xff3f;" horiz-adv-x="755" 
d="M58 105c0 0 301 -7 632 -10c0 0 -4 -43 -7 -129c0 0 -304 -3 -618 -7c0 0 -3 55 -7 146z" />
    <glyph glyph-name="cid651" unicode="&#x30fd;" horiz-adv-x="439" 
d="M158 646c0 0 121 -214 245 -469c0 0 -62 -17 -145 -38c0 0 -85 211 -230 481c0 0 69 15 130 26z" />
    <glyph glyph-name="cid652" unicode="&#x30fe;" horiz-adv-x="573" 
d="M158 646c0 0 121 -214 245 -469c0 0 -62 -17 -145 -38c0 0 -85 211 -230 481c0 0 69 15 130 26zM544 486c-38 -13 -86 -31 -86 -31c-33 77 -66 151 -66 151c44 16 94 31 94 31c34 -75 58 -151 58 -151zM426 441c-30 -13 -87 -31 -87 -31c-38 77 -76 152 -76 152
c56 20 101 34 101 34c34 -74 62 -155 62 -155z" />
    <glyph glyph-name="cid653" unicode="&#x309d;" horiz-adv-x="410" 
d="M149 705c0 0 132 -167 227 -295c0 -1 2 -66 -1 -128c0 0 -107 -91 -236 -199c0 0 -44 57 -90 120c0 0 125 84 201 132c0 0 -120 146 -232 276c0 0 69 51 131 94z" />
    <glyph glyph-name="cid654" unicode="&#x309e;" horiz-adv-x="543" 
d="M526 623c-38 -13 -87 -31 -87 -31c-32 77 -66 151 -66 151c45 16 95 31 95 31c34 -75 58 -151 58 -151zM408 578c-30 -13 -87 -31 -87 -31c-38 77 -76 152 -76 152c55 20 101 34 101 34c34 -74 62 -155 62 -155zM149 705c0 0 132 -167 227 -295c0 -1 2 -66 -1 -128
c0 0 -107 -91 -236 -199c0 0 -44 57 -90 120c0 0 125 84 201 132c0 0 -120 146 -232 276c0 0 69 51 131 94z" />
    <glyph glyph-name="cid655" unicode="&#x3003;" horiz-adv-x="618" 
d="M428 238c-72 29 -155 53 -155 53c51 132 139 337 139 337c94 -33 191 -61 191 -61c-91 -167 -175 -329 -175 -329zM179 242c-72 29 -154 53 -154 53c51 133 139 337 139 337c93 -33 191 -61 191 -61c-86 -164 -176 -329 -176 -329z" />
    <glyph glyph-name="cid656" unicode="&#x4edd;" horiz-adv-x="657" 
d="M594 98c2 -69 3 -135 3 -135s-346 0 -543 -3c3 71 4 142 4 142c46 -2 219 -3 219 -3c0 94 -5 209 -5 209c-83 0 -190 -1 -190 -1c-5 79 -10 132 -10 132c256 0 511 2 511 2c-5 -87 -11 -134 -11 -134c-46 1 -144 1 -186 1c0 0 -6 -111 -6 -209c71 0 214 -1 214 -1z
M628 596c-52 -47 -106 -97 -109 -100l-192 185c-70 -72 -197 -183 -197 -183c-53 58 -104 105 -104 105c138 102 248 210 248 210c57 -6 120 0 120 0c116 -121 234 -217 234 -217z" />
    <glyph glyph-name="cid657" unicode="&#x3005;" horiz-adv-x="590" 
d="M444 675c65 -70 133 -159 133 -159s-101 -184 -199 -346c37 -23 63 -38 116 -77c0 0 -41 -62 -88 -115c0 0 -179 137 -308 224c0 0 45 50 75 87c0 0 43 -20 97 -52c83 152 139 296 139 296c-98 18 -180 27 -180 27c-19 -86 -47 -183 -47 -183c-83 14 -152 31 -152 31
l93 295c155 -12 321 -28 321 -28z" />
    <glyph glyph-name="cid658" unicode="&#x3006;" horiz-adv-x="716" 
d="M268 372c-31 -75 -102 -217 -102 -217c70 53 190 178 190 178c-52 23 -88 39 -88 39zM492 279c-159 -153 -371 -313 -371 -313c-19 36 -93 128 -93 128c51 143 108 362 108 362c72 35 133 79 133 79c81 -34 142 -65 142 -65s62 142 115 288c63 -23 139 -46 139 -46
c-70 -157 -127 -291 -127 -291s68 -26 151 -58c-43 -88 -60 -148 -60 -148c-75 34 -137 64 -137 64z" />
    <glyph glyph-name="cid659" unicode="&#x3007;" horiz-adv-x="795" 
d="M611 239c4 102 -3 241 -3 241c-61 77 -125 153 -125 153c-119 -8 -219 -21 -219 -21c-31 -78 -74 -175 -74 -175c7 -100 25 -223 25 -223c51 -66 102 -129 102 -129c108 -3 171 0 171 0s68 78 123 154zM520 783c113 -124 228 -249 228 -249c-16 -195 -23 -365 -23 -365
c-80 -97 -185 -200 -185 -200c-124 -6 -273 -13 -273 -13l-176 197c-30 155 -57 310 -57 310c59 139 131 266 131 266c157 24 355 54 355 54z" />
    <glyph glyph-name="cid660" unicode="&#x30fc;" horiz-adv-x="484" 
d="M444 422c0 -84 -8 -155 -8 -155c-214 2 -389 -4 -389 -4c-5 78 -10 175 -10 175c193 -5 407 -16 407 -16z" />
    <glyph glyph-name="cid661" unicode="&#x2015;" horiz-adv-x="755" 
d="M58 414c0 0 298 -4 643 -10c0 0 -4 -43 -7 -130c0 0 -281 -7 -629 -7c0 0 -3 56 -7 147z" />
    <glyph glyph-name="cid662" 
 />
    <glyph glyph-name="cid663" unicode="&#xff0f;" horiz-adv-x="721" 
d="M458 857c71 -23 149 -50 149 -50c-201 -442 -381 -872 -381 -872c-60 17 -127 42 -127 42c187 448 359 880 359 880z" />
    <glyph glyph-name="cid664" unicode="&#xff3c;" horiz-adv-x="634" 
d="M199 870c0 0 169 -408 381 -893c0 0 -73 -29 -142 -55c0 0 -199 466 -396 887c0 0 65 25 157 61z" />
    <glyph glyph-name="cid665" unicode="&#x301c;" horiz-adv-x="822" 
d="M43 402c0 0 122 81 260 173c0 0 100 -92 188 -174c0 0 91 62 192 127c0 0 46 -73 95 -155c0 0 -141 -76 -287 -156c0 0 -107 97 -182 162c0 0 -62 -57 -150 -130c0 0 -61 82 -116 153z" />
    <glyph glyph-name="cid666" unicode="&#x2016;" horiz-adv-x="470" 
d="M421 -54c0 0 -81 1 -156 0c0 0 2 460 -6 897c0 0 71 0 169 2c0 0 -6 -415 -7 -899zM201 -54c0 0 -82 1 -156 0c0 0 5 470 -6 897c0 0 70 0 168 2c0 0 -7 -450 -6 -899z" />
    <glyph glyph-name="cid667" unicode="&#xff5c;" horiz-adv-x="279" 
d="M221 -54c0 0 -91 1 -166 0c0 0 5 484 -6 897c0 0 81 0 179 2c0 0 -9 -432 -7 -899z" />
    <glyph glyph-name="cid669" 
 />
    <glyph glyph-name="cid670" 
 />
    <glyph glyph-name="cid671" 
 />
    <glyph glyph-name="cid672" 
 />
    <glyph glyph-name="cid673" 
 />
    <glyph glyph-name="cid674" unicode="&#xff08;" horiz-adv-x="460" 
d="M240 901c90 -56 176 -117 176 -117c-89 -99 -186 -206 -186 -206c-11 -192 -4 -413 -4 -413c66 -68 177 -165 177 -165c-62 -45 -126 -91 -126 -91c-106 119 -203 210 -203 210c-10 258 -22 511 -22 511c94 131 188 271 188 271z" />
    <glyph glyph-name="cid675" unicode="&#xff09;" horiz-adv-x="463" 
d="M201 892c0 0 94 -129 207 -262c0 0 -9 -262 -22 -511c0 0 -97 -98 -203 -210c0 0 -64 48 -120 91c0 0 111 97 178 165c0 0 1 241 -2 421c0 0 -95 102 -185 194c0 0 80 63 147 112z" />
    <glyph glyph-name="cid676" unicode="&#x3014;" horiz-adv-x="460" 
d="M259 892c62 -46 125 -116 125 -116c-108 -86 -161 -121 -161 -121c-2 -270 2 -532 2 -532c70 -46 152 -107 152 -107c-49 -51 -110 -116 -110 -116c-107 91 -193 162 -193 162c-2 250 -22 649 -22 649c113 95 207 181 207 181z" />
    <glyph glyph-name="cid677" unicode="&#x3015;" horiz-adv-x="460" 
d="M203 892c0 0 94 -86 207 -181c0 0 -20 -399 -22 -649c0 0 -86 -71 -193 -162c0 0 -61 65 -110 116c0 0 82 61 152 107c0 0 4 262 2 532c0 0 -53 35 -161 121c0 0 63 70 125 116z" />
    <glyph glyph-name="cid678" unicode="&#xff3b;" horiz-adv-x="487" 
d="M395 694c-84 4 -164 6 -164 6c-1 -253 9 -621 9 -621c39 1 80 4 147 14c9 -93 15 -184 15 -184c-272 -3 -307 -2 -307 -2c-16 490 -40 990 -40 990c183 -2 362 -3 362 -3c-10 -114 -22 -194 -22 -200z" />
    <glyph glyph-name="cid679" unicode="&#xff3d;" horiz-adv-x="485" 
d="M102 681c0 0 -11 112 -17 213c0 0 158 -2 350 -4c0 0 -32 -517 -38 -989c0 0 -169 2 -327 4c0 0 17 102 22 194c89 -17 127 -22 172 -30c0 0 9 378 8 631c0 0 -95 -9 -170 -19z" />
    <glyph glyph-name="cid680" unicode="&#xff5b;" horiz-adv-x="517" 
d="M298 892c54 -52 113 -109 113 -109c-75 -55 -143 -105 -143 -105c21 -108 50 -220 50 -220c-30 -32 -63 -73 -63 -73c31 -30 63 -60 63 -60c-26 -120 -45 -222 -45 -222c63 -39 126 -81 126 -81c-47 -58 -83 -111 -83 -111c-101 71 -203 147 -203 147l64 245
s-40 41 -88 82c0 0 49 45 80 78c-32 111 -78 240 -78 240c95 84 207 189 207 189z" />
    <glyph glyph-name="cid681" unicode="&#xff5d;" horiz-adv-x="524" 
d="M256 892c0 0 112 -105 206 -189c0 0 -45 -129 -78 -240c32 -33 81 -78 81 -78c-48 -41 -88 -82 -88 -82l63 -245s-101 -76 -202 -147c0 0 -36 53 -83 111c0 0 63 42 126 81c0 0 -19 102 -45 222c0 0 32 30 63 60c0 0 -33 41 -63 73c0 0 28 112 49 220
c0 0 -67 50 -142 105c0 0 59 57 113 109z" />
    <glyph glyph-name="cid682" unicode="&#x3008;" horiz-adv-x="662" 
d="M472 855c62 -57 118 -113 118 -113c-219 -201 -372 -354 -372 -354c175 -165 372 -346 372 -346c-59 -51 -118 -107 -118 -107c-185 186 -375 376 -375 376c-3 83 -4 165 -4 165c186 181 379 379 379 379z" />
    <glyph glyph-name="cid683" unicode="&#x3009;" horiz-adv-x="672" 
d="M200 855c0 0 194 -198 379 -379c0 0 -6 -81 -4 -165c0 0 -189 -190 -375 -376c0 0 -57 56 -117 107c0 0 220 202 372 346c0 0 -162 162 -372 354c0 0 55 56 117 113z" />
    <glyph glyph-name="cid684" unicode="&#x300a;" horiz-adv-x="850" 
d="M679 857c61 -52 123 -101 123 -101s-193 -207 -346 -367c164 -192 321 -365 321 -365c-59 -42 -123 -87 -123 -87c-159 210 -315 407 -315 407c1 47 0 104 0 104c173 204 340 409 340 409zM389 857c61 -52 124 -101 124 -101s-194 -207 -333 -367
c152 -183 307 -365 307 -365c-57 -42 -123 -87 -123 -87c-156 212 -301 407 -301 407c-1 49 -1 104 -1 104c169 205 327 409 327 409z" />
    <glyph glyph-name="cid685" unicode="&#x300b;" horiz-adv-x="846" 
d="M178 855c0 0 180 -215 340 -409c0 0 -1 -54 0 -104c0 0 -145 -195 -315 -407c0 0 -64 43 -123 87c0 0 157 173 321 366c-158 169 -347 367 -347 367s63 49 124 100zM468 855c0 0 160 -206 326 -409c0 0 2 -55 0 -104c0 0 -147 -198 -301 -407c0 0 -64 45 -123 87
c0 0 156 173 307 366c-154 172 -333 367 -333 367s66 56 124 100z" />
    <glyph glyph-name="cid686" unicode="&#x300c;" horiz-adv-x="472" 
d="M72 914c180 3 341 0 341 0c-3 -101 -8 -200 -8 -200c-84 4 -179 6 -179 6c0 -347 15 -753 15 -753c-96 -1 -172 -2 -172 -2c2 441 3 949 3 949z" />
    <glyph glyph-name="cid687" unicode="&#x300d;" horiz-adv-x="471" 
d="M403 -118c-183 2 -330 0 -330 0c0 102 7 199 7 199c85 -4 179 -6 179 -6c1 347 -14 754 -14 754c99 -1 162 2 162 2c3 -232 -1 -711 -4 -949z" />
    <glyph glyph-name="cid688" unicode="&#x300e;" horiz-adv-x="472" 
d="M367 874c-53 -1 -145 -1 -251 0c1 -125 2 -516 -3 -869c22 0 50 1 82 1c-5 399 -13 755 -13 755s110 -2 180 -5c1 30 2 72 5 118zM459 955c-5 -94 -9 -189 -11 -283c-59 3 -119 6 -178 7c1 -336 16 -753 16 -753c-87 1 -175 0 -262 -3c5 343 6 687 4 1032
c144 -2 287 -2 431 0z" />
    <glyph glyph-name="cid689" unicode="&#x300f;" horiz-adv-x="471" 
d="M119 -78c50 1 138 1 240 0c13 385 3 868 3 868c-19 -1 -43 -1 -72 -1c4 -112 13 -755 13 -755s-110 2 -180 5c-1 -30 -2 -71 -4 -117zM27 -159c4 94 8 187 10 282c60 -3 119 -6 178 -7c0 336 -16 753 -16 753c84 0 168 1 253 5c-6 -345 -7 -689 -4 -1033
c-141 2 -281 2 -421 0z" />
    <glyph glyph-name="cid690" unicode="&#x3010;" horiz-adv-x="487" 
d="M410 764c-90 -35 -179 -64 -179 -64c-3 -257 9 -621 9 -621c85 -30 94 -34 160 -59c2 -48 2 -111 2 -111c-176 -2 -324 -3 -324 -3c0 498 3 988 3 988c170 4 336 0 336 0c-3 -73 -7 -130 -7 -130z" />
    <glyph glyph-name="cid691" unicode="&#x3011;" horiz-adv-x="485" 
d="M93 751c0 0 -2 42 -8 143c0 0 164 5 325 0c0 0 2 -522 3 -993c0 0 -47 -3 -312 3c0 0 4 31 2 131c94 21 160 39 160 39s4 340 9 626c0 0 -78 25 -179 51z" />
    <glyph glyph-name="cid692" unicode="&#xff0b;" horiz-adv-x="661" 
d="M416 435c0 0 108 -1 205 -1c0 0 2 -81 -5 -155c-64 0 -117 0 -202 -1c0 0 -2 -112 -1 -198c0 0 -87 1 -171 5c1 56 0 117 -1 191c0 0 -98 -2 -199 -4c0 0 -2 93 -6 170c78 -2 120 -5 203 -5c0 0 -2 109 -4 205c0 0 102 2 187 5c-3 -74 -5 -141 -6 -212z" />
    <glyph glyph-name="cid693" unicode="&#xff0d;" horiz-adv-x="517" 
d="M62 465c0 0 197 -4 404 -10c0 0 0 -90 -7 -182c0 0 -201 -6 -391 -7c0 0 -3 101 -6 199z" />
    <glyph glyph-name="cid697" unicode="&#xff1d;" horiz-adv-x="688" 
d="M101 573c0 0 236 -2 488 -2c0 0 -3 -90 -4 -176c0 0 -225 -1 -481 -7c0 0 -1 103 -3 185zM101 321c0 0 220 -4 488 -2c0 0 -3 -89 -4 -175c0 0 -225 -1 -481 -7c0 0 -1 103 -3 184z" />
    <glyph glyph-name="cid698" unicode="&#x2260;" horiz-adv-x="688" 
d="M411 693c66 0 141 -2 141 -2c-18 -40 -37 -80 -56 -121c30 0 61 0 93 1c0 0 -3 -90 -4 -176c0 0 -68 0 -171 -1l-35 -75h210c0 0 -1 -96 -3 -182c0 0 -130 2 -276 1c-32 -62 -66 -134 -66 -134c-61 1 -127 0 -127 0c20 46 40 91 58 135c-23 -1 -47 -1 -71 -2
c0 0 1 93 2 179c0 0 53 1 147 3c11 25 21 50 31 73c-56 -1 -117 -2 -180 -4c0 0 -1 103 -3 185c0 0 105 -2 259 -3c32 77 51 123 51 123z" />
    <glyph glyph-name="cid699" unicode="&#xff1c;" horiz-adv-x="410" 
d="M283 599c50 -47 93 -98 93 -98c-57 -43 -199 -152 -199 -152c86 -78 196 -166 196 -166c-40 -45 -90 -100 -90 -100c-128 126 -225 219 -225 219c1 56 0 108 0 108c102 84 225 189 225 189z" />
    <glyph glyph-name="cid700" unicode="&#xff1e;" horiz-adv-x="410" 
d="M139 599c0 0 124 -105 226 -189c0 0 -1 -52 -1 -108c0 0 -96 -93 -225 -219c0 0 -49 55 -90 100c0 0 111 88 196 166c0 0 -141 109 -198 152c0 0 43 51 92 98z" />
    <glyph glyph-name="cid701" unicode="&#x2266;" horiz-adv-x="435" 
d="M57 302c0 0 165 -5 324 -6c0 0 -2 -53 -4 -104c0 0 -164 -3 -319 0c0 0 0 61 -1 110zM55 152c0 0 161 -1 324 -5c0 0 -2 -54 -4 -105c0 0 -162 -4 -319 0c0 0 -1 61 -1 110zM313 675c36 -43 71 -91 71 -91c-57 -25 -213 -89 -213 -89c78 -35 218 -104 218 -104
c-49 -44 -92 -80 -92 -80c-120 77 -256 147 -256 147c3 43 1 85 1 85c110 53 271 132 271 132z" />
    <glyph glyph-name="cid702" unicode="&#x2267;" horiz-adv-x="435" 
d="M385 302v-110c-155 -3 -320 0 -320 0c-1 51 -4 104 -4 104c160 1 324 6 324 6zM387 152v-110c-157 -4 -319 0 -319 0c-2 51 -5 105 -5 105c164 4 324 5 324 5zM130 675c0 0 161 -79 270 -132c0 0 -1 -42 1 -85c0 0 -135 -70 -256 -147c0 0 -42 36 -91 80
c0 0 140 69 217 104c0 0 -155 64 -213 89c0 0 36 48 72 91z" />
    <glyph glyph-name="cid703" unicode="&#x221e;" horiz-adv-x="821" 
d="M659 397c-77 -6 -152 -18 -152 -18c-1 -52 -2 -107 -2 -107c71 -13 153 -24 153 -24c5 76 1 149 1 149zM170 408c-3 -81 3 -164 3 -164c81 6 150 25 152 25c1 75 1 115 1 115c-82 13 -156 24 -156 24zM342 511c32 -30 76 -65 76 -65s42 33 90 66c77 10 166 14 166 14
c46 -49 113 -116 113 -116c-3 -76 -11 -171 -11 -171c-47 -47 -102 -108 -102 -108c-105 10 -178 24 -178 24c-32 29 -79 62 -79 62s-36 -31 -78 -69c-87 -16 -183 -27 -183 -27c-54 55 -108 108 -108 108c-4 99 -2 212 -2 212c66 53 124 94 124 94c87 -7 172 -24 172 -24z
" />
    <glyph glyph-name="cid704" unicode="&#x2234;" horiz-adv-x="660" 
d="M596 192c-3 -58 -5 -116 -5 -116c-58 1 -119 1 -119 1c1 59 -3 117 -3 117c62 -2 127 -2 127 -2zM192 192c-1 -59 -4 -116 -4 -116c-59 1 -119 1 -119 1c0 59 -3 117 -3 117c62 -2 126 -2 126 -2zM393 535c-1 -59 -5 -116 -5 -116c-58 1 -119 1 -119 1
c0 59 -3 117 -3 117c62 -2 127 -2 127 -2z" />
    <glyph glyph-name="cid705" unicode="&#x2642;" horiz-adv-x="694" 
d="M225 300c-23 -47 -34 -103 -34 -103c35 -59 54 -85 54 -85c31 -10 80 -24 80 -24c43 28 86 45 86 45c12 48 21 95 21 95c-13 31 -44 79 -44 79c-50 20 -75 28 -75 28s-51 -14 -88 -35zM241 700c131 48 248 100 248 100s47 -20 99 -38c0 0 51 -185 74 -258
c0 0 -52 -31 -104 -60c-18 79 -31 136 -31 136s-62 -136 -78 -178l36 -21c37 -68 77 -134 77 -134c-12 -97 -39 -200 -39 -200c-62 -47 -148 -98 -148 -98c-116 23 -224 42 -224 42c-63 104 -124 207 -124 207c49 113 93 201 93 201c90 39 173 70 172 69l38 -16
c14 27 53 98 92 172c0 0 -76 -21 -164 -52c0 -2 -6 62 -17 128z" />
    <glyph glyph-name="cid706" unicode="&#x2640;" horiz-adv-x="580" 
d="M470 117c0 0 -68 -1 -124 0c0 0 -6 -93 -4 -152h-115s2 74 0 151c0 0 -55 -2 -112 -3c0 0 -1 64 -5 131c40 1 74 0 113 2c0 0 0 46 -1 90h-24c-66 53 -133 106 -133 106c-15 92 -27 190 -27 190c45 78 85 148 85 148c117 20 221 40 221 40c98 -75 192 -146 192 -146
c-4 -93 -21 -210 -21 -210c-67 -71 -126 -126 -126 -126l-39 -2v-92c0 0 73 3 122 2c0 0 0 -60 -2 -129zM388 519c3 51 -2 94 -2 99c-55 41 -82 58 -82 58c-36 -1 -83 -6 -83 -6c-28 -41 -48 -77 -48 -77c4 -30 12 -95 12 -95c29 -27 63 -50 63 -50c48 3 89 3 89 3
s24 35 51 68z" />
    <glyph glyph-name="cid708" unicode="&#x2032;" horiz-adv-x="257" 
d="M182 626c-79 6 -156 6 -156 6c16 131 15 278 15 278c101 -2 203 1 203 1c-30 -168 -62 -285 -62 -285z" />
    <glyph glyph-name="cid709" unicode="&#x2033;" horiz-adv-x="629" 
d="M254 626c-79 6 -156 6 -156 6c10 138 15 278 15 278c101 -2 203 1 203 1c-27 -144 -62 -285 -62 -285zM491 626c-79 6 -156 6 -156 6c16 142 16 280 16 278c100 -2 202 1 202 1c-27 -144 -62 -285 -62 -285z" />
    <glyph glyph-name="cid710" 
 />
    <glyph glyph-name="cid711" unicode="&#xffe5;" horiz-adv-x="525" 
d="M472 772c-19 -76 -37 -342 -37 -342l-136 -123c33 1 67 2 100 4c-1 -53 -2 -117 -2 -117c-42 1 -94 2 -94 2c0 -17 1 -35 2 -54c32 1 63 2 94 3c-1 -53 -2 -117 -2 -117c-36 1 -86 2 -86 2c3 -25 4 -49 6 -71c-55 1 -140 1 -140 1c1 31 3 73 3 73h-67
c-1 51 -2 107 -2 107c30 -1 75 0 75 0c0 19 1 39 2 58c-27 1 -54 1 -75 0c-1 52 -2 107 -2 107c34 0 84 1 84 1v4s-63 70 -131 136c0 0 -1 235 -18 324c0 0 87 0 158 2c-2 -132 2 -327 2 -327s51 -2 97 -3c0 0 11 217 11 332c0 0 78 -2 158 -2z" />
    <glyph glyph-name="cid712" unicode="&#xff04;" horiz-adv-x="597" 
d="M362 -45l-1 -91c-69 -1 -121 -1 -121 -1v93h-44c0 0 -77 54 -141 110c0 52 -4 112 -4 112s67 3 145 2c0 0 0 -70 2 -109c0 0 22 0 41 1c0 49 -1 106 -1 169c-12 0 -34 0 -45 -1c0 0 -75 58 -153 116c0 0 2 162 -7 299c0 0 64 63 131 129c0 0 22 1 57 2c-1 19 9 78 9 96
h152l-1 -92c13 0 35 1 48 1c0 0 57 -68 135 -143c0 0 -4 -79 -15 -174c0 0 -62 2 -121 2c0 0 -1 75 1 171l-51 -2c-2 -78 -4 -175 -6 -280h58c0 0 56 -58 120 -114c0 0 -7 -98 -8 -177c0 0 -58 -62 -122 -119h-58zM237 366c-1 87 -2 180 -4 271l-48 -2s-2 -134 3 -269h49z
M420 241h-51c-1 -54 -2 -109 -4 -164c16 1 41 2 55 3c0 0 2 71 0 161z" />
    <glyph glyph-name="cid713" unicode="&#xffe0;" horiz-adv-x="533" 
d="M326 -104c0 0 -29 1 -103 0c0 0 0 18 -1 51c-29 -1 -59 -1 -59 -1c-80 72 -117 119 -117 119c-5 175 -14 367 -14 367c68 65 120 137 120 137l57 -2c-1 24 -1 49 -2 74c0 0 38 0 136 2c0 0 -1 -30 -3 -81l43 -1c63 -61 120 -129 120 -129c1 -43 2 -108 2 -108
c-77 3 -124 7 -124 7c-1 44 -2 87 -2 87c-11 1 -32 1 -44 2c-3 -97 -6 -218 -8 -348h38c0 61 -1 91 -1 91c67 0 130 -2 130 -2c1 -49 0 -89 0 -89c-60 -68 -99 -118 -99 -118c-18 -1 -48 -2 -69 -3v-55zM220 75c-1 92 -4 213 -7 349c-22 1 -46 1 -46 1c6 -168 8 -348 8 -348
c11 -1 33 -1 45 -2z" />
    <glyph glyph-name="cid714" unicode="&#xffe1;" horiz-adv-x="537" 
d="M244 443c39 2 84 2 84 2c-4 -67 -2 -128 -2 -128s-43 0 -82 -3c0 0 1 -85 1 -219c72 -2 156 -3 242 -4c0 0 -2 -66 -5 -129c0 0 -230 -6 -442 -5c0 0 -2 76 -5 141c0 0 33 -1 86 -1c-1 60 -2 140 -4 216c0 0 -52 -2 -81 -3l-4 128c44 1 80 2 80 2s-2 148 -14 253
c73 67 134 123 134 123h186s-8 -100 -19 -197c0 0 -79 15 -149 29c-1 -1 -4 -130 -6 -205z" />
    <glyph glyph-name="cid715" unicode="&#xff05;" horiz-adv-x="797" 
d="M637 217c-52 -1 -69 0 -69 0c-3 -63 -2 -86 -2 -86c49 0 65 1 65 1c4 55 6 85 6 85zM755 223c-5 -69 -10 -92 -10 -92c-39 -51 -102 -94 -102 -94c-55 0 -79 2 -79 2c-52 41 -100 91 -100 91c-1 68 -4 95 -4 95c46 43 98 101 98 101c57 1 85 3 85 3
c43 -45 112 -106 112 -106zM226 595c-52 -1 -69 0 -69 0c-3 -63 -2 -86 -2 -86c49 0 65 1 65 1c4 55 6 85 6 85zM334 601c-5 -69 -10 -92 -10 -92c-39 -51 -92 -94 -92 -94c-55 0 -79 2 -79 2c-52 41 -110 91 -110 91c-1 68 -4 95 -4 95c46 43 108 101 108 101
c57 1 85 3 85 3c43 -45 102 -106 102 -106zM498 857c71 -23 171 -63 171 -63c-201 -442 -381 -872 -381 -872c-60 17 -148 55 -148 55c186 448 358 880 358 880z" />
    <glyph glyph-name="cid716" unicode="&#xff03;" horiz-adv-x="735" 
d="M407 431c-25 1 -49 1 -71 1c-12 -38 -26 -81 -40 -123h70c13 38 28 82 41 122zM627 609c28 0 54 1 54 1c-2 -58 -4 -182 -4 -182h-129c-13 -34 -30 -83 -44 -119c36 0 64 1 64 1c2 -54 0 -179 0 -179c-73 -2 -133 -2 -133 -2c-23 -64 -45 -129 -67 -193h-135
s28 75 70 198c-34 -1 -66 -1 -66 -1c-20 -65 -41 -131 -62 -197h-135s23 75 58 199h-43c-2 92 -4 172 -4 172c34 1 67 1 100 2c12 40 23 81 35 125h-70c-3 85 -1 176 -1 176c44 0 90 -1 121 -1c36 110 64 206 64 206s81 0 165 -2c0 0 -26 -75 -68 -204c0 0 35 0 72 1
c21 66 43 140 62 205c0 0 77 0 158 -2c0 0 -34 -101 -62 -204z" />
    <glyph glyph-name="cid717" unicode="&#xff06;" horiz-adv-x="795" 
d="M278 72c46 20 116 53 116 53s-55 80 -118 164c-29 -34 -84 -100 -84 -100c35 -61 86 -117 86 -117zM260 517c11 -13 34 -36 34 -36c36 43 74 78 110 122c-67 45 -103 70 -103 70c-24 -91 -41 -156 -41 -156zM765 191c-33 -108 -72 -211 -72 -211c-106 34 -202 71 -202 71
c-51 -51 -139 -121 -139 -121c-92 12 -187 27 -187 27c-52 56 -107 117 -107 117c21 93 41 192 41 192c51 53 118 128 118 128s-41 73 -61 108c7 113 10 229 10 229c85 47 188 110 188 110c67 -46 137 -96 137 -96c17 -82 36 -190 36 -190c-67 -71 -152 -154 -152 -154
c61 -74 134 -151 134 -151c21 87 51 188 51 188c74 -21 151 -37 151 -37c-39 -80 -90 -188 -90 -188c60 -13 144 -22 144 -22z" />
    <glyph glyph-name="cid718" unicode="&#xff0a;" horiz-adv-x="425" 
d="M363 728c-26 -13 -42 -26 -67 -39c0 0 36 -25 67 -40c0 0 -25 -34 -46 -67c-36 20 -66 40 -66 40v-83c0 0 -33 1 -76 2c1 45 0 80 0 81c0 0 -28 -19 -70 -42c0 0 -18 37 -40 69c0 0 30 20 66 40c0 0 -33 23 -70 40c0 0 28 36 45 71c26 -14 42 -28 68 -42c0 0 -1 49 -2 81
c0 0 35 -3 80 1c0 -28 0 -56 -1 -83c0 0 28 18 68 42c0 0 21 -36 44 -71z" />
    <glyph glyph-name="cid719" unicode="&#xff20;" horiz-adv-x="858" 
d="M474 95c2 85 5 194 5 194c-57 0 -113 -1 -113 -1c6 -92 14 -194 14 -194c48 1 94 1 94 1zM569 753c122 -114 246 -246 246 -246c-23 -197 -46 -387 -46 -387c-95 -42 -177 -96 -177 -96s-17 18 -30 32c-47 -29 -84 -64 -84 -64c-54 2 -106 3 -106 3
c-49 45 -106 93 -106 93c-13 107 -19 208 -19 208c46 42 107 101 107 101c87 3 129 3 129 3s2 29 -2 56c0 0 -24 -1 -180 -10c0 0 -10 69 -12 131l194 -10c75 -65 160 -131 160 -131s-30 -71 -57 -148c0 0 -7 -97 -9 -168l91 66c13 124 18 293 18 293
c-82 80 -149 132 -149 132c-120 -3 -259 -12 -259 -12c-65 -86 -123 -165 -123 -165c32 -190 64 -371 64 -371c68 -51 135 -100 135 -100c101 9 192 18 192 18c4 -44 9 -83 9 -83c-99 -17 -225 -36 -225 -36c-118 82 -217 156 -217 156c-45 217 -85 431 -85 431
c78 119 172 269 172 269c174 17 369 35 369 35z" />
    <glyph glyph-name="cid721" unicode="&#x2606;" horiz-adv-x="947" 
d="M717 411c0 0 -62 9 -152 23c0 0 -35 98 -70 184c0 0 -37 -90 -88 -183c0 0 -77 -13 -161 -20c0 0 87 -69 145 -126c0 0 -29 -84 -62 -172c0 0 75 44 144 79c0 0 82 -36 174 -75c0 0 -28 71 -69 163c0 0 58 54 139 127zM911 468c-135 -137 -219 -223 -219 -223
c63 -152 115 -310 115 -310c-172 71 -324 138 -324 138c-132 -61 -317 -138 -317 -138c58 191 99 309 99 309c-104 108 -228 232 -228 232c194 38 283 58 283 58c82 162 179 319 179 319c104 -195 165 -329 165 -329c119 -22 247 -56 247 -56z" />
    <glyph glyph-name="cid722" unicode="&#x2605;" horiz-adv-x="947" 
d="M37 476c208 47 283 58 283 58c96 177 179 319 179 319c102 -208 139 -327 139 -327c208 -46 273 -58 273 -58c-122 -137 -219 -223 -219 -223c69 -176 115 -310 115 -310c-164 56 -324 138 -324 138c-140 -67 -317 -138 -317 -138c79 221 99 309 99 309
c-110 108 -228 232 -228 232z" />
    <glyph glyph-name="cid723" unicode="&#x25cb;" horiz-adv-x="875" 
d="M672 239c4 102 -3 241 -3 241c-68 77 -138 153 -138 153c-142 -4 -241 -11 -241 -11c-43 -88 -81 -185 -81 -185c13 -116 27 -223 27 -223c47 -56 113 -129 113 -129c119 -3 188 0 188 0s74 78 135 154zM572 783c124 -124 251 -249 251 -249c-12 -187 -26 -365 -26 -365
c-97 -100 -203 -200 -203 -200c-145 -9 -300 -13 -300 -13c-94 99 -194 197 -194 197c-33 166 -62 310 -62 310c73 138 143 266 143 266c178 35 391 54 391 54z" />
    </font>
</defs>
</svg>
